<mxfile host="Electron" modified="2023-10-17T14:25:01.075Z" agent="Mozilla/5.0 (X11; Linux x86_64) AppleWebKit/537.36 (KHTML, like Gecko) draw.io/22.0.2 Chrome/114.0.5735.289 Electron/25.8.4 Safari/537.36" etag="JdHHSscbEa84CwvstsnT" version="22.0.2" type="device">
  <diagram name="Page-1" id="iWjNdsOTh-RDMmud64A5">
    <mxGraphModel dx="1364" dy="843" grid="1" gridSize="10" guides="1" tooltips="1" connect="1" arrows="1" fold="1" page="1" pageScale="1" pageWidth="1169" pageHeight="827" math="0" shadow="0">
      <root>
        <mxCell id="0" />
        <mxCell id="1" parent="0" />
        <mxCell id="kF3Sqht3dwinTs4FuCk_-1" value="" style="shape=image;aspect=fixed;image=data:image/png,iVBORw0KGgoAAAANSUhEUgAAA+gAAAJJCAYAAAA5lB0bAAAAOXRFWHRTb2Z0d2FyZQBNYXRwbG90bGliIHZlcnNpb24zLjYuMywgaHR0cHM6Ly9tYXRwbG90bGliLm9yZy/P9b71AAAACXBIWXMAAA9hAAAPYQGoP6dpAADopklEQVR4nOzdd1wUd/4/8Nc2FqQjTRGx9xKDDRM1GiIaU4xeElMuaozRnCanppy5eKafMUVTND2Wu4up35RLrMSeSCyosRcUBUFAEFikbpnfH/52joWl7LLsLp95PR8PHs7Ozs58PrsvF94zn5lRSZIkgYiIiIiIiIg8Su3pBhARERERERERC3QiIiIiIiIir8ACnYiIiIiIiMgLsEAnIiIiIiIi8gIs0ImIiIiIiIi8AAt0IiIiIiIiIi/AAp2IiIiIiIjIC7BAJyIiIiIiIvICLNCJiIiIiIiIvAALdCIiIiIiIiIvwAKdiIiIGmX16tVQqVR1/vz+++8AUO8ys2bNqrXeXbt24Z577kFMTAx8fHwQHByMIUOG4KWXXkJubq67u0lEROQxWk83gIiIiFqWl156CR07dqw1v0uXLvL0LbfcgoceeqjWMt26dbN5vGjRIrz88svo1KkTpk6dik6dOqGiogKpqal46623sGbNGpw9e9b1nSAiIvJCLNCJiIjIIePGjcPAgQPrXaZbt2548MEH613mq6++wssvv4x77rkH//73v+Hj42Pz/LJly7Bs2bImt5eIiKil4BB3IiIi8ohFixYhPDwcn332Wa3iHACCg4PxwgsvuL9hREREHsIj6EREROSQ4uJi5Ofn28xTqVRo3bq1/LiioqLWMgAQFBQEHx8fnD59GqdPn8YjjzyCgICAZm8zERFRS8ACnYiIiBySmJhYa55er0dFRYX8+LPPPsNnn31Wa7kvvvgCkydPxsmTJwEAffr0sXlekiQUFBTYzAsJCYFWyz9ZiIhIfPxtR0RERA5ZsWJFrYu9aTQam8d33nkn5syZU+u1ffv2BQAYDAYAqHX0vLi4GBERETbz9u3b1+A570RERCJggU5EREQOGTx4cIMFc7t27eweabcKDAwEAFy9etVmfkBAAJKTkwEAmzdvxhtvvNHE1hIREbUcLNCJiIjI7Xr06AEAOHr0qM18rVYrF/YXL150e7uIiIg8iVdxJyIiIrfr3r07unbtih9++AGlpaWebg4REZFXYIFOREREHvHCCy8gPz8fM2bMgNForPW8JEkeaBUREZHncIg7EREROWTDhg3yVdirGzZsGDp16gQAOH36NP7zn//UWiYqKgq33HILAOD+++/H0aNHsXjxYuzduxeTJ09Gx44dUVpaiqNHj+KLL75AYGAgQkNDm7dDREREXkIlcfc0ERERNcLq1asxbdq0Op9ftWoVpk6dCpVKVecyI0eOxPbt223m7dixA8uXL8dvv/2G/Px8+Pn5oVu3bhg/fjxmzZqF6OhoV3WBiIjIq7FAJyIiIiIiIvICPAediIiIiIiIyAuwQCciIiIiIiLyAizQiYiIiIiIiLwAC3QiIiIiIiIiL8ACnYiIiIiIiMgLsEAnIiIiIiIi8gJaTzdACSwWC7KzsxEYGFjvvWGJiIiIiIhILJIkoaSkBG3btoVaXf8xchbobpCdnY3Y2FhPN4OIiIiIiIg8JDMzE+3atat3GRbobhAYGAgA+O9//4uRI0d6uDVETWM2m3Hq1Cl0794dGo3G080hajJmmkTCPJNImGcShcFgQGxsrFwX1ocFuhtYh7X7+PggKCjIw60hahqz2YyAgAAEBQXxlyUJgZkmkTDPJBLmmUTTmNOdWaC7Eb9YSAQajQZ9+vTxdDOIXIaZJpEwzyQS5pmUiFdxdyOz2ezpJhA1mdlsxsGDB5lnEgYzTSJhnkkkzDMpEQt0InKYn5+fp5tA5FLMNImEeSaRMM+kNBzi7kYc4k4i0Gg06NGjh6ebQeQyzDSJhHkmkTDPpEQ8gu5GJpPJ000gajKTyYR9+/YxzyQMZppEwjyTSJhnUiIW6G7UmKv2EXk7lUqF0NBQ5pmEwUyTSJhnEgnzTErEIe5uVFpaiszMTPj7+8Pf3x96vd7TTSJymEajQZcuXTzdDCKXYaZJJMwziYR5JiVige5GBw8ehMVikR9rtVr4+/ujVatW8PPzg6+vL/R6PXQ6HXQ6HbRarc2PdR6RJ5lMJuzduxeDBw9mHkkIzDSJhHkmkTDPpERMuhtFRkbaPDaZTCguLkZxcXGj16FWq20KeI1GA41GA5VKBbVaLRfz1sdW1scajUZ+nVqtludVn7YuY32NWq2Wp1UqlfxjXa/1X1GHH0mSZHeevfnA/94L6/MivTeVlZUoKipCYGAgioqKEBQUBB8fH083i8hhFosFWVlZuHjxIq5evQqz2Yxz586hQ4cOzDS1aGq1GjExMTZ/AxC1VEajERERETCbzSzQSTFUUl1VBrmMwWBAcHAw1qxZg1atWnm6OW5TXzFv/bdm/OwVs9Zlqhe89ZEkye66rc/VFXl7z7nyv4e998K6Tetj6w4R686Q6m2o+dqa6675XH07Cuy979Wnaz5vNpthNBpRWVlZa9t+fn7Q6XQ266jrvben5mde8z2x91xd66zvs7WXq+rZqvke2Ju214bqfai5w8re+u31tzHsfX7O7Pix14662lNf1up7762FQc111cxiXduq+R5Xf3/tvcbed0pd27YyGAwoLy+v1T/gWqYDAwNr9aOu96wm6/Ya87q63uOa3xH23g9727RO1/Ud0tD/zeo7d+v7/2Rvu/baV993Tl3tsfd521ve3nPW/2v2PoPGtLcxr7HXPnvfMXX1q3r76/u/XNfvzup9r9m+mu9JQ3mr6/ut5vtcM1s122Xv/bDXd0d+pzb0f6z6dur6e8Nef2q2r/prG/v3hb0+2VunI99j1dtbffn62mJtT83PpGY/69pezfesrs/P3vLWEaF1fbfV9b1V/TOp+d5b12E0GlFWVoYLFy6goKBAfn1UVBQ6dOgAPz8/mz7X9b1QV9/r+11SX0Yb+v9V871qKO81v6fqWqYxWQD+9zekveesGnre3jbt/Q6p7+/I+t7but5DtVoNSZJgNpvr/T6t672w951Y1+8Pe98VdbW/rvZaLBZYLJY6f//U3I4kSSguLkZYWBiKi4sRFBRkt39WQu+KeuGFF/Diiy/azOvevTtOnjwJAKioqMCTTz6JL7/8EpWVlUhKSsL777+PqKgoefmMjAw89thj2LZtGwICAjBlyhQsXryYe/EaoaEvHaWp7/2wzq9+CoQ302g0MJvNAIDy8vI6Cx2iloKZJpFUzzNRS2fNc05ODnJycjzdHCKnlJWVNXpZ4avM3r1745dffpEfVy+s582bh3Xr1uGbb75BcHAw5syZg4kTJ+K3334DcO2o4fjx4xEdHY3du3fj0qVLeOihh6DT6fDPf/7T7X0h8hYtZUcCUWMx0yQS5plEwjyT0ghfoGu1WkRHR9eaX1xcjM8++wxr167F6NGjAQCrVq1Cz5498fvvv2Po0KHYvHkzjh8/jl9++QVRUVG47rrr8PLLL+Nvf/sbXnjhBYfPU6ysrFTUEHcSF0dGkGiYaRIJ80wiYZ5JaYS/gsiZM2fQtm1bdOrUCQ888AAyMjIAAKmpqTAajUhMTJSX7dGjB9q3b4+UlBQAQEpKCvr27Wsz5D0pKQkGgwHHjh2rc5uVlZUwGAw2PwDkbRO1dDzFg0TDTJNImGcSCfNMSiN0gT5kyBCsXr0aGzduxAcffID09HQMHz4cJSUlyMnJgY+PD0JCQmxeExUVJZ/fkpOTY1OcW5+3PleXxYsXIzg4WP6JjY0FcO0cGsD2Ig7WK6jbm7ZeWKD6tPXq6vamrXQ6XYPT1uVVKlWd09b2Vp+2Xund3jT7pJw+WbcnUp9E/JzYp8b3yWw2C9enmv1gn5TTJ7PZLFyfavaDfVJOn8xms3B9qjnNPimnT42hqKu4FxUVIS4uDkuXLoWfnx+mTZtW66rUgwcPxqhRo7BkyRI8+uijuHDhAjZt2iQ/X1ZWBn9/f6xfvx7jxo2zu53Kykqb9RoMBsTGxmLhwoXo379/83SOiIiIiIiIvE5ZWRmmTJnSqKu4C30EvaaQkBB069YNaWlpiI6ORlVVFYqKimyWyc3Nlc9Zj46ORm5ubq3nrc/VRa/XIygoyOaHSCQcbkaiYaZJJMwziYR5JqVRVIF+9epVnD17Fm3atEF8fDx0Oh22bNkiP3/q1ClkZGQgISEBAJCQkIAjR44gLy9PXiY5ORlBQUHo1auX29tP5C14+x4SDTNNImGeSSTMMymN0LuknnrqKdx+++2Ii4tDdnY2nn/+eWg0Gtx3330IDg7G9OnTMX/+fISFhSEoKAiPP/44EhISMHToUADAmDFj0KtXL/z5z3/G66+/jpycHCxcuBCzZ8+GXq/3cO+IPEdBZ8aQQjDTJBLmmUTCPJPSCF2gX7x4Effddx8KCgoQERGBG2+8Eb///jsiIiIAAMuWLYNarcakSZNQWVmJpKQkvP/++/LrNRoNfv75Zzz22GNISEiAv78/pkyZgpdeeslTXSLyClqtFiaTydPNIHIZZppEwjyTSJhnUhpFXSTOUwwGA4KDg3mROCIiIiIiIoXhReKIiIiIiIiIWhgW6ETksOr3hCQSATNNImGeSSTMMykNC3Q36tChg6ebQOQSRqPR000gcilmmkTCPJNImGdSGhbobsQ9gERERERERFQXFuhE5DDubCLRMNMkEuaZRMI8k9KwQCcih3G4GYmGmSaRMM8kEuaZlIYFuhsVFhZ6uglERERERETkpVigu1F+fr6nm0DkEhxuRqJhpkkkzDOJhHkmpWGBTkQO43AzEg0zTSJhnkkkzDMpDQt0IiIiIiIiIi/AAp2IHKbVaj3dBCKXYqZJJMwziYR5JqVhgU5EDjOZTJ5uApFLMdMkEuaZRMI8k9KwQCcih6lUKk83gcilmGkSCfNMImGeSWlYoBORwzQajaebQORSzDSJhHkmkTDPpDQs0InIYRxuRqJhpkkkzDOJhHkmpWGBTkQO43AzEg0zTSJhnkkkzDMpDQt0N/Lx8fF0E4hcgsPNSDTMNImEeSaRMM+kNCzQ3SguLs7TTSByCQ43I9Ew0yQS5plEwjyT0rBAJyKHcbgZiYaZJpEwzyQS5pmUhgU6ETlMreZXB4mFmSaRMM8kEuaZlIaJJyKHmc1mTzeByKWYaRIJ80wiYZ5JaVigu1F2dranm0DkEhxuRqJhpkkkzDOJhHkmpWGB7kalpaWebgKRS3C4GYmGmSaRMM8kEuaZlIaJJyKHcbgZiYaZJpEwzyQS5pmUhgU6ETmMe7NJNMw0iYR5JpEwz6Q0TDwROYzng5FomGkSCfNMImGeSWlYoDfSihUr0KFDB/j6+mLIkCHYu3evp5tE5DEcbkaiYaZJJMwziYR5JqVhgd4IX331FebPn4/nn38eBw4cQP/+/ZGUlIS8vDxPN43IIzjcjETDTJNImGcSCfNMSsPEN8LSpUsxY8YMTJs2Db169cKHH36IVq1aYeXKlZ5uGpFHcLgZiYaZJpEwzyQS5pmUhgV6A6qqqpCamorExER5nlqtRmJiIlJSUuy+prKyEgaDweaHSCQcbkaiYaZJJMwziYR5JqVhgd6A/Px8mM1mREVF2cyPiopCTk6O3dcsXrwYwcHB8k9sbCwAQKPRALhW4FuH62g0mjqnrXsMq09rtdo6p610Ol2D09blVSpVndPW9lafVqvVdU6zT+wT+8Q+tdQ+qdVq4fpUsx/sk3L6ZF1WpD7V7Af7pJw+qdVq4fpUc5p9Uk6fGkMlSZLU6KUVKDs7GzExMdi9ezcSEhLk+c888wx27NiBPXv21HpNZWUlKisr5ccGgwGxsbF48803ERcX55Z2EzUntVoNi8Xi6WYQuQwzTSJhnkkkzDOJoKysDFOmTEFxcTGCgoLqXVZb77OE8PBwaDQa5Obm2szPzc1FdHS03dfo9Xro9fpa8yMiIpqljUTuxl+UJBpmmkTCPJNImGdSGg5xb4CPjw/i4+OxZcsWeZ7FYsGWLVtsjqgTKYkjw3SIWgJmmkTCPJNImGdSGh5Bb4T58+djypQpGDhwIAYPHoy3334bpaWlmDZtmqebRuQRPDOGRMNMk0iYZxIJ80xKwwK9Ee69915cvnwZixYtQk5ODq677jps3Lix1oXjiJSCw81INMw0iYR5JpEwz6Q0HOLeSHPmzMGFCxdQWVmJPXv2YMiQIQ6v48yZM83QMiL343AzEg0zTSJhnkkkzDMpDQt0InIYh5uRaJhpEgnzTCJhnklpWKATkcM43IxEw0yTSJhnEgnzTErDAp2IHMbhZiQaZppEwjyTSJhnUhoW6ETkMO7NJtEw0yQS5plEwjyT0rBAJyKH8XwwEg0zTSJhnkkkzDMpDQt0InIYh5uRaJhpEgnzTCJhnklpWKATkcM43IxEw0yTSJhnEgnzTErDAp2IHMbhZiQaZppEwjyTSJhnUhoW6ETkMK1W6+kmELkUM00iYZ5JJMwzKU2TEm80GpGTk4OysjJEREQgLCzMVe0SUkxMjKebQOQSZrPZ000gcilmmkTCPJNImGdSGoePoJeUlOCDDz7AyJEjERQUhA4dOqBnz56IiIhAXFwcZsyYgX379jVHW1u8Vq1aeboJRC7B4WYkGmaaRMI8k0iYZ1Iahwr0pUuXokOHDli1ahUSExPxww8/4NChQzh9+jRSUlLw/PPPw2QyYcyYMRg7dizOnDnTXO0mIg/icDMSDTNNImGeSSTMMymNQ4nft28fdu7cid69e9t9fvDgwXj44Yfx4YcfYtWqVdi1axe6du3qkoYSkffgcDMSDTNNImGeSSTMMymNQwX6F1980ajl9Ho9Zs2a5VSDRFZWVsZh7iQEDjcj0TDTJBLmmUTCPJPS8CrubpSVleXpJhC5BIebkWiYaRIJ80wiYZ5JaZxOfEFBAVq3bg0AyMzMxCeffILy8nLccccdGD58uMsaSETex2QyeboJRC7FTJNImGcSCfNMSuPwEfQjR46gQ4cOiIyMRI8ePXDo0CEMGjQIy5Ytw8cff4xRo0bhhx9+aIamEhEREREREYnL4QL9mWeeQd++fbFz507cdNNNuO222zB+/HgUFxejsLAQM2fOxGuvvdYcbSUiL6HT6TzdBCKXYqZJJMwziYR5JqVxeIj7vn37sHXrVvTr1w/9+/fHxx9/jL/85S9Qq6/V+o8//jiGDh3q8oYSkfcwGo2ebgKRSzHTJBLmmUTCPJPSOHwE/cqVK4iOjgYABAQEwN/fH6GhofLzoaGhKCkpcV0LiYiIiIiIiBTAqau4q1Sqeh8Tkdg43IxEw0yTSJhnEgnzTErj1FXcp06dCr1eDwCoqKjArFmz4O/vDwCorKx0XeuIyCtxuBmJhpkmkTDPJBLmmZTG4QJ9ypQpNo8ffPDBWss89NBDzreIiIiIiIiISIEcLtBXrVrVHO0gohZEp9NxjzYJhZkmkTDPJBLmmZTGqXPQyTldu3b1dBOIXIK/KEk0zDSJhHkmkTDPpDQOHUGfP39+o5ddunSpw41xtQ4dOuDChQs28xYvXowFCxbIjw8fPozZs2dj3759iIiIwOOPP45nnnnG5jXffPMN/vGPf+D8+fPo2rUrlixZgltvvdUtfSAiIiIiIiJlcKhAP3jwoM3jAwcOwGQyoXv37gCA06dPQ6PRID4+3nUtbKKXXnoJM2bMkB8HBgbK0waDAWPGjEFiYiI+/PBDHDlyBA8//DBCQkLw6KOPAgB2796N++67D4sXL8Ztt92GtWvXYsKECThw4AD69Onj9v4QeQOtVguTyeTpZhC5DDNNImGeSSTMMymNQwX6tm3b5OmlS5ciMDAQa9aske+DXlhYiGnTpmH48OGubWUTBAYGyvdtr+nzzz9HVVUVVq5cCR8fH/Tu3RuHDh3C0qVL5QL9nXfewdixY/H0008DAF5++WUkJydj+fLl+PDDD93WDyJvwl+UJBpmmkTCPJNImGdSGqfPQX/rrbewePFiuTgHgNDQULzyyit46623XNI4V3jttdfQunVrDBgwAG+88YbNf/KUlBSMGDECPj4+8rykpCScOnUKhYWF8jKJiYk260xKSkJKSkqd26ysrITBYLD5AYDLly+7smtEHqNSqTzdBCKXYqZJJMwziYR5JqVxukA3GAx2C87Lly+jpKSkSY1ylSeeeAJffvkltm3bhpkzZ+Kf//ynzfnlOTk5iIqKsnmN9XFOTk69y1ift2fx4sUIDg6Wf2JjYwFAfl/UajXU6mtvvUajqXPa+oVUfVqr1dY5baXT6Rqcti6vUqnqnNZoNLWm1Wp1ndPsk3L6VHO+CH0S8XNinxrfJ+v2ROpTzX6wT8rpk0ajEa5PNfvBPimnTxqNRrg+1Zxmn5TTp8ZQSZIkNXrpah566CHs2rULb731FgYPHgwA2LNnD55++mkMHz4ca9ascWa1DVqwYAGWLFlS7zInTpxAjx49as1fuXIlZs6ciatXr0Kv12PMmDHo2LEjPvroI3mZ48ePo3fv3jh+/Dh69uwJHx8frFmzBvfdd5+8zPvvv48XX3wRubm5drdfWVmJyspK+bHBYEBsbCwWLlyI/v37O9plIiIiIiIiaqHKysowZcoUFBcXIygoqN5lHb4PutWHH36Ip556Cvfff798+wOtVovp06fjjTfecHa1DXryyScxderUepfp1KmT3flDhgyByWTC+fPn0b17d0RHR9cqsq2Preet17VMXee1A4Ber4der2+oK0QtlkqlgpP79oi8EjNNImGeSSTMMymN0wV6q1at8P777+ONN97A2bNnAQCdO3eGv7+/yxpnT0REBCIiIpx67aFDh6BWqxEZGQkASEhIwHPPPQej0SgPX0hOTkb37t3lc+sTEhKwZcsWzJ07V15PcnIyEhISmtYRohZMo9Hwoi0kFGaaRMI8k0iYZ1Iah85Bz8jIqDXP398f/fr1Q79+/WoV51lZWU1rXROkpKTg7bffxh9//IFz587h888/x7x58/Dggw/Kxff9998PHx8fTJ8+HceOHcNXX32Fd955x+Z+73/961+xceNGvPXWWzh58iReeOEF7N+/H3PmzPFU14g8jr8oSTTMNImEeSaRMM+kNA4V6IMGDcLMmTOxb9++OpcpLi7GJ598gj59+uD//u//mtxAZ+n1enz55ZcYOXIkevfujVdffRXz5s3Dxx9/LC8THByMzZs3Iz09HfHx8XjyySexaNEi+RZrADBs2DCsXbsWH3/8Mfr3749vv/0WP/zwA++BTopmvbgGkSiYaRIJ80wiYZ5JaRy6SFxBQQFeffVVrFy5Er6+voiPj0fbtm3h6+uLwsJCHD9+HMeOHcP111+Pf/zjH7j11lubs+0thsFgQHBwMC8SR8LQaDQwm82ebgaRyzDTJBLmmUTCPJMIHLlInENH0Fu3bo2lS5fi0qVLWL58Obp27Yr8/HycOXMGAPDAAw8gNTUVKSkpLM6JBMZflCQaZppEwjyTSJhnUhqnLhLn5+eHP/3pT/jTn/7k6vYQUQvAK6qSaJhpEgnzTCJhnklpHDqCTk3T3Fe4J3IXtZpfHSQWZppEwjyTSJhnUhom3o3atm3r6SYQuQSHm5FomGkSCfNMImGeSWlYoBORw7g3m0TDTJNImGcSCfNMSsPEE5HDeMsTEg0zTSJhnkkkzDMpDQt0InIYh5uRaJhpEgnzTCJhnklpnC7QR48ejRdffLHW/MLCQowePbpJjRLVhQsXPN0EIpfgcDMSDTNNImGeSSTMMymNU7dZA4Dt27fjyJEjOHjwID7//HP5CuVVVVXYsWOHyxookqqqKk83gcglONyMRMNMk0iYZxIJ80xK06RdUr/88gtycnIwdOhQnD9/3kVNIiJvx+FmJBpmmkTCPJNImGdSmiYV6G3atMGOHTvQt29fDBo0CNu3b3dRs8R09uxZ7NixA6mpqThz5gwuXbqEq1evwmKxeLppRA7hcDMSDTNNImGeSSTMMymN00PcrcNN9Ho91q5di1deeQVjx47F3/72N5c1TjQFBQWIiopCfn4+zp8/D4PBgJKSEpSVldldXqvVwsfHR/5Xp9PJPzUf15ynVquh0Wig0WigVqsbfFzzX7VazSFFZJfRaIRKpZJzQtRSFRQUID09HSUlJVCpVOjWrRvatGnD7z4iIiLyGKcLdEmSbB4vXLgQPXv2xJQpU5rcKFENHjwY/fv3b9SykiTBZDLBaDTCaDSiqqoKJpMJVVVV8rzqzxmNRhgMBnmexWKB2WyWfywWi80863TNf6svS2SPVquFSqWCyWSSvwcaU9DU/M4g8iSTyYTQ0FB07doVQUFBsFgs2LhxI3JycuQdlDVzXf1xQ5kXddn63hN3LVvfMu7auWLdTl3ttvd+OvIZNGa+t63HU+10djtK364nt92Y5crKynDu3DmYzWao1WpYLBb4+Pige/fu8nWvnPl/5kqO/H93R7uqb7v6T0PLNzTPkde7Yh3e0AZn11UXSZJQWVnZ6OWdLtDT09MRHh5uM2/SpEno3r07UlNTnV0t/X8qlUo+Gk7kbTQaDc8JoxZNkiSbX7oajQbDhg2TH1ssljp3KtWcX9/OJy7b9GUbWr6pr3OWdd32+lZXf51pj6PvFQC5oHHkNe5qm7Pra8p6ub2Wtz1fX19MmDABOp1O/pujvLwcaWlpKC8vr/f/uzsOCNT3/x+A3f9/zd2u6m2q/uPIaxs7vzHLueO1zbFtZ9th77XVd5oYjcZGv9bhAt1gMAAAQkNDcfXq1VrPt2/fHu3bt3d0tUTUgvBoOLV0NfeI18w0T9+glqy+Ap2opbF+P/v5+aFv374ebg2Rc8rKyrB27dpGLetwgR4SElLvoX7r3gIeXSMSF//wI9Ew0yQS5plEwjyT0jhcoG/btk2eliQJt956Kz799FPExMS4tGFE5L04xJ1Ew0yTSJhnEgnzTErjcIE+cuRIm8cajQZDhw5Fp06dXNYoUdU8Z5+opeIQdxINM00iYZ5JJMwzKQ1PsnOj0NBQTzeByCU43IxEw0yTSJhnEgnzTErDAp2IHKbRaDzdBCKXYqZJJMwziYR5JqVxSYHuznsOEpHncW82iYaZJpEwzyQS5pmUxuFz0CdOnGjzuKKiArNmzYK/v7/N/O+++65pLROQI/e/I/JmPB+MRMNMk0iYZxIJ80xK43CBHhwcbPP4wQcfdFljRHf+/Hn079/f080gajJeUZVEw0yTSJhnEgnzTErjcIG+atWq5mgHEbUgHG5GomGmSSTMM4mEeSalcfgc9EWLFiE1NbU52kJELQSHm5FomGkSCfNMImGeSWkcLtAvXryIcePGoV27dnjsscewYcMGVFVVNUfbiMhLabUOD74h8mrMNImEeSaRMM+kNA4X6CtXrkROTg6++OILBAYGYu7cuQgPD8ekSZPwr3/9C1euXGmOdtby6quvYtiwYWjVqhVCQkLsLpORkYHx48ejVatWiIyMxNNPPw2TyWSzzPbt23H99ddDr9ejS5cuWL16da31rFixAh06dICvry+GDBmCvXv3NkOPiFoOngtGomGmSSTMM4mEeSalceo2a2q1GsOHD8frr7+OU6dOYc+ePRgyZAg++ugjtG3bFiNGjMCbb76JrKwsV7dXVlVVhbvvvhuPPfaY3efNZjPGjx+Pqqoq7N69G2vWrMHq1auxaNEieZn09HSMHz8eo0aNwqFDhzB37lw88sgj2LRpk7zMV199hfnz5+P555/HgQMH0L9/fyQlJSEvL6/Z+kbk7TjcjETDTJNImGcSCfNMSqOSXJz6y5cv47///S/++9//Yvjw4XjqqadcufpaVq9ejblz56KoqMhm/oYNG3DbbbchOzsbUVFRAIAPP/wQf/vb33D58mX4+Pjgb3/7G9atW4ejR4/Kr5s8eTKKioqwceNGAMCQIUMwaNAgLF++HMC1C1XExsbi8ccfx4IFCxrVRoPBgODgYCxcuJBXcSchaLXaWqNRiFoyZppEwjyTSJhnEkFZWRmmTJmC4uJiBAUF1busw0fQDxw4gGeffRaFhYUAgIULF9o8HxERgenTp+PHH39s9uK8PikpKejbt69cnANAUlISDAYDjh07Ji+TmJho87qkpCSkpKQAuHaUPjU11WYZtVqNxMREeRl7KisrYTAYbH6IRMLhZiQaZppEwjyTSJhnUhqHC/RHH30UAQEBuOuuu1BcXIytW7c2R7uaLCcnx6Y4ByA/zsnJqXcZg8GA8vJy5Ofnw2w2213Gug57Fi9ejODgYPknNjYWwLX7OALXiny1Wi3Pq2tapVLVmtZqtXVOW+l0uganrcurVKo6p63trT6tVqvrnGaflNOnmvNF6JOInxP71Pg+SZIkXJ9q9oN9Uk6fJEkSrk81+8E+KadPkiQJ16ea0+yTcvrUGA5fFtHX1xfPPfccxowZg+nTp7v0vJAFCxZgyZIl9S5z4sQJ9OjRw2XbbA7PPvss5s+fLz82GAyIjY2V9wBWv59j9b2CjZmuPsSnrmmj0djgtHV5SZLqnLZut/p09bbXNc0+id8n6/ZE6pOInxP71Pg+WYdQitSnmv1gn5TTp5pDgkXoU33T7JPYfdJqtcL1qeY0+yR+nxwZCeJwge7n5wcAGDRoEMaNG1fnRdqc8eSTT2Lq1Kn1LtOpU6dGrSs6OrrW1dZzc3Pl56z/WudVXyYoKAh+fn7QaDTQaDR2l7Guwx69Xg+9Xl9rfvv27RvVdiJvx3PBSDTMNImEeSaRMM+kNA4X6K+88op8tGH69Olo3bq1yxoTERGBiIgIl6wrISEBr776KvLy8hAZGQkASE5ORlBQEHr16iUvs379epvXJScnIyEhAQDg4+OD+Ph4bNmyBRMmTABwbQ/Ili1bMGfOHIfbZK9oJyIiIiIiIgKcOAfd39/fZry+tXB1t4yMDBw6dAgZGRkwm804dOgQDh06hKtXrwIAxowZg169euHPf/4z/vjjD2zatAkLFy7E7Nmz5UJ51qxZOHfuHJ555hmcPHkS77//Pr7++mvMmzdP3s78+fPxySefYM2aNThx4gQee+wxlJaWYtq0aR7pN5E3qH4+DpEImGkSCfNMImGeSWkcPoLer18/DBo0CI888ggmT56MwMDA5mhXgxYtWoQ1a9bIjwcMGAAA2LZtG2666SZoNBr8/PPPeOyxx5CQkAB/f39MmTIFL730kvyajh07Yt26dZg3bx7eeecdtGvXDp9++imSkpLkZe69915cvnwZixYtQk5ODq677jps3Lix1oXjiJSk+vk4RCJgpkkkzDOJhHkmpXH4Pui7du3CqlWr8O2338JisWDSpEl45JFHMHz48OZqY4tnvQ/6u+++izZt2ni6OUREREREROQmzXof9OHDh2PlypW4dOkS3nvvPZw/fx4jR45Et27dsGTJknpvP6Z0eXl5nm4CkUtwuBmJhpkmkTDPJBLmmZTG4QLdyt/fH9OmTcOOHTtw+vRp3H333VixYgXat2+PO+64w5VtJCIvw+FmJBpmmkTCPJNImGdSGqcL9Oq6dOmCv//971i4cCECAwOxbt06V6yWiIiIiIiISDGaXKDv3LkTU6dORXR0NJ5++mlMnDgRv/32myvaRkReisPNSDTMNImEeSaRMM+kNA5fxR0AsrOzsXr1aqxevRppaWkYNmwY3n33Xdxzzz3w9/d3dRuJyMtwuBmJhpkmkTDPJBLmmZTG4QJ93Lhx+OWXXxAeHo6HHnoIDz/8MLp3794cbSMiIiIiIiJSDIcLdJ1Oh2+//Ra33XYbNBpNrecvX76MX375Bffdd59LGkhE3ker1cJkMnm6GUQuw0yTSJhnEgnzTErjcIH+3//+FwDw0ksv2X3+7Nmz+O6771igEwmMvyhJNMw0iYR5JpEwz6Q0Tp2DDgDff/+9zWOz2YzMzEwYDAa88sorTW4YEXkvlUoFSZI83Qwil2GmSSTMM4mEeSalcbpAP3jwYK15JpMJc+fOxbFjx5rUKFFptU6/3UReRaPRcI82CYWZJpEwzyQS5pmUxqUVo1arxdy5c9GvXz9XrlYYHTt29HQTiFyCvyhJNMw0iYR5JpEwz6Q0Tb4Pek0XLlxgIUokOJVK5ekmELkUM00iYZ5JJMwzKY3TR9DffffdWvNyc3OxcuVK3H777TbPP/HEE85uhoi8EIebkWiYaRIJ80wiYZ5JaVSSk1ddaOxRcpVKhXPnzjmzCWEYDAYEBwdjzZo1aNWqlaebQ0RERERERG5SVlaGKVOmoLi4GEFBQfUu6/QR9PT0dGdfqlg5OTno1KmTp5tB1GS8oiqJhpkmkTDPJBLmmZTG5eegU91KSko83QQil1Cr+dVBYmGmSSTMM4mEeSalYeKJyGFms9nTTSByKWaaRMI8k0iYZ1IaFuhE5DBeUZVEw0yTSJhnEgnzTErDAp2IHMbhZiQaZppEwjyTSJhnUhomnogcxuFmJBpmmkTCPJNImGdSGhboROQw7s0m0TDTJBLmmUTCPJPSMPFE5DCeD0aiYaZJJMwziYR5JqVhgU5EDuNwMxINM00iYZ5JJMwzKQ0LdCJyGIebkWiYaRIJ80wiYZ5JaZh4NwoKCvJ0E4hcgsPNSDTMNImEeSaRMM+kNC22QH/11VcxbNgwtGrVCiEhIXaXUalUtX6+/PJLm2W2b9+O66+/Hnq9Hl26dMHq1atrrWfFihXo0KEDfH19MWTIEOzdu9epNkdFRTn1OiJvw+FmJBpmmkTCPJNImGdSmhZboFdVVeHuu+/GY489Vu9yq1atwqVLl+SfCRMmyM+lp6dj/PjxGDVqFA4dOoS5c+fikUcewaZNm+RlvvrqK8yfPx/PP/88Dhw4gP79+yMpKQl5eXnN1TUir8fhZiQaZppEwjyTSJhnUhqtpxvgrBdffBEA7B7xri4kJATR0dF2n/vwww/RsWNHvPXWWwCAnj174tdff8WyZcuQlJQEAFi6dClmzJiBadOmya9Zt24dVq5ciQULFrioN0RERERERKR0wu+Smj17NsLDwzF48GCsXLkSkiTJz6WkpCAxMdFm+aSkJKSkpAC4dpQ+NTXVZhm1Wo3ExER5GXsqKythMBhsfohEYrFYPN0EIpdipkkkzDOJhHkmpRG6QH/ppZfw9ddfIzk5GZMmTcJf/vIXvPfee/LzOTk5tc4Lj4qKgsFgQHl5OfLz82E2m+0uk5OTU+d2Fy9ejODgYPknNjYWAHD+/HkA14p863AdjUZT57T1ohjVp7VabZ3TVjqdrsFp6/IqlarOaY1GU2tarVbXOc0+sU/sE/vUUvtk3Z5IfarZD/ZJOX3SaDTC9almP9gn5fRJo9EI16ea0+yTcvrUGCqp+iFlD1uwYAGWLFlS7zInTpxAjx495MerV6/G3LlzUVRU1OD6Fy1ahFWrViEzMxMA0K1bN0ybNg3PPvusvMz69esxfvx4lJWVobCwEDExMdi9ezcSEhLkZZ555hns2LEDe/bssbudyspKVFZWyo8NBgNiY2OxcOFC9O/fv8F2Enk7tVrNPdokFGaaRMI8k0iYZxJBWVkZpkyZguLi4gbv7OVV56A/+eSTmDp1ar3LdOrUyen1DxkyBC+//DIqKyuh1+sRHR2N3Nxcm2Vyc3MRFBQEPz8/eQ+0vWXqOq8dAPR6PfR6vdPtJPJ2/EVJomGmSSTMM4mEeSal8aoCPSIiAhEREc22/kOHDiE0NFQunhMSErB+/XqbZZKTk+Wj5T4+PoiPj8eWLVvkq79bLBZs2bIFc+bMabZ2Enk7jUbD256QUJhpEgnzTCJhnklpvKpAd0RGRgauXLmCjIwMmM1mHDp0CADQpUsXBAQE4KeffkJubi6GDh0KX19fJCcn45///CeeeuopeR2zZs3C8uXL8cwzz+Dhhx/G1q1b8fXXX2PdunXyMvPnz8eUKVMwcOBADB48GG+//TZKS0vlq7oTKZEXnRlD5BLMNImEeSaRMM+kNC22QF+0aBHWrFkjPx4wYAAAYNu2bbjpppug0+mwYsUKzJs3D5IkoUuXLvIt06w6duyIdevWYd68eXjnnXfQrl07fPrpp/It1gDg3nvvxeXLl7Fo0SLk5OTguuuuw8aNG2tdOI5ISTjcjETDTJNImGcSCfNMSuNVF4kTlcFgQHBwMC8SR8LgcDMSDTNNImGeSSTMM4nAkYvECX2bNSJqHtybTaJhpkkkzDOJhHkmpWGBTkQO48AbEg0zTSJhnkkkzDMpDQt0InKYRqPxdBOIXIqZJpEwzyQS5pmUhgW6G7Vp08bTTSByCQ43I9Ew0yQS5plEwjyT0rBAd6OAgABPN4HIJTjcjETDTJNImGcSCfNMSsMCnYgcptW22Ds0EtnFTJNImGcSCfNMSsMCnYgcxtudkGiYaRIJ80wiYZ5JaVigu1FFRYWnm0DkEhxuRqJhpkkkzDOJhHkmpWGB7kaZmZmebgKRS3C4GYmGmSaRMM8kEuaZlIYFOhE5jMPNSDTMNImEeSaRMM+kNCzQichhHG5GomGmSSTMM4mEeSalYYFORA7jcDMSDTNNImGeSSTMMykNC3QicpjJZPJ0E4hcipkmkTDPJBLmmZSGBToRERERERGRF2CBTkQO0+l0nm4CkUsx0yQS5plEwjyT0rBAJyKHGY1GTzeByKWYaRIJ80wiYZ5JaVigExEREREREXkBFuhE5DAONyPRMNMkEuaZRMI8k9KwQHejTp06eboJRC7B4WYkGmaaRMI8k0iYZ1IaFuhupNFoPN0EIiIiIiIi8lIs0InIYRxuRqJhpkkkzDOJhHkmpWGBTkQO43AzEg0zTSJhnkkkzDMpDQt0NyooKPB0E4iIiIiIiMhLsUB3oytXrni6CUQuodVqPd0EIpdipkkkzDOJhHkmpWGBTkQOM5lMnm4CkUsx0yQS5plEwjyT0rBAJyKHqVQqTzeByKWYaRIJ80wiYZ5JaVpkgX7+/HlMnz4dHTt2hJ+fHzp37oznn38eVVVVNssdPnwYw4cPh6+vL2JjY/H666/XWtc333yDHj16wNfXF3379sX69ettnpckCYsWLUKbNm3g5+eHxMREnDlzpln7R+TteMtAEg0zTSJhnkkkzDMpTYss0E+ePAmLxYKPPvoIx44dw7Jly/Dhhx/i73//u7yMwWDAmDFjEBcXh9TUVLzxxht44YUX8PHHH8vL7N69G/fddx+mT5+OgwcPYsKECZgwYQKOHj0qL/P666/j3XffxYcffog9e/bA398fSUlJqKiocGufibwJh5uRaJhpEgnzTCJhnklpVJIkSZ5uhCu88cYb+OCDD3Du3DkAwAcffIDnnnsOOTk58PHxAQAsWLAAP/zwA06ePAkAuPfee1FaWoqff/5ZXs/QoUNx3XXX4cMPP4QkSWjbti2efPJJPPXUUwCA4uJiREVFYfXq1Zg8eXKj2mYwGBAcHIyFCxeif//+ruw2kUeoVCoI8tVBBICZJrEwzyQS5plEUFZWhilTpqC4uBhBQUH1Ltsij6DbU1xcjLCwMPlxSkoKRowYIRfnAJCUlIRTp06hsLBQXiYxMdFmPUlJSUhJSQEApKenIycnx2aZ4OBgDBkyRF7GnsrKShgMBpsfIpFwuBmJhpkmkTDPJBLmmZRGiAI9LS0N7733HmbOnCnPy8nJQVRUlM1y1sc5OTn1LlP9+eqvs7eMPYsXL0ZwcLD8ExsbC+B/XzBqtRpqtVqeV9e09aIY1ae1Wm2d01Y6na7BaevyKpWqzmlre6tPq9XqOqfZJ+X0ybo9kfok4ufEPjW+TyaTSbg+1ewH+6ScPplMJuH6VLMf7JNy+mQymYTrU81p9kk5fWoMr7qx4IIFC7BkyZJ6lzlx4gR69OghP87KysLYsWNx9913Y8aMGc3dxEZ59tlnMX/+fPmxwWBAbGwszGYzAMBiscjPWec1drr6eTh1TRuNxganrctLklTntHW71aert72uafZJ/D6ZzWZ5uJkofRLxc2KfGt8nlUolXJ9q9oN9Uk6fVCqVcH2qb5p9ErtPKpVKuD7VnGafxO9T9fY0xKsK9CeffBJTp06td5lOnTrJ09nZ2Rg1ahSGDRtmc/E3AIiOjkZubq7NPOvj6Ojoepep/rx1Xps2bWyWue666+pso16vh16vrzXf19e33r4RtRRqtdqhLxoib8dMk0iYZxIJ80xK41UFekREBCIiIhq1bFZWFkaNGoX4+HisWrVKHtpglZCQgOeeew5Go1EempCcnIzu3bsjNDRUXmbLli2YO3eu/Lrk5GQkJCQAADp27Ijo6Ghs2bJFLsgNBgP27NmDxx57zOH+WYe6E7V0/EVJomGmSSTMM4mEeSalaZHnoGdlZeGmm25C+/bt8eabb+Ly5cvIycmxOS/8/vvvh4+PD6ZPn45jx47hq6++wjvvvGMz9Pyvf/0rNm7ciLfeegsnT57ECy+8gP3792POnDkArg2pmTt3Ll555RX897//xZEjR/DQQw+hbdu2mDBhgru7TeQ1qp+LTiQCZppEwjyTSJhnUhqvOoLeWMnJyUhLS0NaWhratWtn85z1vNjg4GBs3rwZs2fPRnx8PMLDw7Fo0SI8+uij8rLDhg3D2rVrsXDhQvz9739H165d8cMPP6BPnz7yMs888wxKS0vx6KOPoqioCDfeeCM2btzI4eqkaBxuRqJhpkkkzDOJhHkmpRHmPujezHof9CNHjiAkJARms9nmx3rhAIvFAovFAkmSIEmSzXTNx9Wngf/tmLDOr6n6cvZeV32+vedqrqfmdF1qLuPpuDmyF9bVe2wdfb88/V7VZL1KpfVKldaLX5hMJq9rK1FD1Go1/Pz8oNfr5SurVlRUoKKigpkmIvIS1tNUq1+Ii6glcuQ+6C3yCHpLVVRUZHN0nsgdXFFoVN9ZYTabkZ6ejo4dO8qFTWO2UXOHh7PtaulD3TxZ+DVl29Vf25jPoOa2HPn87a2/obY72j61Wi0vZy/T9R2tccVn6Og6nPn/4+07GZxpn/U1DX3GkiQ59F1R13pd/R7WlVNXbsdisSAjIwPt27d36vvSmf/f1nmN+Vzq2oYr34PG5qQ52+DMNhzJRF3LOpr9xmzLke3be776Mo35P2a9PZWvry8kSZK/nwGgvLxcvpq3I+9RfdtzNUe24ez/N1cs6+j6nP37y9HvV1d9NzZ2PY3Jb83lGvtdV11JSUm9r6mOBbobXb161dNNIAVqjpEAhYWF6NChQ5O20dILbWd5st9Kfc8bYi/TjtyvlMibmEwmXL16FXq93uYev0Qtkclkkr+ftVotAgICPN0kIqdUv596QzjE3Q2sQ9yTk5ORmJjo6eYQERERERGRm1jrwcYMcW+RV3FvqXiBCxKB2WzGyZMnmWcSBjNNImGeSSTMMykRC3Qiclh5ebmnm0DkUsw0iYR5JpEwz6Q0PDnJjXhOI4lAo9FgwIABnm4Gkcsw0yQS5plEwjyTEvEIuhtxeA6JwGw24+jRo8wzCYOZJpEwzyQS5pmUiAU6ERERERERkRfgEHc34hB3EoFGo0GfPn083Qwil2GmSSTMM4mEeSYlYoHuBtY72RkMBhgMBg+3hqhprMPN+vTpw51OJARmmkTCPJNImGcShbUGbMwdznkfdDc4d+4cOnfu7OlmEBERERERkYdkZmaiXbt29S7DI+huEBYWBgDIyMhAcHCwh1tD1DQGgwGxsbHIzMxEUFCQp5tD1GTMNImEeSaRMM8kCkmSUFJSgrZt2za4LAt0N1Crr12LLzg4mF8uJIygoCDmmYTCTJNImGcSCfNMImjsgVpexZ2IiIiIiIjIC7BAJyIiIiIiIvICLNDdQK/X4/nnn4der/d0U4iajHkm0TDTJBLmmUTCPJMS8SruRERERERERF6AR9CJiIiIiIiIvAALdCIiIiIiIiIvwAKdiIiIiIiIyAuwQCciIiIiIiLyAizQ3WDFihXo0KEDfH19MWTIEOzdu9fTTSJq0AsvvACVSmXz06NHD/n5iooKzJ49G61bt0ZAQAAmTZqE3NxcD7aY6H927tyJ22+/HW3btoVKpcIPP/xg87wkSVi0aBHatGkDPz8/JCYm4syZMzbLXLlyBQ888ACCgoIQEhKC6dOn4+rVq27sBdE1DeV56tSptb6vx44da7MM80zeYvHixRg0aBACAwMRGRmJCRMm4NSpUzbLNOZvjIyMDIwfPx6tWrVCZGQknn76aZhMJnd2hahZsEBvZl999RXmz5+P559/HgcOHED//v2RlJSEvLw8TzeNqEG9e/fGpUuX5J9ff/1Vfm7evHn46aef8M0332DHjh3Izs7GxIkTPdhaov8pLS1F//79sWLFCrvPv/7663j33Xfx4YcfYs+ePfD390dSUhIqKirkZR544AEcO3YMycnJ+Pnnn7Fz5048+uij7uoCkayhPAPA2LFjbb6vv/jiC5vnmWfyFjt27MDs2bPx+++/Izk5GUajEWPGjEFpaam8TEN/Y5jNZowfPx5VVVXYvXs31qxZg9WrV2PRokWe6BKRa0nUrAYPHizNnj1bfmw2m6W2bdtKixcv9mCriBr2/PPPS/3797f7XFFRkaTT6aRvvvlGnnfixAkJgJSSkuKmFhI1DgDp+++/lx9bLBYpOjpaeuONN+R5RUVFkl6vl7744gtJkiTp+PHjEgBp37598jIbNmyQVCqVlJWV5ba2E9VUM8+SJElTpkyR7rzzzjpfwzyTN8vLy5MASDt27JAkqXF/Y6xfv15Sq9VSTk6OvMwHH3wgBQUFSZWVle7tAJGL8Qh6M6qqqkJqaioSExPleWq1GomJiUhJSfFgy4ga58yZM2jbti06deqEBx54ABkZGQCA1NRUGI1Gm2z36NED7du3Z7bJ66WnpyMnJ8cmv8HBwRgyZIic35SUFISEhGDgwIHyMomJiVCr1dizZ4/b20zUkO3btyMyMhLdu3fHY489hoKCAvk55pm8WXFxMQAgLCwMQOP+xkhJSUHfvn0RFRUlL5OUlASDwYBjx465sfVErscCvRnl5+fDbDbbfHkAQFRUFHJycjzUKqLGGTJkCFavXo2NGzfigw8+QHp6OoYPH46SkhLk5OTAx8cHISEhNq9htqklsGa0vu/mnJwcREZG2jyv1WoRFhbGjJPXGTt2LP71r39hy5YtWLJkCXbs2IFx48bBbDYDYJ7Je1ksFsydOxc33HAD+vTpAwCN+hsjJyfH7ne49Tmilkzr6QYQkXcaN26cPN2vXz8MGTIEcXFx+Prrr+Hn5+fBlhERUXWTJ0+Wp/v27Yt+/fqhc+fO2L59O26++WYPtoyofrNnz8bRo0dtrnFDpHQ8gt6MwsPDodFoal11Mjc3F9HR0R5qFZFzQkJC0K1bN6SlpSE6OhpVVVUoKiqyWYbZppbAmtH6vpujo6NrXczTZDLhypUrzDh5vU6dOiE8PBxpaWkAmGfyTnPmzMHPP/+Mbdu2oV27dvL8xvyNER0dbfc73PocUUvGAr0Z+fj4ID4+Hlu2bJHnWSwWbNmyBQkJCR5sGZHjrl69irNnz6JNmzaIj4+HTqezyfapU6eQkZHBbJPX69ixI6Kjo23yazAYsGfPHjm/CQkJKCoqQmpqqrzM1q1bYbFYMGTIELe3mcgRFy9eREFBAdq0aQOAeSbvIkkS5syZg++//x5bt25Fx44dbZ5vzN8YCQkJOHLkiM2Op+TkZAQFBaFXr17u6QhRM+EQ92Y2f/58TJkyBQMHDsTgwYPx9ttvo7S0FNOmTfN004jq9dRTT+H2229HXFwcsrOz8fzzz0Oj0eC+++5DcHAwpk+fjvnz5yMsLAxBQUF4/PHHkZCQgKFDh3q66US4evWqfPQQuHZhuEOHDiEsLAzt27fH3Llz8corr6Br167o2LEj/vGPf6Bt27aYMGECAKBnz54YO3YsZsyYgQ8//BBGoxFz5szB5MmT0bZtWw/1ipSqvjyHhYXhxRdfxKRJkxAdHY2zZ8/imWeeQZcuXZCUlASAeSbvMnv2bKxduxY//vgjAgMD5XPGg4OD4efn16i/McaMGYNevXrhz3/+M15//XXk5ORg4cKFmD17NvR6vSe7R9R0nr6MvBK89957Uvv27SUfHx9p8ODB0u+//+7pJhE16N5775XatGkj+fj4SDExMdK9994rpaWlyc+Xl5dLf/nLX6TQ0FCpVatW0l133SVdunTJgy0m+p9t27ZJAGr9TJkyRZKka7da+8c//iFFRUVJer1euvnmm6VTp07ZrKOgoEC67777pICAACkoKEiaNm2aVFJS4oHekNLVl+eysjJpzJgxUkREhKTT6aS4uDhpxowZNrefkiTmmbyHvSwDkFatWiUv05i/Mc6fPy+NGzdO8vPzk8LDw6Unn3xSMhqNbu4NkeupJEmS3L9bgIiIiIiIiIiq4znoRERERERERF6ABToRERERERGRF2CBTkREREREROQFWKATEREREREReQEW6ERERERERERegAU6ERERERERkRdggU5ERERERETkBVigExEREREREXkBFuhEREREREREXoAFOhEREREREZEXYIFORERERERE5AVYoBMRERERERF5ARboRERERERERF6ABToRERERERGRF2CBTkREREREROQFWKATEREREREReQEW6ERERERERERegAU6ERERERERkRdggU5ERERERETkBVigExEREREREXkBFuhEREREREREXoAFOhEREREREZEXYIFORERERERE5AVYoBMREbnB6tWroVKpoFKp8Ouvv9Z6XpIkxMbGQqVS4bbbbvNAC523du1avP32255uRqOsX78eL7zwgqebQUREZBcLdCIiIjfy9fXF2rVra83fsWMHLl68CL1e74FWNU1LK9BffPFFTzeDiIjILhboREREbnTrrbfim2++gclkspm/du1axMfHIzo62kMtI2dJkoTy8nJPN4OIiATAAp2IiMiN7rvvPhQUFCA5OVmeV1VVhW+//Rb3339/reXffPNNDBs2DK1bt4afnx/i4+Px7bff1lquvLwcTzzxBMLDwxEYGIg77rgDWVlZUKlUNkO6X3jhBahUKqSlpWHq1KkICQlBcHAwpk2bhrKyslrr/c9//oP4+Hj4+fkhLCwMkydPRmZmpvz8TTfdhHXr1uHChQvyEP4OHTrIz+fl5WH69OmIioqCr68v+vfvjzVr1ths4/z581CpVHjzzTexYsUKdOrUCa1atcKYMWOQmZkJSZLw8ssvo127dvDz88Odd96JK1eu1Grrhg0bMHz4cPj7+yMwMBDjx4/HsWPH5OenTp2KFStWAIDcVpVKJT9vsVjw9ttvo3fv3vD19UVUVBRmzpyJwsJCm+106NABt912GzZt2oSBAwfCz88PH330EQAgOTkZN954I0JCQhAQEIDu3bvj73//e622EhER2aP1dAOIiIiUpEOHDkhISMAXX3yBcePGAbhWWBYXF2Py5Ml49913bZZ/5513cMcdd+CBBx5AVVUVvvzyS9x99934+eefMX78eHm5qVOn4uuvv8af//xnDB06FDt27LB5vqZ77rkHHTt2xOLFi3HgwAF8+umniIyMxJIlS+RlXn31VfzjH//APffcg0ceeQSXL1/Ge++9hxEjRuDgwYMICQnBc889h+LiYly8eBHLli0DAAQEBAC4ttPgpptuQlpaGubMmYOOHTvim2++wdSpU1FUVIS//vWvNm36/PPPUVVVhccffxxXrlzB66+/jnvuuQejR4/G9u3b8be//Q1paWl477338NRTT2HlypXya//9739jypQpSEpKwpIlS1BWVoYPPvgAN954Iw4ePIgOHTpg5syZyM7ORnJyMv7973/Xek9mzpyJ1atXY9q0aXjiiSeQnp6O5cuX4+DBg/jtt9+g0+nkZU+dOoX77rsPM2fOxIwZM9C9e3ccO3YMt912G/r164eXXnoJer0eaWlp+O233xrMBREREQBAIiIioma3atUqCYC0b98+afny5VJgYKBUVlYmSZIk3X333dKoUaMkSZKkuLg4afz48fLrrMtYVVVVSX369JFGjx4tz0tNTZUASHPnzrVZdurUqRIA6fnnn5fnPf/88xIA6eGHH7ZZ9q677pJat24tPz5//ryk0WikV1991Wa5I0eOSFqt1mb++PHjpbi4uFp9fvvttyUA0n/+8x+b9ickJEgBAQGSwWCQJEmS0tPTJQBSRESEVFRUJC/77LPPSgCk/v37S0ajUZ5/3333ST4+PlJFRYUkSZJUUlIihYSESDNmzLDZfk5OjhQcHGwzf/bs2ZK9P3927dolAZA+//xzm/kbN26sNT8uLk4CIG3cuNFm2WXLlkkApMuXL9daPxERUWNwiDsREZGb3XPPPSgvL8fPP/+MkpIS/Pzzz3aHtwOAn5+fPF1YWIji4mIMHz4cBw4ckOdv3LgRAPCXv/zF5rWPP/54nW2YNWuWzePhw4ejoKAABoMBAPDdd9/BYrHgnnvuQX5+vvwTHR2Nrl27Ytu2bQ32c/369YiOjsZ9990nz9PpdHjiiSdw9epV7Nixw2b5u+++G8HBwfLjIUOGAAAefPBBaLVam/lVVVXIysoCcG1YeVFREe677z6btmo0GgwZMqRRbf3mm28QHByMW265xWYd8fHxCAgIqLWOjh07IikpyWZeSEgIAODHH3+ExWJpcJtEREQ1cYg7ERGRm0VERCAxMRFr165FWVkZzGYz/vSnP9ld9ueff8Yrr7yCQ4cOobKyUp5f/dzpCxcuQK1Wo2PHjjav7dKlS51taN++vc3j0NBQANd2AgQFBeHMmTOQJAldu3a1+/rqw73rcuHCBXTt2hVqte3xgJ49e8rP19cma7EeGxtrd7713PAzZ84AAEaPHm23HUFBQQ229cyZMyguLkZkZKTd5/Py8mwe13yvAeDee+/Fp59+ikceeQQLFizAzTffjIkTJ+JPf/pTrfeAiIjIHhboREREHnD//fdjxowZyMnJwbhx4+Sjr9Xt2rULd9xxB0aMGIH3338fbdq0gU6nw6pVq+zeqs0RGo3G7nxJkgBcu2CaSqXChg0b7C5rPc/clepqU2PaClw7D93eVfCrH32vi8ViQWRkJD7//HO7z0dERNg8rj6yofq8nTt3Ytu2bVi3bh02btyIr776CqNHj8bmzZvr7AcREZEVC3QiIiIPuOuuuzBz5kz8/vvv+Oqrr+wu83//93/w9fXFpk2bbO6PvmrVKpvl4uLiYLFYkJ6ebnPEOy0tzen2de7cGZIkoWPHjujWrVu9y1Y/ml+zXYcPH4bFYrE5gnzy5En5eVfo3LkzACAyMhKJiYlOtbVz58745ZdfcMMNN9gtvhtLrVbj5ptvxs0334ylS5fin//8J5577jls27atwbYRERFxvBUREZEHBAQE4IMPPsALL7yA22+/3e4yGo0GKpUKZrNZnnf+/Hn88MMPNstZz4V+//33bea/9957Trdv4sSJ0Gg0ePHFF+Uj1VaSJKGgoEB+7O/vj+Li4lrruPXWW5GTk2OzA8JkMuG9995DQEAARo4c6XT7qktKSkJQUBD++c9/wmg01nr+8uXLNm0FgKKiIptl7rnnHpjNZrz88su1Xm8ymWotb4+9W79dd911AGBzegIREVFdeASdiIjIQ6ZMmVLv8+PHj8fSpUsxduxY3H///cjLy8OKFSvQpUsXHD58WF4uPj4ekyZNwttvv42CggL5NmunT58GUPdR4/p07twZr7zyCp599lmcP38eEyZMQGBgINLT0/H999/j0UcfxVNPPSVv/6uvvsL8+fMxaNAgBAQE4Pbbb8ejjz6Kjz76CFOnTkVqaio6dOiAb7/9Fr/99hvefvttBAYGOtwue4KCgvDBBx/gz3/+M66//npMnjwZERERyMjIwLp163DDDTdg+fLlclsB4IknnkBSUhI0Gg0mT56MkSNHYubMmVi8eDEOHTqEMWPGQKfT4cyZM/jmm2/wzjvv1HmdAKuXXnoJO3fuxPjx4xEXF4e8vDy8//77aNeuHW688UaX9JWIiMTGAp2IiMhLjR49Gp999hlee+01zJ07Fx07dsSSJUtw/vx5mwIdAP71r38hOjoaX3zxBb7//nskJibiq6++Qvfu3eHr6+vU9hcsWIBu3bph2bJlePHFFwFcu2DbmDFjcMcdd8jL/eUvf8GhQ4ewatUqLFu2DHFxcbj99tvh5+eH7du3Y8GCBVizZg0MBgO6d++OVatWYerUqU6/L/bcf//9aNu2LV577TW88cYbqKysRExMDIYPH45p06bJy02cOBGPP/44vvzyS/znP/+BJEmYPHkyAODDDz9EfHw8PvroI/z973+HVqtFhw4d8OCDD+KGG25osA133HEHzp8/j5UrVyI/Px/h4eEYOXIkXnzxRZur0xMREdVFJdUct0ZERERCOHToEAYMGID//Oc/eOCBBzzdHCIiImoAz0EnIiISQHl5ea15b7/9NtRqNUaMGOGBFhEREZGjOMSdiIhIAK+//jpSU1MxatQoaLVabNiwARs2bMCjjz5a6z7iRERE5J04xJ2IiEgAycnJePHFF3H8+HFcvXoV7du3x5///Gc899xzjboPOBEREXkeC3QiIiIiIiIiL8Bz0ImIiIiIiIi8AMe8uYHFYkF2djYCAwOduhctERERERERtUySJKGkpARt27aFWl3/MXIW6G6QnZ3NC/QQEREREREpWGZmJtq1a1fvMizQ3SAwMBDAtQ8kKCjIw60hIiIiIiIidzEYDIiNjZXrwvqwQHcD67D206dPY/To0R5uDVHTmM1mnDhxAj179oRGo/F0c4iajJkmkTDPJBLmmUTTmNOdeZE4NzIajZ5uAhEREREREXkpHkF3I+75IxFoNBr06dPH080gchlmmkTCPJNImGdSIh5BdyOz2ezpJhA1mdlsxsGDB5lnEgYzTSJhnkkkzDMpEQt0InKYn5+fp5tA5FLMNImEeSaRMM+kNBzi7kYc4k4i0Gg06NGjh6ebQeQyzDSJhHkmkTDPpEQ8gu5GJpPJ000gajKTyYR9+/YxzyQMZppEwjyTSJhnUiIW6G7UmMvqE3k7lUqF0NBQ5pmEwUyTSJhnEgnzTErEIe5upNFoUFVVBR8fH083hchpGo0GXbp08XQziFyGmSaRMM8kEuaZlIhH0N3IZDKhsLDQ080gahKTyYTdu3dzuBkJg5kmkTDPJBLmmZSIBbobderUCQUFBZ5uBlGTqNVqxMTEQK3m1weJgZkmkTDPJBLmmZSIaXej6OhoHkGnFk+tViMuLo6/LEkYzDSJhHkmkTDPpERMuxtVVFSguLjY080gahKTyYSdO3dyuBkJg5kmkTDPJBLmmZSIBbobSZKEsrIyGI1GTzeFyGlqtRqdO3fm3mwSBjNNImGeSSTMMykR0+5GpaWlAACDweDhlhA5j+eDkWiYaRIJ80wiYZ5JiZh2Nzp06BAAcJg7tWgmkwlbt27lcDMSBjNNImGeSSTMMykRC3Q3kiQJAAt0atnUajX69OnDvdkkDGaaRMI8k0iYZ1Iipr2a1157DSqVCnPnzpXnVVRUYPbs2WjdujUCAgIwadIk5ObmOrV+i8UCgAU6tWxqtRqRkZH8ZUnCYKZJJMwziYR5JiVi2v+/ffv24aOPPkK/fv1s5s+bNw8//fQTvvnmG+zYsQPZ2dmYOHGiU9uwDs/hOejUkhmNRmzatIkXOyRhMNMkEuaZRMI8kxKxQAdw9epVPPDAA/jkk08QGhoqzy8uLsZnn32GpUuXYvTo0YiPj8eqVauwe/du/P777w5vx3oEvaqqCuXl5S5rP5E7aTQaDBo0CBqNxtNNIXIJZppEwjyTSJhnUiIW6ABmz56N8ePHIzEx0WZ+amoqjEajzfwePXqgffv2SElJqXN9lZWVMBgMNj8AbC5wYR3mbjabYTab5eerT1sL+rqmjUajzbT1HHfrtCRJtaYB2ExbLBabaWsb65o2m80209b21jXNPonXJ7VajcDAQFiJ0CcRPyf2qfF9slgsCAsLk7clQp9E/JzYp8b1SZIkhIWFydkWoU8ifk7sU+P6pFKpEBoaKq9bhD6J+DmxT43vU2MovkD/8ssvceDAASxevLjWczk5OfDx8UFISIjN/KioKOTk5NS5zsWLFyM4OFj+iY2NBQBcvnwZwLXzac6ePQsAOHz4MM6cOQMAOHjwINLT0wEAe/fuRWZmJgBg9+7duHTpEgBg586dyM/PBwBs3boVRUVFAIDNmzejpKQEALB+/XpUVFTAZDJh/fr1MJlMqKiowPr16wEAJSUl2Lx5MwCgqKgIW7duBQDk5+dj586dAIBLly5h9+7dAIDMzEzs3bsXAJCeno6DBw8CAM6cOYPDhw8DAE6cOIETJ06wTwrok9FoxPr16+X+idAnET8n9qnxfdqxYwfWrVuHixcvCtMnET8n9qlxfUpLS8O6deuwZ88eYfok4ufEPjWuT+Xl5Vi3bp1QfRLxc2KfGu7TH3/8gcZSSdbdBgqUmZmJgQMHIjk5WT73/KabbsJ1112Ht99+G2vXrsW0adNQWVlp87rBgwdj1KhRWLJkid31VlZW2rzGYDAgNjYWH3/8sTyEvnv37ujbt6+8x0ej0cBkMkGlUsnTarUaarW6zmmj0QiNRiNPa7VaqFQqeRq4tseo+rROp4MkSfK0xWKB2WyWpy0WC7RabZ3TZrMZkiTJ09a21zXNPonXJ5VKhcLCQgQHB0Oj0QjRJxE/J/ap8X0ym80oLy+Hv7+/3PaW3icRPyf2qXF9AoCysjL4+fnJ7W3pfRLxc2KfGtcnjUaDkpIS+Pn5wcfHR4g+ifg5sU8N96m4uBitW7dGcXExgoKCUB9FF+g//PAD7rrrLpvzWsxmM1QqFdRqNTZt2oTExEQUFhbaHEWPi4vD3LlzMW/evEZtx2AwIDg42KZAj4uLw6BBg1zaHyIiIiIiIvIu1nqwMQW6ooe433zzzThy5AgOHTok/wwcOBAPPPCAPK3T6bBlyxb5NadOnUJGRgYSEhIc3p51zzZwbe82UUtkNBrx448/yufeELV0zDSJhHkmkTDPpERaTzfAkwIDA9GnTx+bef7+/mjdurU8f/r06Zg/fz7CwsIQFBSExx9/HAkJCRg6dKjD29Pr9di0aROSkpJYoFOLpdVqMWbMGHnoD1FLx0yTSJhnEgnzTEqk6CPojbFs2TLcdtttmDRpEkaMGIHo6Gh89913Tq2rsLAQR44cAQCUl5dDwWcXUAvHX5QkGmaaRMI8k0iYZ1IaFug1bN++HW+//bb82NfXFytWrMCVK1dQWlqK7777DtHR0U6t++rVq/KVBS0WCyoqKlzRZCK3qn51SyIRMNMkEuaZRMI8kxKxQHejiooK5ObmoqqqCgDPQ6eWSavV4tZbb+UebRIGM00iYZ5JJMwzKRELdDfKy8tDVFQUsrOzAbBAp5aLe7JJNMw0iYR5JpEwz6Q0LNDdKD8/H126dJGHuZeWlnq4RUSOM5lM2Lx5M39hkjCYaRIJ80wiYZ5JiRR9H3R3sd73LikpCTExMSgsLMT999+Pzp07Y8CAAZ5uHhERERERETUT3gfdS1VWVqJTp07IysoCwCPo1DJJkgSDwcC7EJAwmGkSCfNMImGeSYlYoLtRZWUlAgICYDQaAfAcdGqZTCYTdu3axeFmJAxmmkTCPJNImGdSIl4S0Y2qqqqg1+uh1+tRUVHBK1JSi6TT6TB+/HhPN4PIZZhpEgnzTCJhnkmJeATdjYxGI/R6Pdq1a4esrCyYTCb5lmtELYXFYsGVK1dgsVg83RQil2CmSSTMM4mEeSYlYoHuRtYCPTY2Vr6SO4e5U0tjNpuxb98+mM1mTzeFyCWYaRIJ80wiYZ5JiVigu5HJZIJOp0NsbCwyMjIAsECnlken0yEpKQk6nc7TTSFyCWaaRMI8k0iYZ1IiFuhuplKpEB0djby8PABAdna2h1tE5BiLxYK8vDwONyNhMNMkEuaZRMI8kxKxQHcjlUoF4NreQOvVKDMyMlBeXu7JZhE5xGKx4OjRo/xlScJgpkkkzDOJhHkmJWKB7katWrWqNc9iseDMmTMeaA2Rc7RaLUaPHs27EJAwmGkSCfNMImGeSYlYoHuIr68vSktLAQDnzp2T741O5O0sFguysrK4N5uEwUyTSJhnEgnzTErEAt3NrMPcIyMjkZ+fD+DaxePS09M92SyiRrNYLDh79ix/WZIwmGkSCfNMImGeSYlYoLtZYGAgACAiIkK+UBwAFBQUeKpJRA7RarUYMWIEh5uRMJhpEgnzTCJhnkmJWKC7UUVFBcLCwgBcO4J++fJl+bkrV654qllEDrFYLLhw4QL3ZpMwmGkSCfNMImGeSYlYoLuRSqVCaGgogNpH0MvLy1FRUeGpphE1Gs8HI9Ew0yQS5plEwjyTErFAdyMfHx+EhIQAAMLDw+Vz0K0KCws90Coix2i1WgwbNozDzUgYzDSJhHkmkTDPpEQs0N1Ip9MhKCgIwLVi3XovdCsW6NQSmM1mpKWlwWw2e7opRC7BTJNImGcSCfNMSsQC3Y30ej10Oh38/PwAAJIk2TzP89CpJZAkCYWFhbXyS9RSMdMkEuaZRMI8kxKxQHcjvV4PAPJRdD8/P5SVlcnPFxUVeaJZRA7RarUYNGgQh5uRMJhpEgnzTCJhnkmJWKC7kU6nA/C/Aj0iIsLmSu4VFRU2BTuRNzKbzTh58iSHm5EwmGkSCfNMImGeSYlYoLuRr68vgP8V6DVvtQbwPHRqGcrLyz3dBCKXYqZJJMwziYR5JqVhge5GNQv0mkfQAaCgoMDt7SJyhEajwYABA6DRaDzdFCKXYKZJJMwziYR5JiVige5GNc9Br3kvdAA4c+YMTp8+7fa2ETWW2WzG0aNHOdyMhMFMk0iYZxIJ80xKxALdjSIiIgBAvpJ7eHh4rQJdkiQcPnwYhw8f9kQTiYiIiIiIyENYoLtRTEyMPB0YGAi9Xg+j0YjKyspay549e7bWfdKb6tChQygpKXHpOkl5NBoN+vTpw+FmJAxmmkTCPJNImGdSIhbobmS9/zkA+Pv7AwCGDBmCvXv31lrWbDYjJyfHZds+ceIE0tLScPDgQZetk5TJbDbj4MGDHG5GwmCmSSTMM4mEeSYlYoHuRtaivPr00KFDkZKSYnf5ixcvumS7ly5dwrFjxwAAeXl5yMzMdMl6Sbmq72wiEgEzTSJhnkkkzDMpDQt0NwoICJCnrQW6v78/9Ho9rly5Umv5nJwcl+wxtBbnVocPH4YkSU1eLymTRqNBjx49ONyMhMFMk0iYZxIJ80xKxALdjdLT0+Xp6kfThw8fjl27dtVa3mQyITc3t0nbvHTpEoqKimzmlZeXo7i4uEnrJeUymUzYt2+fy6+RQOQpzDSJhHkmkTDPpEQs0N3I3jnoANC/f38cOXLE7muysrKatM0TJ07YnV/z/utEjaVSqRAaGgqVSuXpphC5BDNNImGeSSTMMykRC3Q3atWqlTyt1+uh1WoBXBu+ExgYCIPBUOs1mZmZyM/Pd2p7ubm5dofOAyzQyXkajQZdunThcDMSBjNNImGeSSTMMykRC3Q3Uqtt3+7qBXuvXr3sHu22WCzYvXs3rl696vD20tLS6nzO2aKfyGQyYffu3RxuRsJgpkkkzDOJhHkmJWKB7kY19/5VH+beq1evWhdzs6qqqsKvv/7q0JdTaWlpvbdpq6qq4nno5BS1Wo2YmJhaO5yIWipmmkTCPJNImGdSIqbdjXQ6nc3j6gV627ZtkZ2dXedrr169WmcBb096enqDV2rnMHdyhlqtRlxcHH9ZkjCYaRIJ80wiYZ5JiZh2D6peoKtUKgQEBKCkpKTO5dPS0lBYWNjgei0Wi80V4+vCYe7kDJPJhJ07d3K4GQmDmSaRMM8kEuaZlIgFuhvV3PtXvUAHgJ49e+LkyZN1vl6SJOzfvx8Wi8Xu84WFhSgqKsL58+dRWVnZYHtYoJMz1Go1OnfuzL3ZJAxmmkTCPJNImGdSIqbdjaxXbbeqWaD37t27wWHsxcXF2Lp1a60j7WlpadiyZQt++eUXHDhwoFHtqaiosHvleKL68HwwEg0zTSJhnkkkzDMpEdPuQTUL9JiYGGRkZMBsNtf7uqKiImzZsgV//PEHMjIycPLkSRw6dMipNvA8dHKUyWTC1q1bOdyMhMFMk0iYZxIJ80xKxALdjXr27GnzWKvVQq/Xy49VKhVGjx6NV155BTt37qz3Im8mkwlnzpzB3r17cfToUafbxGHu5Ci1Wo0+ffpwbzYJg5kmkTDPJBLmmZSIaXejiIiIWvOq3wsdAG688Ub8/e9/x+HDh3Hu3LlmbxOPoJOj1Go1IiMj+cuShMFMk0iYZxIJ80xK5JK0G41GZGZm4tSpU7hy5YorVikkexd3CwgIqDVPp9Phtttuw65du5q9TRUVFfVeOZ6oJqPRiE2bNsFoNHq6KUQuwUyTSJhnEgnzTErkdIFeUlKCDz74ACNHjkRQUBA6dOiAnj17IiIiAnFxcZgxYwb27dvnyra2eBqNpta8yMhIu8vGxcU16nx0V+BRdHKERqPBoEGD7OaZqCVipkkkzDOJhHkmJXKqQF+6dCk6dOiAVatWITExET/88AMOHTqE06dPIyUlBc8//zxMJhPGjBmDsWPH4syZM65ud4tk74rpbdq0sbusSqVC7969cfz48eZuFgt0coharUZYWBiHm5EwmGkSCfNMImGeSYmcSvu+ffuwc+dO7N27F//4xz+QlJSEvn37okuXLhg8eDAefvhhrFq1Cjk5OZgwYYJbhmq3BPaKbV9fX4SFhdld/sYbb8Svv/7a3M1igU4OMRqNWLduHYebkTCYaRIJ80wiYZ5JibQNL1LbF1980ajl9Ho9Zs2a5cwmhFTX8Jw2bdrYPXc/KioKhYWFqKqqgo+PT7O1y3o/9KCgoGbbBolDq9Vi+PDh0Gqd+vog8jrMNImEeSaRMM+kRBwv4kYqlcru/LZt29b5mnHjxuGdd95BeXm509utqKjAtm3b8Morr9R5usGpU6ecXj8pi0qlQlBQUJ15JmppmGkSCfNMImGeSYmaXKAXFBTI05mZmVi0aBGefvppDmu3w2Qy2Z0fHBwMf39/u88NGDAAt99+O958800UFxc7vM2CggK89tprUKvVmDFjBr7//nu7y2VkZODq1asOr5+Ux2g04scff+RwMxIGM00iYZ5JJMwzKZHTBfqRI0fQoUMHREZGokePHjh06BAGDRqEZcuW4eOPP8aoUaPwww8/uLCpLV99V6Cs7yh6jx498OCDD2LVqlUOba+oqAjvvfceZs6ciZEjRyIqKgrR0dE4ceJErWUlSbI7n6gmrVaLMWPGcLgZCYOZJpEwzyQS5pmUyOkC/ZlnnkHfvn2xc+dO3HTTTbjtttswfvx4FBcXo7CwEDNnzsRrr73myrY2iw8++AD9+vVDUFAQgoKCkJCQgA0bNsjPV1RUYPbs2WjdujUCAgIwadIk5Obmurwd9RXoANCxY0dERUVh7969jVqf0WjEu+++i0ceecTmSvF33nknfvzxR7uvycjIsHuleaKa+IuSRMNMk0iYZxIJ80xK43SBvm/fPrz66qu44YYb8OabbyI7Oxt/+ctfoFaroVar8fjjj+PkyZOubGuzaNeuHV577TWkpqZi//79GD16NO68804cO3YMADBv3jz89NNP+Oabb7Bjxw5kZ2dj4sSJTm2rvnuah4eHN3ghuEmTJmH9+vUoLS2t9ZzJZMLp06flx2vXrsXYsWPRrl07m+WCg4PRtm1bm2WtJEnCzp07bU5bIKrJZDJh/fr1dZ6yQdTSMNMkEuaZRMI8kxKpJEmSnHmhWq1GTk4OIiMjAQCBgYH4448/0KlTJwBAbm4u2rZtW29R6q3CwsLwxhtv4E9/+hMiIiKwdu1a/OlPfwIAnDx5Ej179kRKSgqGDh3aqPUZDAYEBwdj8+bNuOWWW+pcbv/+/Th//ny96zp9+jS++OIL3Hbbbbj++uuhUqmQk5ODTz/9FOHh4aiqqsKgQYNw5MgRPProo3bXkZGRga1bt2Lq1Kl2n1er1bj++uvRoUOHRvWPlEWSJJhMJmi1Wl60hYTATJNImGcSCfNMorDWg8XFxQ3eOatJF4mr+R+lpf/HMZvN+PLLL1FaWoqEhASkpqbCaDQiMTFRXqZHjx5o3749UlJS6lxPZWUlDAaDzY91/dZ/7U1HRUU12MZu3brhmWeewZkzZ7B48WK89tpr+Pe//42ZM2di1qxZGDduHHbv3o2HHnqoznXExsYiMzMTde2bsVgs2L9/P/744w/5sXXPpdlstpluqE8mk8lm2mKx1DttNBptpq1ttE5LklRrGoDNtMVisZm2treuafbJ8T5VVFQI1ycRPyf2qfF9sm5DpD6J+DmxT43rU/VMi9InET8n9qlxfTIajcL1ScTPiX1qXJ8ao0kF+tSpUzFx4kRMnDgRFRUVmDVrlvz44Ycfbsqq3erIkSMICAiQ79v+/fffo1evXsjJyYGPjw9CQkJslo+KikJOTk6d61u8eDGCg4Pln9jYWADAuXPnAAAnTpyQL8h2+PBh+dZnly5dks+z0Wg08g6P6tNarRatWrXC5MmTsWjRIjz77LN4+umn5fPMu3btigULFsDX1xcAoNPp5HZZp1UqFeLi4pCRkQGVSiVvs+b0uXPnsHfvXmRmZsrnvqenp+PgwYMAgDNnzuDw4cP19ungwYNIT08HAHldALB7925cunQJALBz507k5+cDALZu3YqioiIAwObNm1FSUgIAWL9+PSoqKmAy/W+oU0VFBdavXw8AKCkpwebNmwFcuzje1q1bAQD5+fnYuXOn/P7u3r0bANinJvTJZDJh69at8qkQIvRJxM+JfXKsT5s3b0ZWVpZQfRLxc2KfGu7T2bNnsXnzZqH6JOLnxD41rk8VFRVITk6Wrw8lQp9E/JzYp4b7ZD3w2RhOD3GfNm1ao5Zz9MrjnlBVVYWMjAwUFxfj22+/xaeffoodO3bg0KFDmDZtGiorK22WHzx4MEaNGoUlS5bYXV9lZaXNawwGA2JjY3HlyhWEhobKe3k0Go3NtMlkwt69e5Gdnd1MPf2fY8eO4eTJk5g0aVKDy/bo0QM9evSAVquF2WyGJEnyNFC7HzX7pFKp5GnrNQrqmjYajdBoNPK0dUiTdRq4thes+rROp5OHQOl0OlgsFpjNZnnaYrFAq9XWOc0+sU/sE/vEPrFP7BP7xD6xT+wT+9RcfSouLkbr1q0bNcTd6QJdZImJiejcuTPuvfde3HzzzSgsLLQ5ih4XF4e5c+di3rx5jVqf9ZyDoqIiBAcHN7jsxYsXkZ+fj7y8vKZ0o15msxmvvfYannvuuUYtP3DgQJ6TTgCuDfEpKSlBYGBgiz+thQhgpkkszDOJhHkmUbjtHHRRWSwWVFZWIj4+HjqdDlu2bJGfO3XqFDIyMpCQkODwek2mhs89CAoKQq9evTBs2LBmva2ERqNBcHBwo6/Yvn//fuzfv18+34KUy2QyYdeuXY3KM1FLwEyTSJhnEgnzTErk1BH0+fPnN3rZpUuXOrp6t3r22Wcxbtw4tG/fHiUlJVi7di2WLFmCTZs24ZZbbsFjjz2G9evXY/Xq1QgKCsLjjz8OAPL5BY3hyB6T6lJTU+VzKprDnj17UFxcjDFjxjT6NX5+fujduzfi4uK4J5OIiIiIiKgBjtSDTh2itZ64b3XgwAGYTCZ0794dwLVbgWk0GsTHxzuzerfKy8vDQw89hEuXLiE4OBj9+vWTi3MAWLZsGdRqNSZNmoTKykokJSXh/fffd2pb6enp6N+/f6OX79ChQ7MW6P369cOKFSscKtDLy8uxf/9+nD59Gtdffz3Cw8ObrX3knSwWC4qKihASEgK1moNwqOVjpkkkzDOJhHkmJXKqQN+2bZs8vXTpUgQGBmLNmjUIDQ0FABQWFmLatGkYPny4a1rZjD777LN6n/f19cWKFSuwYsWKJm/r0qVLDhXorVu3RlBQkHybNlfz8/ODyWRCVVUVfHx8HHqtwWDA9u3b0alTJ/Tp08fh11PLZTabsW/fPowePZq/LEkIzDSJhHkmkTDPpERNvkhcTEwMNm/ejN69e9vMP3r0KMaMGeOWK5J7O+uQhuTkZJt7qjfGqVOncOTIkWZqGfDTTz+hXbt2GDBggNPr0Ol06N69O7p27QqNRuPC1hEREREREbVsbr1InMFgwOXLl2vNv3z5snxfObrGYrE4/JpOnTo169XTr7/++lqnLDjKaDTi6NGj2LBhA9LS0lBWVobCwkIUFhaCNwkQj8ViQV5enlN5JvJGzDSJhHkmkTDPpERNLtDvuusuTJs2Dd999x0uXryIixcv4v/+7/8wffp0TJw40RVtFIYzXy46nQ4DBw7EqFGjoNPpXN6mtm3bIjs72yWFdEVFBQ4dOoT169djy5Yt2LJlC3766SekpKTg2LFjzXrbOHIfi8WCo0eP8pclCYOZJpEwzyQS5pmUqMlD3MvKyvDUU09h5cqV8i24tFotpk+fjjfeeAP+/v4uaWhL1pQh7tWdPXu2yUe77Vm5ciWSkpIQExPj8nVXp1KpMHDgQMTFxTXrdoiIiIiIiLyFW4e4t2rVCu+//z4KCgpw8OBBHDx4EFeuXMH777/P4ryGpu7969y5c7NcNX3AgAHYt2+fy9dbkyRJ2L9/Py5cuNDs26LmY7FYkJWVxb3ZJAxmmkTCPJNImGdSIqcK9IyMjFrz/P390a9fP/Tr169WYZ6VleVc6wTjii+XgQMHwtfX12aeSqVCTEwMunbt6tQ6+/Xrh8OHD6O0tLTJ7WuIJEnYt28ffv3112a7Oj01L4vFgrNnz/KXJQmDmSaRMM8kEuaZlMipIe5RUVGYMGECHnnkEQwaNMjuMsXFxfj666/xzjvv4NFHH8UTTzzR5Ma2VK4a4m5lsVhw6dIlFBYWIjAwEOHh4fJOkZSUFKd2iBw+fBiHDx/Ggw8+2OT2NZZGo8FNN90k356PiIiIiIhINI4McXfqPujHjx/Hq6++iltuuQW+vr6Ij49H27Zt4evri8LCQhw/fhzHjh3D9ddfj9dffx233nqrUx0Rjav2/qnVasTExNg9Z3zgwIG4evUqQkJC0L59e+j1ekiShLy8PFy4cKHOo9b9+vVDcnIycnNzERUV5ZJ2NsRsNmP37t0YPXo0/Pz83LJNajqLxYLMzEzExsbynqQkBGaaRMI8k0iYZ1Iip5LeunVrLF26FJcuXcLy5cvRtWtX5Ofn48yZMwCABx54AKmpqUhJSWFxXk1gYGCzb0On0+GWW27BoEGDEBUVhZCQEISGhqJ79+5ITEysNTy+usmTJ+Ojjz5Cfn5+s7fTqry8HLt37+bQpRaE54ORaJhpEgnzTCJhnkmJmnwVd2qYI0MamtuxY8dw4sSJOp/Pzs7GypUrkZiYiKFDh7qtXb169UKvXr3ctj0iIiIiIiJ3cOtV3KnxzGazp5uATp061TtEqG3btliwYAGOHDmCdevWua1dJ0+e5EXjWgiz2Yy0tDSvyDORKzDTJBLmmUTCPJMSsUB3I28YrODn59fg/c61Wi0eeeQRGAwGfPXVV25pt8Viwb59+ziEqQWQJAmFhYVekWciV2CmSSTMM4mEefZe58+fd8sdoJSIQ9zdwJuGuANAQUEBtm3b1qhlf/rpJ1y+fBlTp051y8U5IiIiMGzYMOh0umbfFhEREREROaaqqgqbNm1Cnz590LFjR083p0XgEHcvdfDgQU83AcC1i/yFhIQ0atnbb78dHTt2xPLly3Hs2LFm31N2+fJlbN++HRUVFc26HXKe2WzGyZMnOdyMhMFMk0iYZxIJ8+ydjh49isrKSuTl5Xm6KUJy6jZr5BxvKjo7d+6M1NTURi07atQoxMbG4tixY0hOTsbVq1fRuXNndO/eHXFxcQgLC4NKpXJZ24qLi7Fz506MGDGi3qvOk+eUl5d7uglELsVMk0iYZxIJ8+xdSktLkZ6eDgAs0JtJk4e4jx49GiNHjsTzzz9vM7+wsBCTJk3C1q1bm9RAEViHNCQnJyMxMdHTzQFwbY/kzz//DKPR6NRr09PTkZaWhvPnzyMvLw/9+/fH6NGjXXoruaCgIIwcORJ6vd5l6yQiIiIiIudkZmZiz5498uNbbrkFwcHBHmxRy+DWIe7bt2/H8uXLMWHCBJvhz1VVVdixY0dTVy8Ubxqeo9Fo0KFDB6df26VLF4wdOxazZs3Cc889h3bt2uGtt97CyZMnXdZGg8GAffv2uWx95BpmsxlHjx71qjwTNYXZbMahQ4eYaRICv6NJJMyz9ykqKrJ5nJub65mGCMwl56D/8ssvyMnJwdChQ3H+/HlXrJLcoFOnTi5Zj0ajQXx8PJ555hls2rQJy5cvx8qVK/H9998jMzOzSevOyclBWlqaS9pJRFSXyspKTzeBiIjI6xUXF9s85jB313PJOeht2rTBjh07MG3aNAwaNAjffPMNevbs6YpVC0Wj0Xi6CTYCAwPRunVrFBQUuGR9rVq1whNPPIHCwkIYjUbk5+fjl19+wcWLFzF27FgMHDjQqXPVjxw5gtatWyM0NNQl7aSm0Wg06NOnj6ebQeRSERERXvcdTeQMfkeTSJhn71PzCHp+fj4sFotb7vakFE1+J60Fl16vx9q1a/HXv/4VY8eOxfvvv9/kxonGG4fntG/f3qXrU6lUCAsLQ1RUFHr37o1p06bh6aefRkZGBt544w2njlKZzWZs27YNx48f533SvYDZbMbBgwe9Ms9EzjAYDMjIyGCmSQj8jiaRMM/epbKystZFr00mE65cueKhFompyQV6zWvMLVy4EJ9//jneeuutpq6a3KBdu3YuvQK7Pb6+vpg0aRLGjh2LTz75pFZmGsNiseD48ePYtm0bysrKmqGV5Ag/Pz9PN4HIZcrKynj0nITC72gSCfPsPWoePbfiMHfXanKBnp6ejvDwcJt5kyZNwu+//46VK1c2dfVC8cY/APV6PaKiotyyrX79+iE2Nhbr1693eh2FhYXYunUrsrKycOHCBZw8edKpgp+cp9Fo0KNHD6/MM5EzysrKEBwczEyTEPgdTSJhnr1LXQX65cuX3dsQwTldoBsMBhgMBoSGhuLq1avyY+tP+/btcdddd7myrS2eyWTydBPsio2Nddu27rjjDmRkZCA5OdnpdVRUVCAlJQX79u3D0aNHeaV3NzOZTNi3b5/X5pnIUSUlJcjJyWGmSQj8jiaRMM/epeYF4qwKCgp4GoILOV2gh4SEIDQ0tM4f6/P0P64+39tVYmJi3LZnUqVSYebMmcjPz8e//vUvl5xTnpGRwfOT3EilUiE0NLTZT40gcpeysjJotVpmmoTA72gSCfPsXeo6gm6xWFx20WlqwlXct23bJk9LkoRbb70Vn376KWJiYlzSMBG1a9fO002wS6vVomvXri69h3l91Go17rvvPqxbtw4//fQT7rzzziav8+zZs8jMzESHDh0QFhYGvV6P8PBwfqE3A41Ggy5duni6GUQuU1ZWhoCAAA6hJCHwO5pEwjx7D7PZjJKSkjqfz8vLQ2RkpBtbJC6nC/SRI0faPNZoNBg6dKjL7q0tIm8entOrVy9kZ2fDYDC4bZu33nor3n33XZw8eRI9evRo8vqqqqpw+vRp+XFMTAyGDBnC2z64mMlkwt69ezF48GBotS65UyORR5WWlsJoNMJkMjHT1OLxO5pEwjx7j5KSknqv+8QLxbkOKxc38uZCUa1WO32fcmepVCrMmDEDX375ZZ3ntDRFVlYWfv/9dw59dzG1Wo2YmBivzjNRY1VUVMBsNkOj0TDTJAR+R5NImGfvUd/Rc+DahZy9+WBkS8K0u5G3hzYsLAyDBg2CXq932zZbtWqFadOm4f3332+W9yc7Oxs//fQT9uzZg7NnzyItLQ3p6ekoLCxEVVUVsrOzcfLkSRiNRpdvW1RqtRpxcXH8ZUlCKC0tBXAt18w0iYDf0SQS5tl7NHSbY0mSeB66i7g07Tzft3779+/3dBMa1L59e4wdO9atF7SLi4vDqFGjsGbNmmZZv8lkQmZmJg4ePIhDhw4hNTUVW7ZswX//+1/s3r0bR48eRXJyMnJzc+sdumOxWHg0Htfez507d3r9DieixrAW6BUVFcw0CYHf0SQS5tl7lJeXN7jMlStX3NAS8Tl9MsfEiRNtHldUVGDWrFnw9/e3mf/dd985uwnhtJS9fzqdDoMHD4ZGo0F6erpbtjl06FBkZGRg/fr1uPXWW92yzerKysqwa9cu6HQ6hIaGws/PDz4+PggMDER4eDgMBgOOHDmCyMhIxMfHu7193kStVqNz584tJs9E9bEW6EDL+Y4mqg+/o0kkzLP3aOgIOsAC3VWcLtCDg4NtHj/44INNbozoWtqXS3x8PDQaDdLS0tyyvbvvvhufffYZtm7ditGjR7tlmzUZjcZ6L3KRnp6Odu3aISoqyo2t8i7W88GIRGAt0M1mc4v7jiayh9/RJBLm2Xs0pkAvLCx0Q0vE53SBvmrVKle2QxFa4vCc6667DlFRUdi/fz/0ej2ioqKg0+lgNpsRFBSEqKgoqFQqFBQU4Pjx43XeH7ExVCoVHn74YXz44Yfw8/NDQkKC6zriQqmpqbjlllug0+k83RSPsA43GzFiBK+oSi2etUBXqVQwGo2K/X9N4uB3NImEefYejSnQKyoqUFZWhlatWrmhReJyOumLFi3CnXfeqfjhvo5oqUdn2rRpg9tuu63eawy0bdsW4eHh2LlzZ5OKdLVajZkzZ2LZsmUIDg5Gr169nF5XcykrK8OWLVsQHx+PiIgITzfH7dRqNfr06dNi80xUXUVFBYBrR9AtFouHW0PUdPyOJpEwz97BZDKhqqqqUcteuXKFBXoTOZ32ixcvYty4cWjXrh0ee+wxbNiwodEfnFK15C+XxlwA0MfHByNGjEDHjh3RunVrp/d0ajQazJ49G9999x0yMzOdWkdzu3r1Knbs2IFTp055uilup1arERkZ2aLzTGRlvYODJEks0EkI/I4mkTDP3qExR8+teB560zmd9pUrVyInJwdffPEFAgMDMXfuXISHh2PSpEn417/+xQ/HjpY4xN1RPj4+iI+Px6hRo3D77bdjyJAhCAsLc3g9fn5+mDNnDj777DObizh5myNHjuDSpUueboZbGY1GbNq0ibemIyFYc6zValFZWenh1hA1Hb+jSSTMs3dozBXcrVgDNl2Tdkep1WoMHz4cr7/+Ok6dOoU9e/ZgyJAh+Oijj9C2bVuMGDECb775JrKyslzV3hZNaXv/NBoNYmNjcdNNNzl1gY+QkBA88MAD+OCDD7z6yNbevXthMBg83Qy30Wg0GDRoEDQajaebQtQk1W+daDab673NIlFLwe9oEgnz7B0cOYJeVFTE36dN5NKKsWfPnnjmmWfw22+/ITMzE1OmTMGuXbvwxRdfuHIzLZbSCnQrtVqNoUOHOnVv9a5du+K6667D559/7rVFutFoxC+//IJff/0VmZmZwn8pqdVqhIWFKTbPJI7qR2QkSZKLdaKWjN/RJBLm2Ts4UqCbTCZFHbhqDk6n/cCBA3j22Wfly+kvXLjQ5vmIiAhMnz4dP/74I5566qmmtVIQShjiXheVSoXrr78e/v7+Dr82MTERkZGRWLp0KUpKSpqhdU1nsViQk5ODPXv24JdffsGlS5dw5coV5Obm4urVq55unksZjUasW7eOw82oxaueYa1WK18wjqgl43c0iYR59g6OFOgAUFxc3EwtUQanr+L+6KOP4q677sJdd92FH3/8EVu3bnVlu4TUv39/TzfBo7RaLQYOHIgdO3Y4/NqkpCR06dIFb731FqZPn47Y2NhmaKFrFBcX47fffrOZp9frERERgaioKPj7+8NoNCIgIADBwcEeaqXztFothg8fztudUItX/Q8+k8kk/OgXUgbr6Yf8jiYR8G8O7+Boge7N149qCZxOu6+vL5577jmMGTMG06dP5x82jeDM0WPRREREoHPnzjh79qzDr+3cuTPmzp2L5cuXY+TIkUhPT8fx48dxzz334Prrr2+G1rpOZWUlLl68iIsXL9rMDw8PR48ePRAdHe2hljlOpVIhKCjI080garKaR2Q4xJ1EUFpayu9oEgb/5vAOjhbooo0edTenh7j7+fkBAAYNGoRx48YhNTXVZY0SFYfnXNO/f3+Eh4c79dqQkBA8/fTTyM/PR0JCAl5++WVs2bIFf/zxh4tb6R75+fn49ddf8euvvzbp/vHuZDQa8eOPPzLP1OJZM2wymXD8+HFexZ2EUFJSwu9oEgb/5vAO9q7iXlhYWOeppzyC3jROF+ivvPKKfE719OnT8fXXX7usUaLi8Jxr1Go1hg0bhsDAQKder9frcdddd6Fr167Q6XR44oknsGnTJuzfv9/FLXWfnJwc/PLLL9iwYQOOHTvm1dcr0Gq1GDNmDPNMLZ71D77s7GysW7fOay9ESeQIs9mMG264gd/RJAT+zeF55eXltX4/Go1GvPnmm9i4caPd17BAbxqnC/RNmzahqqpKfjxhwgRXtEdoeXl5nm6C1/Dx8XHZHxB6vR7z5s3Dvn378NNPP7Xo0y1KS0tx4sQJbNq0CefPn0d+fj6Ki4tRWlpa797jiooKXLlyBZcvX3bLUUD+oiQRWP9PZWVloby8nEPcSQhVVVXMMgmFf3N4lr2j559//jluv/12nDp1qs7XcKe385xO/IsvvohZs2ahVatWrmyP0M6ePYuuXbt6uhleIyAgAP369cOBAweavC6dTodZs2Zh/fr1eOWVVxAXF4ekpCRERUW5oKXuV15ebndEgFarRUBAAGJiYtC5c2eYTCb88ccfyMrKslkuPDwcN9xwA3Q6ncvbZjKZsH79etx6663Nsn4id7EW6BcvXkRFRQWHUJIQKioqcOzYMX5HkxD4N4fn1Tz//NChQ7BYLBg6dCgOHjyIy5cvIyIiotbrSktLnR4tq3ROF+gt+Silp2g0Gk83wet06tQJ2dnZyMnJafK6VCoVxo8fj1tvvRXnz5/HRx99hHvvvRfdu3d3QUu9g8lkQlFREYqKiuS9lvaGw+fn52PHjh0YPnw49Hq93XVZLBZkZWUhPz8fpaWlUKvVCA4ORkhICEJCQuq8qKFWq8Wtt97KPdrU4ln/72RlZUGn0/GoIwnBbDajV69e/I4mIfBvDs+rOVx9165deOihhwAAgwcPxt69ezF+/Hi7r2OB7pwmpV2lUrmqHaRgAwcOxPbt2112xUeVSoWOHTvi6aefxvLly9G/f3/cfPPNwu0gaeg89aKiImzatAnR0dGIiopCRUUFDAaD/Lr8/Pxaw+Gzs7Pl6VatWqF9+/Zo3759rSuomkwm/rKkFs96xLy8vBx+fn5efe0HosaqfvohkQj4N4dn1SzQDQaDfJvgvn37Ijk52W6Bziu5O8/pc9ABoFu3bggLC6v3h/6HR2fs8/X1xU033eTye4L7+flh/vz5kCQJ//znP7F7926cPXu2zitOiqiqqgoZGRnYt28fjhw5ggsXLiArKwtZWVkNnqteVlaGkydPYvPmzdi8ebN8iziTyYTNmzfLxczp06dx5MgRVFVVwWKxIDc3FxcuXEBxcTFH2pBXMxqNMJvNUKlUUKvVHOJOQqisrMT58+e5w4mEUPNvDnK/6gW6wWCwOSru4+MDvV5v929rXijOeU3aHfXiiy+6vKgSGff+1c1apG/fvh3FxcUuW69Go0FSUhKGDRuGvXv34sCBA8jOzkZJSQkiIiIQHh6OqKgoJCQkCHeE3ZUMBgOOHTuGdu3aQafT4c477wQAXLp0CUeOHIEkSTh79ixUKpVNkePj4yMfwQ8MDIRWq8XZs2eRmZmJmJgYdO3alfc3JY8xGo3Iz89HREQECgoKWKCTEEwmE6Kioni+Lgmh+t8c5BnVC+0zZ86gW7duNs8PHDgQ+/fvx6hRo+p8HTmmSRXj5MmTERkZ6aq2CI9HE+un0+lwww03YMuWLS6/EnlgYCBuvvlm+bEkSbhy5QoKCgpw9uxZLF68GNOmTUNMTIxLtyuSkpISFBUVITg4WN5TunfvXjnX9vZuW4/gZ2Rk1HouPT0d58+fR5cuXdC7d2/uwCK3MxqNuHjxItq1a4fS0lJFja4hcVVWVsJsNkOSJJ6KSC2eJEkoKSlBYGAg8+wBkiTZXCTu9OnTGDx4sM0yAwYMwEcffVSrQOcQd+c59RfxH3/8wf8kTuAQ94a1atUKw4YNw44dO5r19gwqlQqtW7dG69at0a1bNwwaNAj//ve/IUkS4uPj0b17d0RGRkKtbtJZIMLJyMhAz549sWvXLgQGBjb5iKMkSThz5gwyMzMRHR2N8PBwBAYGws/PD5IkoaKiAq1atYKfn5+LekD0P0ajEVlZWejUqRMuXrzIAp2EYDQaUVFRAZPJxKPo1OKZTCbs2rULY8aMYZ49oObt0i5cuIC7777bZpmAgACYTCZUVlbaXJi45tXfqfGcqj4GDBgA4Nof1506dUJBQYFLG+VOixcvxqBBgxAYGIjIyEhMmDCh1j39KioqMHv2bLRu3RoBAQGYNGkScnNzHd4WjxA2TuvWreWMuUt4eDjmzZuHGTNmQKVSYf369XjttdfwySefoKioSF5O6aMgMjMzodVqER8fj7y8PJett6KiAufPn8f+/fuxbds2rF+/Hhs2bJCnf//9d+Tk5PAcNHIp6xH0mJgY+Pr6skAnIVh3nLKYIRHodDqMHz+eefaQ6sPUrSNz7NUz1113Hf744w+beSaTCRUVFc3eRhE5VTGGhoZi3bp1iIqKwvnz51v0jeh37NiB2bNnY9CgQTCZTPj73/+OMWPG4Pjx4/JtpubNm4d169bhm2++QXBwMObMmYOJEyfit99+c2hbLfl9creOHTviypUrSE9Pd+t2AwMDMWLECIwYMQLAtXNtPvjgA/l5Pz8/PPHEE4o9sl5eXo7c3FwcPHjQbduUJAkXL17ExYsXoVar0bp1a0RFRSE0NFS+d3X79u3h4+PjtjaRGIxGI4qLixESEoJWrVqxQKcWz2w2w2w2w2Kx8MrXJASLxYKioiKEhIQo9m8vT6peoF+8eBGxsbF2lxs4cCC++OKLWsPfS0tL4evr26xtFJFT39yTJk3CTTfdhDZt2kClUmHgwIF1XmDr3LlzTWpgc9u4caPN49WrVyMyMhKpqakYMWIEiouL8dlnn2Ht2rUYPXo0AGDVqlXo2bMnfv/9dwwdOrTR2+IvSscMGDAAxcXFuHLlisfa0LVrVzz77LPy461bt+LLL7/E/fff77E2edq+ffs8drqGxWLB5cuXcfnyZZv5R48eRVxcHEwmE0pKSmA0GqFSqdCtWzd06NABAJCbm4v09HSYTCYEBgaiR48edd4jnsRnLWCAa6e8+Pv783w5avGsR881Gg3Ky8t5D2Jq8cxmM/bt24fRo0ezQPeAmheI69q1q93lWrdujeLiYpjNZpuasLS0FK1bt272dorGqYrx448/xsSJE5GWloYnnngCM2bMEOaXgPUK4tZbxKWmpsJoNCIxMVFepkePHmjfvj1SUlLsFuiVlZU2FzkzGAwA/ndqgLW40Wg0NtMmkwkqlUqeVqvVUKvVdU4bjUZoNBp5WqvVylfRtu4MqL4H3Xo+miRJ8rTFYoHZbJanLRYLtFptndPVh7fU1Q9X9clsNmPYsGEuvUd6U40ePRpr1qzBli1bbC46pySuvoCfK5hMJpw9e7bW/P379yMvLw+SJCEzM1Oen5OTg/Pnz6NXr17o3LmzIv4/sU+2fSovL0dxcbF8JxK9Xo/S0lJUVVXBx8enRfZJtM/p8OHD6NixIwIDA4XpU3N/TuXl5fK2rbe+bOl9EvFzYp8c69OYMWPkHaqi9KmlfE7VR5alpaXVOv+8ul69euHEiRPo06ePPK+srMzr+uSpz8mR0zSd3hU1duxYzJkzB1OmTMFf//rXOn9aEovFgrlz5+KGG26Qw5WTkwMfHx+EhITYLBsVFYWcnBy761m8eDGCg4PlH+twkKNHjwIATpw4gRMnTgAADh8+jDNnzgAADh48KA/p3rt3r1xQ7N69G5cuXQIA7Ny5E/n5+QCuHc21nh+9efNm+T/R+vXr5QvErF+/Xj4HZP369QCuXY178+bNAICioiJs3boVAJCfn4+dO3cCuHb7rN27dwO4dt7x3r17AVy78rZ1ePOZM2dw+PDhZu1TVVUVbrzxRptzj+qatv5HUqlUdU5b9+pVn1ar1XVOW/fWWv8jA8CUKVOQm5uLjz/+WP5SsC5jnbb+Z7c33VA/PNGnmtMi9SkjIwPZ2dm1+mQ0GnHs2DE521u2bMHhw4exZ88erF+/Hrt27cKxY8dq/X86duwYUlNTW+T/JxG/I5zt065du1BQUIDw8HBotVq0atUK5eXlSElJabF9EulzKisrQ1paGrZv3y5Mn9zxOR07dgxqtRoqlQqHDx8Wok8ifk7sU+P7VFVVhYsXLwrVp5b0OeXl5cl/PxUXF8sHMO39jTdw4ECkpqbK87VaLcrKyryuT576nGqeo18flaT0q15V89hjj2HDhg349ddf0a5dOwDA2rVrMW3atFpHDQcPHoxRo0ZhyZIltdZj7wh6bGws8vLyEBER0eL3AHlir1ZhYSFSUlK86oqQBw8exLp16/Dkk08q7irjWq3WoT2B3q5Vq1Z1ZkulUiEmJgZlZWW1Trdo27YtevXqhVatWslHXVvC/ycRvyMc7VNBQQGWL1+OjIwMjB8/HsePH0d6ejrefffdWkdsW0qfRPqcDh8+LP/BdeONNyIyMrLF98kdn1NmZib27NkDrVaLPn36oFOnTi2+TyJ+TuxT4/sEXCuuhg0bJt/hpaX3qSV9Tj/99JNc07z22mtYsGAB6iJJEl599VUsXLhQntemTRskJCR4VZ889TkVFxfLpwIEBQXV+T4CTbwPukjmzJmDn3/+GTt37pSLcwCIjo5GVVWVfIEKq9zcXERHR9tdl16vt3tuq3We9chfzenqRyIbM92Yo5X2plUqlTxd/ehjY6brantz9yk0NBSjR4/Gb7/9hsLCQniDAQMGwNfXF8uXL8e8efNs+iE6kYpzoP5bgVgvUmdPdnY2srOzodFoEBYWhs6dOyMmJgYA5P8z1iHT3vT/ScTvCEf7ZL23a6tWrQBc+36unoOW2CdRPqeqqipcuHBBfu6PP/5AUlJSi+6Tuz4ni+XaxWhNJhPMZrO8npbcJxE/J/bJsX5UP6VQlD5Vn/bWPpnNZrk4Ly0tbfBglEqlQkhICAoLCxEaGgrg2sWFvalPgOc+J0fqBOVUFHWQJAmPP/44vv/+e2zfvh0dO3a0eT4+Ph46nQ5btmzBpEmTAACnTp1CRkYGEhISHNrW6dOnMXDgQJe1XWl8fX0xcuRI+ZZbOp0OXbt2xZkzZ5p8P25n9ezZE0VFRVi+fDnuv/9+REZGeqQd7qZSqRR/y7nqzGazfPE6615Z655W4H9H2mueKkOeYzQaUVpaioCAAACQh7iLtvOpJTp79qxcaALXhhXm5OTUuVOc/qeqqgrAte9o3t6IRGCxWHDp0iW0adNGLnbIPapfIO7SpUto27Ztg6/p06cPjh49iuHDhwOAfF0McoziC/TZs2dj7dq1+PHHHxEYGCifVx4cHAw/Pz8EBwdj+vTpmD9/PsLCwhAUFITHH38cCQkJDl3BHYB87gM5T6vV4oYbbsCZM2fQvn17+Pr6ok2bNti1a5f8h4m7JSQkICwsDF9//TUqKyvx4IMPIioqyiNtcRe1Wi0PLyJbZrO51ntjPdLerl079O7dW5iLarZk1gLd+n/V398fZWVlLNC9QPULOlqdPXuWBXojWH8PqtVqFugkBIvFgrNnzyIqKooFups5U6D37dsXX331lVygV1ZWwmKx8LNzkOILdOs9rm+66Sab+atWrcLUqVMBAMuWLYNarcakSZNQWVmJpKQkvP/++w5vS0lDoJuT9fZZVqGhoRgxYgS2bdvmsaKxe/fu6N69O3Jzc/HJJ59g+PDhGDx4sLDnprM4d87FixeRlZWF6OhodOjQAX5+fvKdI6KiouRz4a17nK0jFdRqtTxcDACysrIQFBRUb6EvSZJ8YReqzVqgVx/iziPonpefn2/3iEtOTo7NKQlkn7VAN5vNHttpTeRKWq0WI0aM8HQzFKl6gZ6dnY1BgwY1+JrWrVvjypUrNn+DlJWVyaPVqHEUXzE2Zpiur68vVqxYgRUrVjRpW9WH7JFrhYSEYODAgdizZ49H2xEVFYUFCxZgw4YN+Oijj1BeXg6NRoPevXujf//+iImJEaJo4hB350mShEuXLslXFq1OrVbX+T0REBCA2NhYZGdno7i4GCqVCu3atUO7du0QFhYGo9GIzMxM5ObmoqSkBD4+Pujfv3+j9ngrkdForHUOelVVFQt0D7N39By49v/m3LlzNrfvodo4xJ1Ec+7cOahUKsTFxfEorJtZDyAAkE8zaIzo6Gjk5OTIy5eXl7NAd5DiC3R3YoHevGJjY1FYWIjTp097tB1arRa33367/LiyshLHjx9HcnIysrKyEB4ejv79+6N///4t9mgQh7g3j/q+I65evSrfXgSAfG/3ugoao9GI3bt3IyoqCn379uX57zWYTCaUlZXB398fwLULuFS/bgC5X30XZASu3aamR48eHI1WD+v1WDjEnUSRm5uLoqIixMbGskB3s+p3rikvL2/0qNC+ffvi6NGjNgU6OYa/5dyIf1Q0P2shcuzYMZuhOZ6k1+sxYMAADBgwAABw+fJl/PHHH3jnnXcQHR2NW2+9tcWds87ivOXIzc2V7zrh6+sLHx8fBAYGIiQkBCEhIUKM6HCG9Qi69Q8Oa6YNBoMnm6VoeXl5tW5pWl1lZSVOnDiBvn37urFVLYv1ntGhoaEICAjgqS7U4lVVVaG0tBTnzp2zOb2RmpfZbJZ/Hzo6YrJXr1747LPPcMsttwBgge4MVoxuxKKm+alUKrRv3x7t2rXDiRMncPLkSa8bih0REYHExEQkJibi7Nmz+Oabb2A0GjFq1Ch06NABwcHBXv8HVX1Dsck7WS+AWZ1Op0NkZCRCQ0MRHByM8vJyZGdnQ6vVokePHggJCYHRaITBYEBeXh5KS0sRExOD6Ohor89oQ4xGIywWi3yrFuuRmcuXL3uyWYpW39FzqzNnzqBjx44cLlmHqqoqbN++Hb1798aAAQNQUfH/2rvv+LauK0/gv4feAQIkABawd4oS1ZvVuzQaK1bisk5s2Y5nM7HHqzjFm91JnN31xBN78kniJGMn2RmXydhrJxlbsWMrKrYk2+q9kmLvIAmC6B14+wfnvRAkSJESC0ie7+ejj0ng8eE+8hp4595zzw3M2FooZHYIBAIQCARJs8XubNHX18ffPw/cNm001Gp1XFBOAfrYUYA+iZItUJzJBAIBKioqYDQacerUqaRN9SsoKMCTTz6J3t5eHD9+HMePH4fVasV//a//ld9POxlN9+CM9AuHw2hvb0d7e/uQ59ra2iAWi4dsYdjU1ASRSASVSgWNRoPi4mLodDp+bb3NZoPb7QbDMFAqldBqtUhLS+NTyZPF4Ovi+rTT6UQ4HI7bA5VMPJZl0dHRccvjYrEYLl68iLvuumsSWjX9hEIhOBwOfteYgVkihExHoVAIDMOMmF1Dxt/AAZGOjo4x35MKhUL+s9Tn841382Y8CtAnEaW4T760tDRs2LABx48fT+rRV4PBwK9b7+vrw89//nM8/PDDyMnJmeKWJUbZILPD4CCWE4lE4HA44HA40NLSgvT0dDidzhE/hGUyGfR6PYxGI7KzsyGRSAD0py1LpdK4Y1mWRSgUGvL4eBpc4ZrLCInFYujp6aHiepPMbreP+gbcarWip6cHaWlpE9yq6SccDsPhcPCZID6fDwaDYYpbRcjt47KdKECfXAPXn4+lQBwnIyMDnZ2dyM7Ophn020AR4ySioGZqyOVyrF27FrW1tejp6UFvb29SF4JKSUnB3r178etf/xqRSAQikSiuvSaTCcuWLUNZWRmA/mDG7XbD4/EgFovBYDBM+IwJpbiTgRJVpB8sEAjw+8FfuXIFOp0OLpcL4XAYRqMRubm56OvrQ0dHB18/QqvVori4GCqVCn6/Hzqdjk9tdrlcuHr1KhiGgVwuR2Zm5pgCtsHvAUqlEhKJBKFQCDabjQL0STaaPjTQ9evXsWbNmglqzfQUDofBsizC4TB6e3sBgGauyLTGBedU9HDyDQzQOzo6UF5ePqafz87ORktLCwXot4kC9ElEo/1TRygUorS0FKWlpYjFYrDZbGhvb0dTU1NSDpxoNBp861vfAtD/ASUSicAwDKLRKKxWKw4fPox9+/ZBr9eju7ubLwjEMAx6e3vhcrmwdetWLFmyZMR0dJZl0dLSgvPnzyMWi2HZsmWjSmOiFHdyJ6LRKB9AAP3Fwbq7u4cc53Q6cebMGf57oVCIkpISqFQqnD9/Pi7Irqurg1qtxuLFi6HX6/nX4WZd5HJ5XL8NBAL89xKJBCKRCAqFAn6/P+E69O7uboRCIWi12hH3nye3ZzTp7QP19PTQLPogXFaIXC7nA3MK0Ml0xr1/MwwzbEYXGX9cYT5OV1cXjEbjmM5hsVhw4sQJAP2ft9xACxkdCtAnUWFh4VQ3gaB/9tdoNMJoNKK8vBw1NTWora1N2hoBA9fCCoVCZGZm4qGHHoLT6YTf74fZbB7yM8FgEB988AEOHTqE+fPno6KiAkD/zZrf74fX60VNTQ2sViuys7OxcOFCAMBHH32Enp4ePnBJT09HYWEh5s+fH7cl3MBBjUAgALFYzBfbImSiRKNRXL9+fdjn3W43PvnkE+Tl5cHn86G7u5vP9JDJZMjMzEQsFkNnZyccDgefaaLX65GSkgK5XA6/3w+Hw8GvnYvFYrh8+TLq6ur411mxYgXNsI8jj8dzW9XzaRY9HjfbCPyl5g0F6GQ64waduHuOUCjEL48iE2fg7DnQn3E21rosmZmZcfVt/H5/0tWiSWYUoE+iZJypne2kUinmzp0Li8WCM2fOTKstlrRaLbRabcLnpFIpdu/eDb/fj+vXr+PTTz+FQCCAQqHg/+3YsWPImiIukAfAz9bX1NTgF7/4BXQ6HR5//HEwDMPvg378+HEcPHgQQqEQ2dnZMBqNsNvtEAqFyMrKQmFhYcIBBEImCsuyaGhoGPJ4IBBAfX09//3APdB1Oh3sdjsfoLMsC5vNBolEgnPnzg15Xzh79iw2btwYN2gVCATg9XpHXO871kq4s8VYZ885PT09sNvtfMbEbOfz+eB2u6HRaODxeBCNRilAJ9MaN4POLasLBoMUoE+Cwfufy2SyMZ9DIpHEZT1QgD42FKATgv5135s2bUJHRwcaGhrQ3d2dtDPqYyGXy7Fw4UJ+hnwsuNn6zMxMrF+/Hv/v//0/XL16ld+D+NVXX4VGo8H//J//EyKRCE1NTXC5XKioqEAkEkFbWxv27duHnp4eWCwWMAyDQCCA3t5e/ner0+lw9913J3XFejIzeb1e/mYhJSUFTqeTD9AB4NKlS/B4PAl/NhQK4dSpUygvL0ckEkFvby/q6+sRjUZhNBpRWFgIjUYDpVLJL025dOkSGhoakJ+fjwULFkzadSY7r9eL2tra2/75pqYmCtD/k8PhgNPphFarhUgkgsPhuK0ba0KSxeBinsFgkJYYTQK3281/3dbWBovFclvnkUqlCAQCkMlktA59jChAn0SUApzcGIbhA9JQKITOzk5cuXKFCpP8p23btuFXv/oVKisrcf36dcRiMXzxi1/kn8/Ly4s7Pj8/H6tXr+Zn4hmGgUQigV6v59chdXV14d/+7d+Qk5ODlStXwmQy0f8nZFJ4vV5+Bpyb9VYoFPyM43DBOae3txeffvrpkMcHrqdnGIbvz9x6+YaGBkQiESxevPi2ajl4vV5EIhEIBAL+RjUWi6GpqQmpqanQaDRjPudU8Xg8OHr06B3duLW1taGqqorWNqI/Q8PpdEKn00Emk6G3txcGg4EvNkrIdMPNoHNLN6iS++QYmHnDFXpLJD8/H11dXXHr1QeyWCxoa2tDYWEhBehjRO/Yk+j06dPYuHHjVDeDjIJEIkFOTg7S0tLw2WefTavU94mi1WphMBhQV1eH3//+9/hv/+2/jernuJn4REwmE775zW/i3LlzOHDgAKxWK2KxGLKzs6HVahEIBKDRaFBZWYn09HQqTkfGDZfiLpfLIRaL0dLSEjeDPh5Ylk24Y0RLSwuCwSCWL1/OB04ejwdWqxUAkJOTM2S9n91uR3V1dVw6uEwmg8lkgs1mg9frhUgkwpIlSxKujw8Gg3C5XElRVI1lWTQ3N+Pq1at3PAAaCoXQ0dGBrKyscWrd9MVtfajT6fhiqMXFxfD5fNNq4IYQDheQC4VCRKNRmjCZJAMD9NbWVmzZsmXIMRaLBfPnz0d1dTWuXbuW8DwWiwWtra0oLCwcNogniVGAPoloDfr0o1AosG7dOjQ0NMBqtcJms82I1PfbtXPnTjz77LP4whe+MG5pZgzDYNGiRVi0aBGA/v9P2tra4Ha7IZfL0dfXh/3796OtrQ2lpaVYtWrVmPfjJGQwn88HhULBrwmXy+WQy+UJq8lPhK6uLnzyySdQqVSw2+1xAwNXrlyBwWDg05O7u7sT3pgGAgE0Nzfz30ciERw/fhxlZWUoLy8HwzBwuVy4cuUKrFYrWJaFWq2GxWIBy7KIxWLIzMwcMUU8FouhtrYWfr8fc+bMueOZ2HA4jCNHjsDpdN7yWKvVCqPReMvZ8ebm5lkfoAeDQb7AYV5eHoRCIb90gAJ0Ml1xKe7cfRfNoE88lmXjPm+49+GBuB1TGIZBTk4Orl+/nvDeODs7G4cOHQKAUb3nk7+gAH0SUeru9CQWi1FSUoKSkhJYrVacOHFi1g62GI1GPPTQQ1iyZMmEvYZQKEROTk7cY4sWLUIsFkN1dTX27dsHu92O4uJiuFwuuFwuVFVVYcmSJVAoFIhGo2hpaUFNTQ3KysrizhUOh/HBBx+go6MDe/bsoYIls5jX60VKSgpSUlIgFApRXFwcl+I+GZxOZ8Kblmg0ekcDBTdu3EBfXx/0ej2qq6v59FCgf23hwEr4NTU1/N7ywWAQ6enpKC0thUAg4GtycOn+nZ2dsFgs6O3tRSgUQllZWVxgHAgE4HA4oNVq+Qr5g125cmVUN2pOpxP/+I//iLVr12LXrl0jHmu1Wvl1jrOVw+EAAH4NukQigc1mA0CV3Mn0RSnuk8/n88UF27FYbEj8kp6ezg+cKhQKGI1GdHV1DTmX2WxGZ2cnAFAm6hhRgD6JEqU6kunFbDZj9erV+Pzzz4cUL5ktli9fzqebTSaBQIDy8nKUl5cjFAqhoaEBKSkpUCgUOH/+PP75n/8ZkUgEDMPAYrGgqKgI+/btQ0pKCubMmYPW1lZcuHABGzZsQHl5OV588UXs2bMHubm5k3odJDlwa9BTUlIQiURw5cqVcU9xn0pWq5VPmb+VgevtW1pa0NLSkvA4r9eL6upq/vuTJ09CoVBAIBAgEonEzboYDAbk5+fDYrHwN3K9vb0JK+wn8vrrr+Opp57C+++/j5s3b6K4uHjYY1mWxcGDB2E2m5GTkzPm/Xpngr6+PgDgU9yVSiVfiZkCdDJdDU5xpwB94g38DHQ6nQmzb0wmU9z3eXl5CQN0oVDID66EQiH4/f5hB29JPArQJxGtn50ZDAYD1q1bh88///yWhaRmqqlO85dIJCgtLeW/X7NmTcL9kBcvXoxLly6hvb0d+fn52LRpE//h8I1vfAO/+tWvsHjxYqxbt27S2k6SA1fFnau0bjAYJn0GfSYY7vfV29uL3t5eXLlyBSaTCSkpKaMOzs+cOcMH+F/96lfx4osv4jvf+U7ctnaDBYNBNDc3o7m5GRaLBVVVVZBKpfzzsVhsRheS42bQPR4PlEolRCIRPylAfZpMV5TiPvkGvl8kquAuEAiQmpoa91hGRgYkEknCiSupVIpgMAipVAqXy0UB+ihRgD6JKMV95lCr1Vi/fj2OHz/OpxHOJgNTZpPdvHnzMG/evCGPa7VafPOb38Tvf/97/PCHPwTQP4jGMAxisRhSU1OxevVqFBcX8zf2LS0taG5uBsuySE9PR1FR0aReCxk/3Bp0iUQCoVCIwsJCnD59mooQjTNunfzAtfIjiUaj+NOf/oTvfve7AAClUoldu3bhj3/8I+6///5RnaO1tRWtra2QSqWQyWQIBAIIBoP8FngSiQQejwderxdutxt+v5+/8Ver1VCpVBCJRJDJZDAajVCr1XA4HOjs7OQroufm5ibVjSYXoAN/2TOaQwE6ma6CwSBeeeUV7N69G2lpaRSgT4JbVXBPTU0dEs8IBALk5ubi5s2bQ86Xnp6Ozs5O5Obmwul0Dpl9J4lRgD6JKMV9ZpFIJFi1ahU+++wz9PT0THVzJtVUpLhPBKFQiPvuu49Pdx6Y5dLR0YFjx47h97//PYxGI+x2O1JTU1FWVgaGYXDixAm88847WL16NRYtWpRUN+vk1rgAXSwWIxKJ4PTp09BoNBTMTLEzZ85g0aJFcbPf8+bNw/79+/n07dEKBoNxN/QDt8AbTqKsKLFYjHA4HPdYdXU1ioqKkJaWxg/ycAN8QP8gZiAQQCQSgVQqhUKhiHuPGCnVk2VZdHd3w+fzwWAw3LLAWzgcHtJuoVAIsViMYDBIfZpMSyzLIhgMoqWlBS+//DLuvfdezJ07d6qbNeMNruA+uObQcAF2Xl5ewgA9IyMDHR0dfIBORocC9Ek0k9PrZiuhUIi77roLJ06cGPV6z5lgOs2gj0aiYnEZGRn8jJ3VaoVarY47bsWKFfD7/Th+/Dh+/vOfg2VZZGdnIyMjg1+PGwwGEQqFUFFRgfLycsqiSSKRSARyuZx/X87MzITP55txfXu6+fjjj7F37964xxiGwT333IM//OEPeOyxxya9TYODc6B/pr+6ujpuTf6tyOVyaDQaOJ1OBAIB6PV6FBcXQ6PRQCwWw+VywWq1oq2tLW4dqFwuh8VigcVi4Xcd6Ovrw9WrV2E2m/kif7FYLG6AIDU1Fb29vZDJZHyww7Js3MAAN1A1UDAYRH19PWw2G3w+H4RCIdRqNfLz82fl+n4yNUKhEFwuF7KysvDII4/ghz/8IUpLS8GyLC0ZnUADA3SbzTZkl4/hAnS1Wo20tLQhE1YZGRm4fPkyAKrkPhYUoE8iCtBnJi5I7+3txfXr1xMWyphppnoN+mQzm80JH5fL5diwYQM2bNiAUCiEtrY2dHZ28lVNpVIphEIhLl68iHfffRdlZWXYvHkztFrtJF8BSYTba1wgECAnJwctLS2IRqN0AzhFamtrkZmZmXCteXFxMT744AN0dnZO220W/X5/XOBtt9tx8uTJUf3czZs3cfPmTWg0Guh0OrS2toJl2bjPG7fbzW9/ybIsH6BnZGTg0KFDcDqdkEqlWL58OVJTU3Ht2jXcuHEDJpMJJSUl8Pl8sNlsaG1tHZIh5XQ60dbWhtzcXBQVFfHZJ5xYLAaXywWn0wm/34+srCx+4ICQ2xEKhfisGblcDq1Wy2fFzOYdGyYaF6D7/X6IxeK4z0KpVDpiFlN+fn7CAH3//v0A+t+j6PN1dChAn0SU4j6zGQwGrFq1CpcvX06Y5jOTzJQU9/EkkUiQn5+P/Pz8Ic8VFBTgnnvuweXLl/HrX/8aAoEAFRUVMBqNCAaDUCgUKC4upjT5ScYFGNz+4WKxGHq9Hna7HQaDYYpbN/t89NFHeOCBB4Z9/stf/jJ+/etf45lnnokLDmcTbmvJRLgt7oD+9+i0tDQ+pZ+buQoGgzh27Bj0ej1fP6Wrq2vUA8tNTU1oamoC0P//j1QqhUAggMfjics+uXbtGtLT05Gfnw+TycTfkDudTly5coV/PZVKhaysLJjNZigUCgiFQn4HAo/Hg1AoBJ1OB6PRiIyMjLjAzOfz4caNG3C5XNDr9cjNzU04+BkMBtHe3g6r1YrU1FRYLBZ6r50GgsEgH6ALhULo9Xo4HA4K0CcYF6BfvXp1yJKCwcXhBsvMzOSLwnFUKhW8Xi+A/swjj8fDDySS4VGAPolG2iaGzBxz586FWq1GXV3djE3noTTgsWMYhi9Y5/P5cO3aNdhsNkilUthsNhw6dGhIKi3DMGBZFpFIBBkZGVi3bh2amppw6tQp6PV6rF+/HpmZmQiFQuju7kZDQwO8Xi9MJhOys7OHVF8l8SQSCYD+GfSCggJYrVbk5+ejoaGBAvRJ5na7EQqFkJaWNuwxRqMRW7Zswb/927/h0UcfncTWTQ9Op5Of3YrFYjCZTKirqxtyXCwWG5fipuFwOGH6P9A/g9/R0YGOjg7I5XJIpVL+5nxgBpbb7caNGzdw48aNYV/H4/Ggra0N58+fh16vh0QiQTgcRl9fH/9Z1Nvbi/r6epSWlvJ1QqLRKGpqalBTU8MPKHd0dODy5cuQyWRQq9UQCASIRqOQyWTQarX8P664YDQahUql4o/z+/1gWRZisThhkBgIBCAWi/nlTH6/H52dnZDJZEhJSRnVwADNMPYLBoN8n47FYkhJSUFfXx8ViptA4XCYn0w8d+4c7rnnnrjnuSU2wxEIBLBYLAnfd7h+7XQ6KUAfBQrQJ9GtRp7IzJGXl4e8vDz4fD60t7ejra0Nvb29U92scTPbUtzHm0KhwOLFi8f0M01NTThy5Ajy8vKwd+9e2Gw2HDlyBDabDRKJhN+WKicnB93d3Th48CDa29sxd+5cbN26Na7o1mzH9d+BKe6ZmZno6+tDfn4+zp8/P+a/D7kzJ0+exPLly2953OLFi3Hjxg2cOXOG/kaDDAzQWZaF0WhMiiVXg1P77wS3t3sisVgM169fR3V1NaRSKWKx2LDBXCAQGLJjQ1tbW8JjGYaBWCwesoVUeno6SkpKEIlE0Nvbi66uLtjtdkilUhQUFIBhGNTU1PABj0gkQmVlJQoKCoa9BqfTiVOnTkGpVGL+/Pkjbi0403Ep7oWFhWBZFjqdjgL0CcbNnrMsC5vNNqTmxOD16IkkCtB1Oh0cDgdSUlKGzQAi8ShAn0SU4j77KBQKFBUVoaioCF6vFy0tLWhoaBi3m5WpMnCPXTI5cnNzsWfPHv77rKwsfPnLX054bGlpKVavXo1oNIqzZ8/iH//xH7F48WLI5XJEIhGkpqYiIyMj4XYps0EgEIBMJuNn0CORCI4dO4b09HTk5OTg3XffneIWzj5nz57F008/Papj77//fjz//POoqqqatanuiTgcDuTl5QHof4+Wy+WzMpiJxWLj+hnLsmzC/Z07OzvR2dk55PFgMIjr168PeTwSieDChQuor6+H0WhEWloazGYzhEIhIpEI6urqcOPGDUSjUbhcLvT09GDOnDl8sB8IBNDa2ore3l643W5IpVJIpVJ+Nj87Ozvhuv9oNIru7m6IxeJJnyiyWq1xSxzGYmCKu0gkgl6vR0dHB22FOYG4AD3R9mrArWfQgf7lnkqlkk9rB/5SyT0lJWVWbk3MSfQ+MhwK0CcRFYmb3ZRKJcrKylBSUoL6+npUV1dP25snWn8+PQiFQixduhQLFy7E+fPnwbIsBAIBrFYrzp8/D5vNxs8mD947uaqqCnl5efB4PPB4PHC73fx6eblcDrfbDa/Xi1WrViEzMzPudX0+H1iWTVgdPxkM3GIN6L/2OXPmwOPxQCKR0ODTJLPZbFCr1aPO8pBIJNiwYQP279+PnTt3TnDrpo+Ba9DpPTp5cXUE6urqIBaLYTab0dXVNeTmPRKJ4OLFi2htbYVGo0Fzc/OIy8uuX78Oo9GIlJQUqFQq+P1+2O122Gw2/j2Nq7QtFoshl8uh1+uhVCr5XUcYhoFIJIJEIoFUKoVI1B8mcEutRjsgFovFcP78eTQ1NSEtLQ1Lly6NWxLg9/shEolGPB83g67VahGNRqHT6XD16tUxBTlkbLgA/fz581iwYEHccyqVatR/f4vFErfDBRegV1RUoKenZ8RtJmcyh8Mx6mMpQJ9EXq93THu4kplJIBCgqKiIX+taV1cXN9I4HVCK+/QiEomG7GU6WDQahUAgAMMwCAaDuHjxIq5duwaVSgW1Wo2cnBzIZDJ4vV74/X6kpaVBJBLhvffeQygUglwuh8PhQCwWg0KhgEAgiNuuRSwWIysrC9nZ2cjOzoZer0dbWxtsNhuqqqom9cPa5/NBqVTGrUE3Go38jZ9Op4Pdbh9VOh+5c8ePH8fKlSvH9DMrV67EP/zDP2DNmjW33Cd8tujp6eFnSLn3aIVCAa/Xm7SDZbNdOBxGa2vriMf09vaOeolcd3c3XxgwEbfbDbfbPaY2Dhy8lUgk0Ov1fOq9SCSCTCaDSqWCTqeDWCxGW1sb6uvr+WCkp6cHBw4cQElJCQoKCtDZ2YkLFy6AZVkUFRXBZDJBJBJBpVLFZXQFg0F+MJVlWej1evT19dEM+gTiMk+qq6uHDH6OZvackyhA57JKWJZFU1MTysrKxqHF00tfX9+oj6UAfRJduXJlyEwTmb2EQiGf/u52u2G32xGLxeBwOFBfXz/VzRsRpbjPPANvjKRSKZYuXTqqnyspKeE/dLRa7bCZQsFgEG1tbWhpacGhQ4dgt9uRlZUFnU6HH//4x8jIyIDf74fL5Yrby1mn0/GBssViwdKlSyEUCnH16lWcOHECkUgEIpEIRUVFfGX8W/F6vXEz6OFwGB9//DFfsbagoAANDQ1xAToVbpoYLMvi0qVL2L59+5h+jmEY7N69G++99x4eeuihCWrd9BIIBCCXyyEWi/kZT24deqLdJQgZjYGz9qFQCFardcznCIVCuHLlCm7cuBF373D9+nU+cJPJZCgrK0Nqaipu3ryJlpYWAOBn9VUqFTweD6xWK44cOQK/3w+TyYSioiJIpVI4nU7+n1KpRHFxMf955Pf7IZFIIBAI0NfXB5vNBrlcDp1OB5VKRe/t/8nn8yESiUAoFPLZE5yxBOharRYajYZfb24ymeLqYTQ3N8/KAJ1m0JMUpbiT4ajV6riqlj6fL+HatmRB6ZNkoNF8cHOFkxIVSNq4cSOfxjk4y6ivr4//ULt58yb+4R/+gc9CufvuuyGTyRAKhXDz5k387ne/QyAQwMaNG+HxeFBbW4vu7m5Eo1EwDIPMzEx+MGz37t38DLpQKIwrOJafn48LFy5g0aJFcLlcOHDgAK5evQqZTIZIJIItW7ZQgbJxwLIs3njjDSxZsmTIzeBolJWV4d1336UZYvRXOudmNblq1wD49GkK0EkyGGlgPxAI4MKFCwmf497Dgfiigw0NDWhoaEj4M83NzXxqNZc1MHgpF9D//q9Wq/nlW0KhkM8EM5vNU5KhE4vFRh0zjOXYkXg8HnR2dqKrqwtms3nI82PNKDObzXyAPnhSx+PxwGazzbri2RSgJykK0MloLV68GIcOHYpLEU4mlOJOxhPDMAkL0gD9wQY3AJCXl4dNmzYhHA4PWa+clpaGlStXwm6348iRI9Dr9di0aRNfhCkajaK9vR1yuZzfymvgGnS9Xs8vNcnOzsbbb7+NN998Ey0tLdi2bRt2794NhmEQiUTw0ksvQSgU8mv0WJbFzZs30d7ejoqKCphMpiHXEQgEcOLECcybN49S5/GX4Dw1NRVbtmy57fNs2rQJhw4dwt133z2OrZt+mpqa+CBcrVYjGo2it7cXJpMJNTU1U9w6QsaOm8kFbu+ew+12D+n7idbwR6NROByOhMHT5cuXwTAMGIaBRCJBamoqDAYDNBoN1Go1P9M8UrFV7jVHEwO43W40NDSgsbERIpGIL+iakZEBoVAIj8fDz3J7PB60tLTA5/MhLy8PxcXFCbf+i8ViCIfDYFl22P3jo9EoTp48iXA4jPb29iHZvgzDjHmJLpcJwdFqtejr6+M/zxsbG2dVgD7W3SwoQJ9ElBJMRksikWDt2rXo6emB2+3mC7uEw2HY7XY0NDSMaS3LeKMUdzJVBALBiMXE9Hr9kL1bgf5ZksGDANwMejgcxoEDB7B27VoA/bP92dnZmDNnDh544IG49EeRSIS/+7u/w89+9jN89tlniMVicLlcKCwsRE5ODvbt24fe3l5+D3uFQoGUlBQ0NTVhxYoV+M1vfoPc3Fzs2rVrzFvfsSyLhoYGeDweMAyDnJwcaLVaPn3UbDZPi2VUnZ2deP3117Fo0SJs3Ljxjs61cOFCfPjhh9i+ffusruje2NjIV3CXyWT8jKHJZMKxY8emsmmE3Ban08kXPeTuOUQiEcLh8KT+v86yLFiWRSAQQFtbW8Lt+DQaDdLS0qBUKiGTyeD3+/nsL27gV61WQ6fTwWAw8LUhvF4vwuEwgsHgkPX1kUiEfz2hUMgPECfCDRCvW7cuLgj3+Xz4/PPP4XQ6AQCFhYWYN29e3Gcay7K4cOECP0DR3t4+JP1crVaPOctpcPBdXl6OGzduYMWKFQD6Mxz0ev2I2w7OJGO9Z6cAfRLNxu2MyO1TKBTIyckZ8rhWq0VeXh7a2tpgtVr5kWUuIAiFQvD7/XA6naMadVYoFPwbZG1t7agKsFBwTmYC7iZPJBJh1apVcYXqRlrXLBaL8Y1vfAOBQIAfMOBmRwYXO3O73bDZbPjyl78MgUCADRs24OzZs/jRj36EBx98EHl5eeju7kZXVxf/AZ6ZmYmsrCy+Pdz2TH/+85+Rk5MDg8GAWCyGI0eOwOVyQSQSYc6cOTh58iSi0Sh2794dF6h7PB5cvXqVr6JbWFjIn3c0gwTBYBCBQIC/Wb4TV65cwQcffIBHH300YabBWAkEAqxYsQKfffYZ1q1bd8fnm64aGxv5ASa1Wo38/HxUV1fze0cTMt1wW6wBf7nn4PbT5rKgkgVXmX80x3Br68diNMsKvV4vPvvsM6xZswYCgQDd3d04d+5c3D1dXV0dnE4n8vPz+YG8mpqauELF7e3tQwZObyfrSyKRQKvV8oMD5eXl+OMf/8gH6AD4JQ0Dg/RYLIZYLHZby56SGQXoSYyKUJDxlJWVhaysrGGfj0QifPVXu92OQCCASCQCiUTCz+qlpqZCr9fzfbOwsBB9fX2QSCT8gFIoFEJ7ezuam5vj0nPS0tKQnZ0NiUQCn8/H783q9/tpGxQyLXABOsMw/DpDsViMcDh8y58VCoWjWvc8uL4EwzBYvHgxSktL8cYbb8DtdsNoNMJsNiMlJQUsy+LixYvYt28fXx3f7/ejsrIS3/jGN275mp2dnXj77beRkpKC4uJifPbZZxAIBJg7dy5KSkpw6dIlvPvuuxAIBBAIBAgGgygtLYVEIoHX60VlZSXKy8vBMAxsNhsOHTqE2tpaSKVSGAwGrFmzBuFwGAzDoKCgIG4mKxqNoqWlBSkpKQnTIZ1OJ/7jP/4DzzzzzLCplrdj9erV+NWvfoW6ujrce++94zKQMN14PB6+n3Fb1lVXV0MgENCSJDItDQzQOVx9hWQL0JOFw+HAn//8Z4RCoWG35Ovp6UFPT8+w5+CyNge63d93amoqH6AbjcaEOwxcuHAB1dXVSEtLQzQaRVdXF1iWRWZmJjIzM6HT6SCXy/kBjnA4jFAoBJvNht7eXlgsFpSXl/P3qtznJvf5plarkZ2dPSRrwOFw8AMfAoEAYrE47rpZlkV3dzdaW1uhUChQUlIy7EQrd88rEAiGHViw2+1j+t1RgD6JaNaRTCaRSASTyTSmWSqhUDgkLUmpVCIlJQV5eXk4ePAgvxfq/Pnz44qnFBUV8V9z66PsdjtaWlpgt9uhVquhVCrh9/sRCASgUCigUCjQ3t4+4t6uhEyUgSnuXJq0RCIZVYB+p9RqNZ544okRj4lGo/D5fENulkaSnp6OvXv34sqVK2hvb8fXvva1uJ+vqKiIOz4SieDmzZv8+sQzZ87g3XffBdA/a7Jq1Srcd999YBgGtbW1OHv2LORyOcLhMN577z2+QFEsFgPDMLBYLPx6zoyMDKxbtw55eXlgWRa/+c1v8PDDD49rcA70L0l46qmnUFtbi1/+8pcoLS3Fjh07xryEYLoKBAJx1yqRSHDkyBH+e6FQyKcHEzJdDAzQuYFTbqs1Mrw72YZuuMG82w3Q09LS+F2JuIHwgUsXOH6/f0hmQUtLy6iyDRobG9HU1DTiQGR1dTWysrIQiUTg9/vR3d2dcCJJJpPBbDYjEAjAZrPFxW3Nzc3IycmBSqWCSCSC1+uFy+VCT08PPB4Pf5xQKIRMJoNMJoNSqeRrCNAMehKjFHcynSmVSlRVVeHs2bMoKCgYMWgQiUTQ6XTQ6XS3rB7scrlw7ty5Ue/zSsh44LbuAfr76+bNmyESiZJqHTNXXfh2VFZWorKy8pbHiUQilJeX898XFBQgFApBKBQO+czitoUcaKTt55qbm/HJJ5/gnXfeQSwWw5IlS5Cbmzv2ixmloqIifPe738Xp06fx4x//GAKBAEKhEFKplN9FoLKyEiKRCF1dXfy/UCjEZzpws89+vx/RaBS5ublIT09HZ2cnGhsbEQqFIBAIUFpaivT09Am7lrFobm7mf69SqRQymQybN2/GwYMHEQqFkJqaCpvNlrAyMyHJyul0wmKxAAA/aKrT6eK26yLjy263D0lnVyqV/A4RY5VoHfr169exfPny225jIrfKEnK73bhx48YtzxMIBNDU1JTwOa/Xy28JOJJoNMrXF+jt7UVLSwukUumYM0spQCeEjFpubi7cbveQm/Q7odFosG7dOsRiMfh8PnR1daGlpYVfzxWNRmmGnYw7bvacwwXrgx+fjcbyOxhp6VZOTg727Nlz2+0oLy9HY2PjmCrfMgyDpUuXYunSpQD6MwS4NfS1tbXYt28fAPDZRUuXLoVEIoHH44Hb7ea34VMoFGAYBocPH0ZnZyfMZjMKCgqg0WgQjUbx/vvvo7u7G3K5HNFoFDKZDHq9np9dYRgGoVAILMtCr9fDYDAgNTUVGo0G3d3dsFqtyMvLGxI0ezweXL9+HRcvXoTL5eJft6qqKq5GAsuyfEXkgQXiuCUQIpEIWq0WPT09/FZrZrN5xAGVgbq7u9He3s6/D6tUKhQUFIy5kjMht4ubQS8rK0MoFEJTUxP0ev2oAi1yezo6OoYUGjUajbd9PplMxu9fD/S/p3/44YfjHqAnu2AwCKB/tn+0KECfRLR3NJkJSktLJ6RqskAggEql4m8EBwoGg+jt7UV1dfWY1/EkQlXoycC+G4lEqBJ4kikvL0d5eTmysrJw5MiR265rIRKJIBKJoFQqYTAYsGzZsjH9/OrVqxM+vmzZMn7wUCAQIBAIwG63w+PxIBqNgmVZfqDDbrejqakJ586dg8vlgtFoRFpaGh/kc5kKsVgMSqUSpaWluPvuu5GSkgKr1Yqamhq89NJLYBgGGRkZUCqVuHr1KrRaLRwOB9xuN/7H//gfAPoDaa4/WywW9PT0wGQy4a233sIHH3yAcDiML33pSygpKcG+fftw4cIFGAwGLFiwAAKBAC6XC5cvX4ZOp0NeXh60Wi1YloXNZsPhw4dhNBqxfv16mEwmPq0+Go3CZrPBarWiu7sbDocDc+fORXFx8YiDAdzAy8CBh7Hi/gaj+f82GAzOmmUPM4HD4YBWq4VWq8W5c+dQWVkJu90+pr2kydi0tbUNCdDvdL1/WloaH6CbzWZ0dnbe0fmms/Pnz4/6WArQJ9GSJUumugmE3DGRSITt27dP6npGqVTKr+Ox2Wy4efMmOjs7IRKJIJPJ4PF4hqQ4mUwmeL3euLVBQH8hvPz8fBw7duyO1mqR6W3gDf3APk0z6FMvJyeHT7vXaDRYuXIljh49mnSZNAOXASiVylEVDRxow4YNtzwmOzsb2dnZ2LRpE0KhEDo7O+F2u/FXf/VXEIvFiEajqK2t5fcWViqVfH/m1m9WVVWhuLgYarUaPp8Pb775Jn77299ix44d+D//5//A5XLh0qVLAICMjAxs2LAhYZ2ALVu2oKamBkePHkVPT09cYSSDwQCz2QyTyYTs7GycO3cOb7/9NrKyslBRUQG5XA6fz4fGxkY0NjaCYRjI5XKwLAu/3w+BQAC5XA6pVAqPxzNkAJVlWRgMBuTk5CAWi6G3txft7e1gWRZCoZBfn7xz5864AKO1tRWHDh1Ce3s7pFIpgsEgdDodLBYLjEYjP7jCZRwYDAYYjcaESxK5rAWZTAa5XJ5w8MHr9UIikdBA3zgIhUKQSqVQq9XYvn07ent7oVarb1ktndy+9vZ2LFy4MO6xOw3QU1NT+ZljhmGQmpqacK/12WAsFfwpQJ9EtAadzBRTWXAoNTUVqampiEaj/P9T0WgUfX198Hg8CAQCSE9P52d+mpub+X3jTSYTvwfomjVrcOzYsTGlz5KZY3AgzvVplUo1RS0iQH9KZFVVVdxjBoMBlZWVfBA5W0kkkiFbbwqFQpSWlvLfc4MEkUiEL8Q0sJaBQqHAV7/61bhzaLXaYTMFBispKUFJScmojmNZFh0dHbh+/TpsNhsUCgUWL16Me++9d8j9EBeoB4NBqFSqIQEuN4vf0tICoVCIiooKpKenxx3X1taGffv28TuRRCIRGAwGbN26FRaLhQ+oHQ4HOjo6+GrRMpkMkUgEjY2NOH36NHp6evgB34G/O5vNBoPBgHA4DI/HA6FQiJKSEvh8PrS3tyMSiUAul8Pj8cBsNkOr1aK2thYCgQAMwyAWi2Ht2rVYsmRJwvvBYDCITz/9FCdOnIBYLMbSpUuxbNmyuAwD7rPO5/PBYDCMeVBoOlIoFIhEIlAoFPx2lmRi2Gy2uHXjKpXqjjJcgKEB/rZt2/Dhhx/i8ccfv6PzTjdjzdqkAH0SUUotmQkikQgOHDgw5enAA29wuOrzgwuSMAyD3Nxc5ObmIhgMQigU8jdparUaGzduxPnz59He3j6pbSdTb3CKO9enB+5MQCbfvHnzEr6vFBUVoaenBx0dHVPQqumDS3E/cOAANm3aNKVtYRiG3yppNMdyO3sM93xaWtqIs3lZWVn4+te/DqD//+lYLJYwI4YrYDqwOOJwIpEI3G43IpHIkNcOBoOora2FSqVCZmZmXL9tbW2F1+vFPffcw39W+f1+HD58GM8//zxEIhHUajXS0tKg0Wj4vahXrFiB//7f/zsikQhOnz6Nn/zkJzCZTEhNTcW1a9cgFAqh1+shl8tht9vh8/kA9C+P0Gq1KC8v5+sitLW1obm5GbFYDCzLIhqNwmKxoLCwEBqNhi+KKBKJ0NPTg76+Pmg0Gmg0Gn6rVaVSeVuf816vF/v378fFixdRWVmJHTt2xA0mcLs+3KoeAvfaBw4cwJYtW8bcDjI2LMvGDYLcyfpzjkKhgFKp5Pdaz8nJQV9fX8Lt3GayxsZG5OTk4OLFi6M6nmFpg8wJ53K5oNVq4XQ66eaPkCTU29vLF0/q7e3l11KSmSs/Px8LFiwY8rjX68VHH300BS0iJpMJq1atGvb5UCiEY8eO0RrUEezYsSNuxutPf/oTZQklIZZl4XK5YLPZ4HA4RizA19jYCJfLhfLy8hGDZbvdjurqan4XhoyMDGRnZ/M/w7IsWlpa0NTUxBdEdLvdCIfDMBqN0Ol08Hg8cDgcCIfDiEQi8Pl8QyaXuACOW3LCMAy/rVQsFkNfXx9EIhE2btyI+fPn49KlS/jwww/5bRdrampw/PhxiEQi6PV6ZGRkgGEY6PV6zJ07F6FQCG+++SYKCwvxwAMPYPPmzfxrv//++/jZz34Gt9sNjUaDqqoqLFy4MC6jLxKJgGXZEX9Xfr+fH4Qg/err63HgwAH87d/+Lf/Yhg0b+OUzd+Ls2bNx1dEvXLiAhoYG7N69+47PPV28//77MJlMePHFF0cVD9IM+iRqbW0dsgctIdMNy7L8yOdoqgFPBwaDIe7r4uJi9PT04PLly/zelUKhEFlZWVCr1QiHw/B6vbDZbLSOfZoaePM2sE9za3gp42ny3WpGUyKRYM2aNfjss89oW8YEhEIhv66b688qlYoC9CTEMAxfAO1WuAr9t6LX67FixYoRXzMnJ2fIMomx4goeD1xiFgqF+M9CnU4Xd29QVVWFqqoq1NfX49ChQygsLMT3vvc9CIVC2Gw29PT0AOjfOeD1119HKBTCfffdB4vFAoVCEdefFQoFvva1ryEcDsPpdOL06dN4/vnn4wYhhEIhIpEIUlNTUVRUhIaGBvT09PAFI71eL+RyOZ9lwRGLxdBoNBCJRIhGo1CpVLBYLHxmnkwmQ3p6+oTXKeGyHyQSCVJTU4cdaGBZFm1tbejt7UVxcfFtb4UGAJ2dnfj3f/93fPOb3+QfMxqN4xKcA/1p7gMD9KqqKrz//vvYtm3bHbV7Orl58yZWrlw56uMpQJ9EFKCTmSASieDTTz/F5s2bZ3QhnLS0NGzYsIFfb5hoXSQA9PX1obq6mk+T5wqNicViCIVCCAQCuN1ufpsNkhwG3mQN7tNqtZofmCGTgyvQdStisRirV6/Gxx9/DKfTOQktmz4Grj/n+rNGo+EDIELGw+BZZ25g6FZrlQsKCobs0DJwaVpZWRnWrFkT9zy3/pzrzwqFAn19fRCLxUhNTcX27duxffv2hK/X3t6OpqYmbN++HWazGZFIBKFQaNh1+6FQCE6nk69v43a70draiuvXr4NlWfh8PlitVoRCIYjFYqSlpfHn1Gq1SEtLg1qthkwmg9vtRldXF788giuCqFKpYDAYoNVqIRaLwTAMXC4XHA4H2tvbYbVaEYvFYLFYEI1G0dPTg2AwiNzcXIhEIrS2tvIDJLFYDJmZmTAYDDh8+DCi0Sjuv/9+ZGdn89fU09ODP/3pT/x5s7KysH37dv53Ho1Gce3aNfzHf/wHnnrqqbjfzWhqTYxWouWHDzzwAF544QV85StfGdIvZhqWZREIBBIW3xwOpbhPAi7F/eDBg9i4ceNUN4cQMgGi0ShfDCgRrpBQU1MTBRZJYMGCBcjPz0/43JkzZ9Dc3DzJLZrdRvp7JGK32/HJJ58M2b1hNsvMzByyv3BdXd2o1zwSkmwqKipQVlbGf3/p0iXU1tZOYYv6hUIh9Pb28gPyDocDNpsNHo8Hfr8farUaJpMJarWa320hEAjA5XLBbrfD5XIhHA6DZVmo1WpotVpkZGTAZDINKcAbi8XQ3NwMlmVhsViGnRjp7e3F66+/Dp1OB4lEgu7ubggEAuzcuRN5eXkQCASoqanBRx99xGc7hEIhVFRUYP369XGz5TqdbtzjlQ8//JCvmcBxu9149dVX4fP5+KUT3DaVZrMZ+fn5/O/RZrPBZrPB7/cjEAigr68PLpcLJpMJ+fn5CAaD/ECERqMBwzDweDzQaDRYvnw59Ho9gP6YrKamBo2NjfD5fAgEAggGgwiHwygqKsKCBQsQi8XQ2tqKuro6tLe3QyQSYcWKFViwYEHcIEYgEEBzczPa29sRDAYRiUQglUr5JR9yuRx5eXlwOp04cOAA7rvvPjz88MOU4p5skm2LGEJuRywWg8PhgE6no4qqA9xqLZtCoUBRURGKior4WXnuw8Hj8fAf2ty+vmRiDZxBH9ynqVbI5BKJRHGzPqOh1+tRWFiYFDfryYJbwzywP8+mIkxk5lEoFHH9OVnSoSUSCdLT0/nvtVrtHS8dGI5AIBjVMgeDwYCnn34ajY2NEIlESElJGbIryWh3YZiIGe20tLQhA99qtRpPPfUUgP7MH4ZhIBQKwbIsOjs70dTUhJqaGrhcLqSlpSE1NRVmsxkymQwpKSlQq9Xo6upCQ0MDlEolVq5cCYFAAJfLBZZloVKpYLPZ8Nvf/hZer5cvRllSUsIH2zKZDFKpFEKhEDU1NTh8+DDEYjGysrKwceNGZGRkIBAI4MSJE/jNb34Tt6yR21kjKysLBoMBQqGQX+7h8XjQ3d2NgwcPorOzc8zr7SlAn0R0001mgmg0ijNnzmD9+vUUoN8msViMlJSUYdd3cRV3ufeMaDSK5uZm1NfXQyqVQq/Xw+/3o6enB0KhEGazGRqNBmKxGF6vF42NjfwexSSxgbMQg/s0BeiTKycn57a2bZwzZw46Ojr46sCzHfd+MrA/U4BOpjOFQhHXn5MlQE9mo61ZMJLxqN4+WEZGxoiZaQM/AxiGQUZGBjIyMm55XovFAovFMuzzubm5WLRo0ajaOHfuXMydO3fI4wqFAhs2bMCGDRtGdZ7BwuEwhELhmGoWUYA+iaZq32hCxpNYLKbtTiYYwzBD3i9KS0vj9jsG+gf9Eg2SlJeXo6enB36/Hw6HA42NjTRAOMjAGfTBfZoC9Mmj1WpvuzaLUChEZWUlTp48Oc6tmp64GfSB/VksFlPRQzJtyeXyuP5MAfrEk8vlw67TvxMZGRlQKBRD0txng9up10QR4ySiG2QyE8RiMdhsNqSmptIM+hQb7vfPzapzioqKcPPmTYhEIshkMoTDYQQCAYRCIb6AjVQqRTQahd/vh8fjGXGkVyqVIiMjA0ajEe3t7Whvb592a4EHfmAO7tNUyX1yaLVarF69+o6qImdlZSEtLW3WF0Lj1jwCQ/uzSqWirenItMSluHP9mQL0iZeWljYh52UYBnl5ebh27dqEnH86GMs9MwXok4gCdDITxGIxXL16FatXr6YAfZpQqVQJ9/weSSAQQCAQ4CvNejweBIPBIetaLRYLfD4furu70dfXB4lEAr1eD4FAAJ/PB5ZloVQq+Wq13P6zUqkUarUaUqkUjY2NqK+v59egicViSCQSMAwDlmURDocRCoXGbRBAo9FAKpXy3yfq01TJfWKZzWYsWbJkXLYsqqqqwqFDh6bdINF4GrhcZnB/VqvVFKCTaUcmk0EgECASifD9mVsrzFUyJ+NvcMX18ZSfn48bN27M2nhoNDuVcChAn0SU4k5mApFIhPXr1091M8gEGzgjB4ycWqhQKJCbm4vc3NwRzzncurbKyko+zXm4QR+WZeFyudDd3Q2/3w+NRsMH+EKhEH6/H263G3a7HXa7HWKxGEqlEjqdDnq9HkKhEOFwGAqFYsh2QIn6tEajgdfrRXZ2NvR6PTQaDQQCAaLRKGpqatDW1jbitZLhDa7MfKe0Wi2qqqpw8eLFWRukc+ntwND+TOvQyXTEvU8P7s8KhQJut3uqmjXjTWSALpVKkZWVhZaWlgl7jWQ2lrX9FDFOotk6YkRmllgshs7OTqSnp9MMOhk3t+pLDMNAq9VCq9UmfF4ul0Ov199WJd1EfbqsrAwLFixIWJ1/2bJlaGpq4oN0uVwOo9EIjUaDWCwGhmH42Z/Ozk50dXVBp9MhLS0NoVAILpcLjY2NcLlcY2qnUqlEQUEB5HI5GIbhBySEQiGUSiXC4TCcTif6+vqS9vOmvLx8XINzTkFBAbRaLU6dOgW/3z/u5092g2fQB/ZnCtDJdMQNCg/uzxSgTxypVDrhNVhKSkpmbYA+luUDsz5AP3bsGF588UWcO3cOnZ2dePfdd7Fr1y7+eZZl8eyzz+I3v/kNHA4HVq5ciZdffhlFRUVjfq3BszaETEexWAz19fUwmUwUoJMZIVGfHrw9zWCjyRgA+iuUDx40MJlMKCwsRFtbG3w+H5RKJQQCAZ/GL5VKEQqFUFdXB6fTibS0NOTm5sJisYBhmFu+ZigUQktLC5xOJ5RKJdRqNb9Fkdfrhd/vh0gkglAohN1uh81mQzQahUAg4DMUgP51+hkZGcjMzIRUKkVbWxu6urrg9XoTppjK5XKYTCawLAu/3w+73R63jj87Oxvl5eW3bP/tSk1NxZYtW1BfX4/a2toxVcyd7gbOoA/uz1T0kExHAwP0gf2Z1qFPnImcPedotVpkZ2fPuiBdKpXGvU/fyqwP0L1eL+bNm4dHH30U99xzz5DnX3jhBbz00kt4/fXXkZeXh+9973vYsmULrl+/Hpf+ORrz5s0br2YTMmVEIhFWr1491c0gZNxMRZ9mGGbErWGA/kGAcDg85gqwEokEhYWFCZ9TqVRxgw8ajSZuoIFlWXR0dEAgEAwZhBu4fi4YDCIWi/H/GIYZMqgRi8XQ1dWFUCgEmUw2YcWHBhKJRPxev5FIBH6/H06nEw6HAx6PB36/ny+KqFQqodFowDAM/zw3UKFWqyGXy+H3+/m6CTKZDEKhEAKBAIFAgN9XVy6XIxwOw+FwwOfzIRKJIBqN3na6PRdUS6VSBINBeL1ehMPhYY+XSqVxQcvg/qxSqfh6DoMN97hQKIRMJuMHcgbWoSBkMgxMcR/YnylAnziT8R4N9C9zamtrS9pMr4kw1q3rZn2Avm3bNmzbti3hcyzL4qc//Sn+/u//HnfffTcA4I033oDJZMJ7772H+++/f0yvNZs6Ipm5YrEYWltbYbFYaAadzAjJ3KdvZ3uWO8EwDDIzM2953MAie8MRCARIT08fj2bdFpFIBLVaDbVajaysrBGPzc7OHvfXZ1kWkUgEgUAAwWAQ0WgUsVgMEokEYrEYoVAIfr8fLMtCIBBAIpHwWxwN7IexWAw9PT2w2WwQCAQQi8WQy+WQSCT8AMhAg/uzUCjE+vXroVQqEYlEUFtbi56eHhQWFiI7OxvBYBButxs+nw/BYBApKSkJd+lgWRZdXV3o7u7mBw1kMhkUCgVfs4IL6m02G6xWK18YkmEYSKVSCAQCPktEr9dDoVCAZVnEYjH+9+XxeOD1eiEUCiEWi/mikdzzMpkMGo0GIpEI0WiU35XC7Xajp6cnLmtDKpXCaDRCq9VCpVIhEAjA4/HA5/PxmSISiYQfhAiHw/B6vXyBy4FEIhHS09MRDAb5nS5isRiEQiEUCgWkUikkEgl8Pt8dFeXjltWMRyE07vc93WozCIVCfkBwcH++VXYTuT1Go/G2lojdDqVSifz8fNTV1U3K6yUDk8k0puNnfYA+ksbGRlitVmzcuJF/TKvVYunSpThx4sSwAXowGIwbZebWGXIj4Nyb7sBKlEKhkK9gzH0tEAj4CpaJvuY2vue+FolE/AcMV5AuEonEfS0Wi/kPObFYjFgshmg0yn8di8UgEomG/ZqbFeC+TnQddE0z+5q4D8v09HRIJJIZcU0z8e9E1zT6awqFQmhvb+fXOM6Ea5qJf6fpek3c9oZjuSbuPNw1mUwmPv104HWkpaUhGo0iGo3y1xGNRtHe3g6TyQSJRMJnBHCDABUVFXHXJJVK+SyAgdfELacYeE0GgwFms/mWfyedTof8/Hw+gOWC8In+OzEMw9dg4II5bieKsfS9QCDADzAA/YF+Xl4e//fh/sv9/gZfE7cLBtcOoVCIQCCAnp4e9Pb2IhqNgmEYvmgltxRFoVDwAzSBQAB+vx8OhwOhUIhfpsL9rMfjgdvtBsuy/BaZwWAQCoUCarUaqamp0Gg0fP9wOp2w2+0IBAIIh8N8tghXw0KpVMLj8cDj8UAkEkEgEMDv98Pr9cLtdsdNMnEZJRKJBCKRiO/n3IBiLBbjr623txc9PT1wOp38zw/8u3F/Z4ZhEI1GodFosHTpUqjVav6+ua2tDUajEXK5HFlZWUhJSUFvby9aW1vR1dU17QYgkk12djaqqqr4waHJeC+vrKyEXC7nlyMNfJ+YDNz7nkQiieurNpstrpYMt9Wf2+0edutVhmEgEokglUr592ChUAiRSIRAIIBIJILU1NQhg6kjSa6pgiRjtVoBDB31MJlM/HOJPP/883wxI61Wy6cxVldXAwBu3LiBGzduAAAuX76M2tpaAMCFCxfQ2NgIADh9+jRaW1sBAMePH0dnZyeA/jXzNpsNAPDxxx/zo7QHDhzgi2Z8+OGHfIf48MMP+RH8Dz/8EADgdrtx4MABAIDD4cDHH38MALDZbDh27BgAoLOzE8ePHwcAtLa24vTp0wD6By0uXLgAAKitrcXly5fpmmbZNYlEIni9Xng8nhlzTTPx70TXNPprOn78OFasWIGenp4Zc00z8e9E1zS6a2ptbcWKFStw/vz5pLgmhmEm7e/EMAzOnDkDgUAAvV6PgwcP3tY1+Xw+1NTUYO7cuTCbzWhvb4dEIhnydzp37lzCa7p58yYMBgO6urrQ2dkJnU6Hzs5OiMVirF27FhqNBtnZ2Vi2bBm8Xi/EYjFMJhMuXLjAX9Px48cRDoeRl5eHpqYmiMViqNVqfP7553ymS01NDXJzc1FSUoKOjg4sXboUZWVluH79OlJSUuD1enHw4EE+EGltbcWCBQuQl5eHQCCAZcuWISMjAzabDTk5OVCpVIhGo1i4cCHUajXEYjE2bdqEsrIyWCwWbNq0CcXFxcjPz8fmzZuh1WqRmpqKpUuX8kH53Llz4fP5IJVKYbFY4HK5UF5eju3bt0OlUqGiogJ//dd/DblcjvXr1+OLX/wiJBIJ1q9fj927d8Pn80EsFvN/JwBYsGAB/7dxu904evQocnJyUF5eDqVSiRUrViAvLw9KpRLLly9HWVkZNBoNysvLkZOTA71ej0WLFiE7Oxtmsxk7d+5EeXk58vPz8dd//dcoKChAfn4+tm3bhpycHJSUlGDbtm1IT09HUVER1q1bh7S0NBQXF2PJkiVQqVTQ6/XIzc2FUqlEXl4e5syZA7lcjvz8fMydOxdSqRRlZWUoLS2FWCxGSUkJKisrIRaLUVZWhvT0dIjFYpjNZmRlZUEikaCqqgrl5eVQKBT8dSiVSmRlZSEtLQ1qtRpLlixBfn4+DAYDNmzYgIqKCqSnp+Ouu+5Ceno6dDodLBYLNBoNUlJSUFFRAbPZjPz8fKxZswZpaWmwWCyYO3cu9Ho95s2bhyVLluDkyZOT+h4hFAqhUqmg0WjwhS98AQsWLOD/NqWlpTCbzbjrrrtgsVhgNBqxbNkyWCwW5OTkYOPGjcjMzER2djbWrl2LzMxMVFRUYMuWLTAajSgtLcWaNWug1+tRWVmJ+fPnQ6lUoqSkBOvXr4darcbKlSuxceNGuN1uFBcXo6KiAn19fdi0aRO2b98OkUiEzZs3Y9myZfB4PNi1axfWrl0LmUyG1atX8+fcvn077rrrLqjVamzduhXz589HSkoK/uqv/gplZWUwGo3YunUrrFYrLl26hNFiWBp24jEME1ck7vjx41i5ciU6Ojri0vTuvfdeMAyDt99+O+F5Es2gWywWHD16FKtXr57y0fyZOENB1zR518SyLOrq6pCfnw+xWDwjrmkm/p3omkZ/TeFwGK2trcjJyeFHwqf7Nc3EvxNd0+iuKRaLoaWlBRaLBWKxeEZc00z8O9E1je6aGIZBY2MjLBYLZDLZjLimmfh3omu69TU5nU4YDAY4nc5bFu+kAH2AwQF6Q0MDCgoKcOHCBVRVVfHHrVmzBlVVVfjZz342qvO6XC5otVp89NFH2Lp16wS0nJDJE4lEcOHCBcyfP59/8yJkOqM+TWYS6s9kJqH+TGYKLh4cTYBOKe4jyMvLg9lsxuHDh/nHXC4XTp06heXLl4/5fPTGQmYCkUiExYsXU38mMwb1aTKTUH8mMwn1ZzIbzfoA3ePx4OLFi7h48SKA/nVEFy9eREtLCxiGwd69e/Hcc8/hj3/8I65cuYKHHnoIGRkZcXuljxaXjkHIdBaNRlFdXU39mcwY1KfJTEL9mcwk1J/JbDTrh6POnj2LdevW8d8//fTTAICHH34Yr732Gr7zne/A6/Xib/7mb+BwOHDXXXdh//79Y94DnZCZhNuehpCZgvo0mUmoP5OZhPozmW1oDfok4NYcHDx4MG7LNkIIIYQQQgghMxutQU9SlJ5DZoJoNIqrV69SfyYzBvVpMpNQfyYzCfVnMhtRgE4IIYQQQgghhCSBWb8GfTIJhcKpbgIhd0woFGLOnDlT3QxCxg31aTKTUH8mMwn1ZzIbUYA+Cbhl/i6XCy6Xa4pbQ8id4dLN5syZQ4NOZEagPk1mEurPZCah/kxmCi4GHE35NyoSNwkaGhpQUFAw1c0ghBBCCCGEEDJFWltbkZWVNeIxNIM+CfR6PQCgpaUFWq12iltDyJ1xuVywWCxobW29ZRVKQqYD6tNkJqH+TGYS6s9kpmBZFm63GxkZGbc8lgL0SSAQ9Nfi02q19OZCZgyNRkP9mcwo1KfJTEL9mcwk1J/JTDDaiVqq4k4IIYQQQgghhCQBCtAJIYQQQgghhJAkQAH6JJBKpXj22WchlUqnuimE3DHqz2SmoT5NZhLqz2Qmof5MZiOq4k4IIYQQQgghhCQBmkEnhBBCCCGEEEKSAAXohBBCCCGEEEJIEqAAnRBCCCGEEEIISQIUoBNCCCGEEEIIIUmAAvRJ8Mtf/hK5ubmQyWRYunQpTp8+PdVNIuSWfvCDH4BhmLh/paWl/POBQABPPPEEDAYDVCoVdu/eja6urilsMSF/cezYMezcuRMZGRlgGAbvvfde3PMsy+L73/8+0tPTIZfLsXHjRtTW1sYdY7fb8eCDD0Kj0UCn0+Gxxx6Dx+OZxKsgpN+t+vOePXuGvF9v3bo17hjqzyRZPP/881i8eDHUajWMRiN27dqFmpqauGNGc4/R0tKCHTt2QKFQwGg04tvf/jYikchkXgohE4IC9An29ttv4+mnn8azzz6L8+fPY968ediyZQu6u7unummE3FJFRQU6Ozv5f5999hn/3De+8Q28//77+N3vfoejR4+io6MD99xzzxS2lpC/8Hq9mDdvHn75y18mfP6FF17ASy+9hFdeeQWnTp2CUqnEli1bEAgE+GMefPBBXLt2DQcPHsQHH3yAY8eO4W/+5m8m6xII4d2qPwPA1q1b496v33rrrbjnqT+TZHH06FE88cQTOHnyJA4ePIhwOIzNmzfD6/Xyx9zqHiMajWLHjh0IhUI4fvw4Xn/9dbz22mv4/ve/PxWXRMj4YsmEWrJkCfvEE0/w30ejUTYjI4N9/vnnp7BVhNzas88+y86bNy/hcw6HgxWLxezvfvc7/rEbN26wANgTJ05MUgsJGR0A7Lvvvst/H4vFWLPZzL744ov8Yw6Hg5VKpexbb73FsizLXr9+nQXAnjlzhj/mo48+YhmGYdvb2yet7YQMNrg/syzLPvzww+zdd9897M9QfybJrLu7mwXAHj16lGXZ0d1jfPjhh6xAIGCtVit/zMsvv8xqNBo2GAxO7gUQMs5oBn0ChUIhnDt3Dhs3buQfEwgE2LhxI06cODGFLSNkdGpra5GRkYH8/Hw8+OCDaGlpAQCcO3cO4XA4rm+XlpYiOzub+jZJeo2NjbBarXH9V6vVYunSpXz/PXHiBHQ6HRYtWsQfs3HjRggEApw6dWrS20zIrRw5cgRGoxElJSX427/9W/T29vLPUX8myczpdAIA9Ho9gNHdY5w4cQKVlZUwmUz8MVu2bIHL5cK1a9cmsfWEjD8K0CeQzWZDNBqNe/MAAJPJBKvVOkWtImR0li5ditdeew379+/Hyy+/jMbGRqxatQputxtWqxUSiQQ6nS7uZ6hvk+mA66MjvTdbrVYYjca450UiEfR6PfVxknS2bt2KN954A4cPH8aPfvQjHD16FNu2bUM0GgVA/Zkkr1gshr1792LlypWYM2cOAIzqHsNqtSZ8D+eeI2Q6E011AwghyWnbtm3813PnzsXSpUuRk5ODd955B3K5fApbRgghZKD777+f/7qyshJz585FQUEBjhw5gg0bNkxhywgZ2RNPPIGrV6/G1bghZLajGfQJlJqaCqFQOKTqZFdXF8xm8xS1ipDbo9PpUFxcjLq6OpjNZoRCITgcjrhjqG+T6YDroyO9N5vN5iHFPCORCOx2O/VxkvTy8/ORmpqKuro6ANSfSXJ68skn8cEHH+CTTz5BVlYW//ho7jHMZnPC93DuOUKmMwrQJ5BEIsHChQtx+PBh/rFYLIbDhw9j+fLlU9gyQsbO4/Ggvr4e6enpWLhwIcRicVzfrqmpQUtLC/VtkvTy8vJgNpvj+q/L5cKpU6f4/rt8+XI4HA6cO3eOP+bjjz9GLBbD0qVLJ73NhIxFW1sbent7kZ6eDoD6M0kuLMviySefxLvvvouPP/4YeXl5cc+P5h5j+fLluHLlStzA08GDB6HRaFBeXj45F0LIBKEU9wn29NNP4+GHH8aiRYuwZMkS/PSnP4XX68Ujjzwy1U0jZETf+ta3sHPnTuTk5KCjowPPPvsshEIhHnjgAWi1Wjz22GN4+umnodfrodFo8Hd/93dYvnw5li1bNtVNJwQej4efPQT6C8NdvHgRer0e2dnZ2Lt3L5577jkUFRUhLy8P3/ve95CRkYFdu3YBAMrKyrB161Y8/vjjeOWVVxAOh/Hkk0/i/vvvR0ZGxhRdFZmtRurPer0e/+t//S/s3r0bZrMZ9fX1+M53voPCwkJs2bIFAPVnklyeeOIJvPnmm9i3bx/UajW/Zlyr1UIul4/qHmPz5s0oLy/HV77yFbzwwguwWq34+7//ezzxxBOQSqVTeXmE3LmpLiM/G/z85z9ns7OzWYlEwi5ZsoQ9efLkVDeJkFu677772PT0dFYikbCZmZnsfffdx9bV1fHP+/1+9utf/zqbkpLCKhQK9gtf+ALb2dk5hS0m5C8++eQTFsCQfw8//DDLsv1brX3ve99jTSYTK5VK2Q0bNrA1NTVx5+jt7WUfeOABVqVSsRqNhn3kkUdYt9s9BVdDZruR+rPP52M3b97MpqWlsWKxmM3JyWEff/zxuO2nWJb6M0keifoyAPbVV1/ljxnNPUZTUxO7bds2Vi6Xs6mpqew3v/lNNhwOT/LVEDL+GJZl2ckfFiCEEEIIIYQQQshAtAadEEIIIYQQQghJAhSgE0IIIYQQQgghSYACdEIIIYQQQgghJAlQgE4IIYQQQgghhCQBCtAJIYQQQgghhJAkQAE6IYQQQgghhBCSBChAJ4QQQgghhBBCkgAF6IQQQgghhBBCSBKgAJ0QQgghM0YoFEJhYSGOHz8+rufdv38/qqqqEIvFxvW8hBBCyEAUoBNCCCFJas+ePWAYZsi/urq6qW5a0nrllVeQl5eHFStW8I8xDIP33ntvyLF79uzBrl27RnXerVu3QiwW49///d/HqaWEEELIUBSgE0IIIUls69at6OzsjPuXl5c35LhQKDQFrUsuLMviF7/4BR577LEJOf+ePXvw0ksvTci5CSGEEIACdEIIISSpSaVSmM3muH9CoRBr167Fk08+ib179yI1NRVbtmwBAFy9ehXbtm2DSqWCyWTCV77yFdhsNv58Xq8XDz30EFQqFdLT0/HjH/8Ya9euxd69e/ljEs0463Q6vPbaa/z3ra2tuPfee6HT6aDX63H33XejqamJf56bnf6nf/onpKenw2Aw4IknnkA4HOaPCQaDeOaZZ2CxWCCVSlFYWIh/+Zd/AcuyKCwsxD/90z/FteHixYsjZhCcO3cO9fX12LFjxxh/y0BTU1PCbIW1a9fyx+zcuRNnz55FfX39mM9PCCGEjAYF6IQQQsg09frrr0MikeDzzz/HK6+8AofDgfXr12P+/Pk4e/Ys9u/fj66uLtx77738z3z729/G0aNHsW/fPhw4cABHjhzB+fPnx/S64XAYW7ZsgVqtxqefforPP/8cKpUKW7dujZvJ/+STT1BfX49PPvkEr7/+Ol577bW4IP+hhx7CW2+9hZdeegk3btzAr371K6hUKjAMg0cffRSvvvpq3Ou++uqrWL16NQoLCxO269NPP0VxcTHUavWYrgcALBZLXJbChQsXYDAYsHr1av6Y7OxsmEwmfPrpp2M+PyGEEDIaoqluACGEEEKG98EHH0ClUvHfb9u2Db/73e8AAEVFRXjhhRf455577jnMnz8fP/zhD/nH/vVf/xUWiwU3b95ERkYG/uVf/gW//e1vsWHDBgD9QX5WVtaY2vT2228jFovh//7f/wuGYQD0B886nQ5HjhzB5s2bAQApKSn4xS9+AaFQiNLSUuzYsQOHDx/G448/jps3b+Kdd97BwYMHsXHjRgBAfn4+/xp79uzB97//fZw+fRpLlixBOBzGm2++OWRWfaDm5mZkZGQkfO6BBx6AUCiMeywYDPKz7UKhEGazGQAQCASwa9cuLF++HD/4wQ/ifiYjIwPNzc1j+G0RQggho0cBOiGEEJLE1q1bh5dffpn/XqlU8l8vXLgw7thLly7hk08+iQvoOfX19fD7/QiFQli6dCn/uF6vR0lJyZjadOnSJdTV1Q2ZqQ4EAnHp3xUVFXFBcXp6Oq5cuQKgP11dKBRizZo1CV8jIyMDO3bswL/+679iyZIleP/99xEMBvGlL31p2Hb5/X7IZLKEz/3kJz/hBwI4zzzzDKLR6JBjH330Ubjdbhw8eBACQXyyoVwuh8/nG7YNhBBCyJ2gAJ0QQghJYkqlctiU7oHBOgB4PB7s3LkTP/rRj4Ycm56ePurq7wzDgGXZuMcGrh33eDxYuHBhwormaWlp/NdisXjIebltyuRy+S3b8dWvfhVf+cpX8JOf/ASvvvoq7rvvPigUimGPT01N5QcABjObzUN+j2q1Gg6HI+6x5557Dn/+859x+vTphKnydrs97hoJIYSQ8UQBOiGEEDJDLFiwAH/4wx+Qm5sLkWjoR3xBQQHEYjFOnTqF7OxsAEBfXx9u3rwZN5OdlpaGzs5O/vva2tq4WeMFCxbg7bffhtFohEajua22VlZWIhaL4ejRo0Nmtjnbt2+HUqnEyy+/jP379+PYsWMjnnP+/Pl4+eWXwbIsn3o/Fn/4wx/wv//3/8ZHH32EgoKCIc9zGQLz588f87kJIYSQ0aAicYQQQsgM8cQTT8But+OBBx7AmTNnUF9fjz//+c945JFHEI1GoVKp8Nhjj+Hb3/42Pv74Y1y9ehV79uwZksa9fv16/OIXv8CFCxdw9uxZfO1rX4ubDX/wwQeRmpqKu+++G59++ikaGxtx5MgRPPXUU2hraxtVW3Nzc/Hwww/j0UcfxXvvvcef45133uGPEQqF2LNnD7773e+iqKgIy5cvH/Gc69atg8fjwbVr18bwW+t39epVPPTQQ3jmmWdQUVEBq9UKq9UKu93OH3Py5ElIpdJbtoMQQgi5XRSgE0IIITNERkYGPv/8c0SjUWzevBmVlZXYu3cvdDodH4S/+OKLWLVqFXbu3ImNGzfirrvuGrKW/cc//jEsFgtWrVqF//Jf/gu+9a1vxaWWKxQKHDt2DNnZ2bjnnntQVlaGxx57DIFAYEwz6i+//DK++MUv4utf/zpKS0vx+OOPw+v1xh3z2GOPIRQK4ZFHHrnl+QwGA77whS8kTL2/lbNnz8Ln8+G5555Deno6/++ee+7hj3nrrbfw4IMPjphmTwghhNwJhh28yIwQQgghs8ratWtRVVWFn/70p1PdlCE+/fRTbNiwAa2trTCZTLc8/vLly9i0aRPq6+sTFsu7XTabDSUlJTh79izy8vLG7byEEELIQDSDTgghhJCkEwwG0dbWhh/84Af40pe+NKrgHADmzp2LH/3oR2hsbBzX9jQ1NeGf//mfKTgnhBAyoahIHCGEEEKSzltvvYXHHnsMVVVVeOONN8b0s3v27Bn39ixatAiLFi0a9/MSQgghA1GKOyGEEEIIIYQQkgQoxZ0QQgghhBBCCEkCFKATQgghhBBCCCFJgAJ0QgghhBBCCCEkCVCATgghhBBCCCGEJAEK0AkhhBBCCCGEkCRAATohhBBCCCGEEJIEKEAnhBBCCCGEEEKSAAXohBBCCCGEEEJIEvj/9TfElbr6U+EAAAAASUVORK5CYII=;clipPath=inset(46.59% 0.33% 0% 0.67%);" parent="1" vertex="1">
          <mxGeometry x="41" y="320" width="1010" height="319.6525369516178" as="geometry" />
        </mxCell>
        <mxCell id="kF3Sqht3dwinTs4FuCk_-3" value="" style="shape=image;aspect=fixed;image=data:image/png,iVBORw0KGgoAAAANSUhEUgAAA+gAAAJJCAYAAAA5lB0bAAAAOXRFWHRTb2Z0d2FyZQBNYXRwbG90bGliIHZlcnNpb24zLjYuMywgaHR0cHM6Ly9tYXRwbG90bGliLm9yZy/P9b71AAAACXBIWXMAAA9hAAAPYQGoP6dpAADtKUlEQVR4nOzdd3wUdf4/8Ne2bHqDFEoIvReRGhQQjIRiQbCAegIiggd6gOVQObAeYsEGio1yd2L9Wk7p0hWkIx0SCCQQlpCQZEPqlvn9wW/nssmm7Gaz5TOv5+ORB7OzszOfT/bFZt8zn5lRSZIkgYiIiIiIiIi8Su3tBhARERERERERC3QiIiIiIiIin8ACnYiIiIiIiMgHsEAnIiIiIiIi8gEs0ImIiIiIiIh8AAt0IiIiIiIiIh/AAp2IiIiIiIjIB7BAJyIiIiIiIvIBLNCJiIiIiIiIfAALdCIiIiIiIiIfwAKdiIiI6mTFihVQqVTV/vzxxx8AUOMy06ZNq7LeHTt24L777kOzZs0QEBCAiIgI9OvXDy+//DIuX77s6W4SERF5jdbbDSAiIiL/8vLLL6NVq1ZV5rdt21aevu222/Dwww9XWaZ9+/Z2j+fNm4dXXnkFrVu3xsSJE9G6dWuUlpZi//79ePvtt7Fy5UqcOXPG/Z0gIiLyQSzQiYiIyCkjRoxA7969a1ymffv2eOihh2pc5uuvv8Yrr7yC++67D//+978REBBg9/w777yDd955p97tJSIi8hcc4k5EREReMW/ePDRu3Biff/55leIcACIiIvDiiy96vmFERERewiPoRERE5JSCggLk5OTYzVOpVGjUqJH8uLS0tMoyABAeHo6AgACcPn0ap0+fxqOPPorQ0NAGbzMREZE/YIFORERETklOTq4yT6/Xo7S0VH78+eef4/PPP6+y3Jdffolx48bh5MmTAICuXbvaPS9JEnJzc+3mRUZGQqvlVxYiIhIf/9oRERGRU5YsWVLlYm8ajcbu8V133YUZM2ZUeW23bt0AAEajEQCqHD0vKChATEyM3by9e/fWes47ERGRCFigExERkVP69u1ba8HcvHlzh0fabcLCwgAA165ds5sfGhqKjRs3AgA2bNiAN998s56tJSIi8h8s0ImIiMjjOnbsCAA4evSo3XytVisX9hcuXPB4u4iIiLyJV3EnIiIij+vQoQPatWuHH3/8EUVFRd5uDhERkU9ggU5ERERe8eKLLyInJwdTpkyByWSq8rwkSV5oFRERkfdwiDsRERE5Ze3atfJV2CsaMGAAWrduDQA4ffo0/vOf/1RZJi4uDrfddhsA4IEHHsDRo0exYMEC7NmzB+PGjUOrVq1QVFSEo0eP4ssvv0RYWBiioqIatkNEREQ+QiVx9zQRERHVwYoVKzBp0qRqn1++fDkmTpwIlUpV7TKDBw/G1q1b7eZt27YNixcvxu+//46cnBwEBQWhffv2GDVqFKZNm4b4+Hh3dYGIiMinsUAnIiIiIiIi8gE8B52IiIiIiIjIB7BAJyIiIiIiIvIBLNCJiIiIiIiIfAALdCIiIiIiIiIfwAKdiIiIiIiIyAewQCciIiIiIiLyAVpvN0AJrFYrsrKyEBYWVuO9YYmIiIiIiEgskiShsLAQTZs2hVpd8zFyFugekJWVhYSEBG83g4iIiIiIiLwkMzMTzZs3r3EZFugeEBYWBgD473//i8GDB3u5NUT1Y7FYcOrUKXTo0AEajcbbzSGqN2aaRMI8k0iYZxKF0WhEQkKCXBfWhAW6B9iGtQcEBCA8PNzLrSGqH4vFgtDQUISHh/OPJQmBmSaRMM8kEuaZRFOX051ZoHsQP1hIBBqNBl27dvV2M4jchpkmkTDPJBLmmZSIV3H3IIvF4u0mENWbxWLBwYMHmWcSBjNNImGeSSTMMykRC3QiclpQUJC3m0DkVsw0iYR5JpEwz6Q0HOLuQRziTiLQaDTo2LGjt5tB5DbMNImEeSaRMM+kRDyC7kFms9nbTSCqN7PZjL179zLPJAxmmkTCPJNImGdSIhboHlSXq/YR+TqVSoWoqCjmmYTBTJNImGcSCfNMSsQh7h5UVFSEzMxMhISEICQkBHq93ttNInKaRqNB27Ztvd0MIrdhpkkkzDOJhHkmJWKB7kEHDx6E1WqVH2u1WoSEhCA4OBhBQUEIDAyEXq+HTqeDTqeDVqu1+7HNI/Ims9mMPXv2oG/fvswjCYGZJpEwzyQS5pmUiEn3oNjYWLvHZrMZBQUFKCgoqPM61Gq1XQGv0Wig0WigUqmgVqvlYt722Mb2WKPRyK9Tq9XyvIrTtmVsr1Gr1fK0SqWSf2zrtf0r6vAjSZIcznM0H/jf78L2vEi/m7KyMuTn5yMsLAz5+fkIDw9HQECAt5tF5DSr1YqLFy/iwoULuHbtGiwWC86ePYuWLVsy0+TX1Go1mjVrZvcdgMhfmUwmxMTEwGKxsEAnxVBJ1VUZ5DZGoxERERFYuXIlgoODvd0cj6mpmLf9Wzl+jopZ2zIVC96aSJLkcN2256qLvKPn3Pnfw9HvwrZN22PbDhHbzpCKbaj82srrrvxcTTsKHP3eK05Xft5iscBkMqGsrKzKtoOCgqDT6ezWUd3v3pHK73nl34mj56pbZ03vraNcVcxW5d+Bo2lHbajYh8o7rByt31F/68LR++fKjh9H7aiuPTVlrabfva0wqLyuylmsbluVf8cVf7+OXuPoM6W6bdsYjUaUlJRU6R9wPdNhYWFV+lHd76wy2/bq8rrqfseVPyMc/T4cbdM2Xd1nSG3/Nyvu3K3p/5Oj7TpqX02fOdW1x9H77Wh5R8/Z/q85eg/q0t66vMZR+xx9xlTXr4rtr+n/cnV/Oyv2vXL7Kv9OastbdZ9vlX/PlbNVuV2Ofh+O+u7M39Ta/o9V3E513zcc9ady+yq+tq7fLxz1ydE6nfkcq9jeisvX1BZbeyq/J5X7Wd32Kv/Oqnv/HC1vGxFa3WdbdZ9bFd+Tyr972zpMJhOKi4tx/vx55Obmyq+Pi4tDy5YtERQUZNfn6j4Xqut7TX9Laspobf+/Kv+uast75c+p6papSxaA/32HdPScTW3PO9qmo78hNX2PrOl3W93vUK1WQ5IkWCyWGj9Pq/tdOPpMrO7vh6PPiuraX117rVYrrFZrtX9/Km9HkiQUFBQgOjoaBQUFCA8Pd9g/G6F3Rb344ot46aWX7OZ16NABJ0+eBACUlpbiqaeewldffYWysjKkpKTgww8/RFxcnLx8RkYGHn/8cWzZsgWhoaGYMGECFixYwL14dVDbh47S1PT7sM2veAqEL9NoNLBYLACAkpKSagsdIn/BTJNIKuaZyN/Z8mwwGGAwGLzdHCKXFBcX13lZ4avMLl264Ndff5UfVyysZ82ahdWrV+Pbb79FREQEZsyYgTFjxuD3338HcP2o4ahRoxAfH4+dO3fi0qVLePjhh6HT6fDPf/7T430h8hX+siOBqK6YaRIJ80wiYZ5JaYQv0LVaLeLj46vMLygowOeff45Vq1Zh6NChAIDly5ejU6dO+OOPP9C/f39s2LABx48fx6+//oq4uDjccMMNeOWVV/D3v/8dL774otPnKZaVlSlqiDuJiyMjSDTMNImEeSaRMM+kNMJfQSQ1NRVNmzZF69at8eCDDyIjIwMAsH//fphMJiQnJ8vLduzYES1atMCuXbsAALt27UK3bt3shrynpKTAaDTi2LFj1W6zrKwMRqPR7geAvG0if8dTPEg0zDSJhHkmkTDPpDRCF+j9+vXDihUrsG7dOnz00UdIT0/HwIEDUVhYCIPBgICAAERGRtq9Ji4uTj6/xWAw2BXntudtz1VnwYIFiIiIkH8SEhIAXD+HBrC/iIPtCuqOpm0XFqg4bbu6uqNpG51OV+u0bXmVSlXttK29FadtV3p3NM0+KadPtu2J1CcR3yf2qe59slgswvWpcj/YJ+X0yWKxCNenyv1gn5TTJ4vFIlyfKk+zT8rpU10o6iru+fn5SExMxKJFixAUFIRJkyZVuSp13759MWTIECxcuBCPPfYYzp8/j/Xr18vPFxcXIyQkBGvWrMGIESMcbqesrMxuvUajEQkJCZg7dy569OjRMJ0jIiIiIiIin1NcXIwJEybU6SruQh9BrywyMhLt27dHWloa4uPjUV5ejvz8fLtlLl++LJ+zHh8fj8uXL1d53vZcdfR6PcLDw+1+iETC4WYkGmaaRMI8k0iYZ1IaRRXo165dw5kzZ9CkSRP06tULOp0OmzZtkp8/deoUMjIykJSUBABISkrCkSNHkJ2dLS+zceNGhIeHo3Pnzh5vP5Gv4O17SDTMNImEeSaRMM+kNELvknr66adxxx13IDExEVlZWZg/fz40Gg3Gjx+PiIgITJ48GbNnz0Z0dDTCw8PxxBNPICkpCf379wcADBs2DJ07d8Zf/vIXvPHGGzAYDJg7dy6mT58OvV7v5d4ReY+CzowhhWCmSSTMM4mEeSalEbpAv3DhAsaPH4/c3FzExMTg5ptvxh9//IGYmBgAwDvvvAO1Wo2xY8eirKwMKSkp+PDDD+XXazQa/PLLL3j88ceRlJSEkJAQTJgwAS+//LK3ukTkE7RaLcxms7ebQeQ2zDSJhHkmkTDPpDSKukictxiNRkRERPAicURERERERArDi8QRERERERER+RkW6ETktIr3hCQSATNNImGeSSTMMykNC3QPatmypbebQOQWJpPJ200gcitmmkTCPJNImGdSGhboHsQ9gERERERERFQdFuhE5DTubCLRMNMkEuaZRMI8k9KwQCcip3G4GYmGmSaRMM8kEuaZlIYFugfl5eV5uwlERERERETko1ige1BOTo63m0DkFhxuRqJhpkkkzDOJhHkmpWGBTkRO43AzEg0zTSJhnkkkzDMpDQt0IiIiIiIiIh/AAp2InKbVar3dBCK3YqZJJMwziYR5JqVhgU5ETjObzd5uApFbMdMkEuaZRMI8k9KwQCcip6lUKm83gcitmGkSCfNMImGeSWlYoBOR0zQajbebQORWzDSJhHkmkTDPpDQs0InIaRxuRqJhpkkkzDOJhHkmpWGBTkRO43AzEg0zTSJhnkkkzDMpDQt0DwoICPB2E4jcgsPNSDTMNImEeSaRMM+kNCzQPSgxMdHbTSByCw43I9Ew0yQS5plEwjyT0rBAJyKncbgZiYaZJpEwzyQS5pmUhgU6ETlNreZHB4mFmSaRMM8kEuaZlIaJJyKnWSwWbzeByK2YaRIJ80wiYZ5JaVige1BWVpa3m0DkFhxuRqJhpkkkzDOJhHkmpWGB7kFFRUXebgKRW3C4GYmGmSaRMM8kEuaZlIaJJyKncbgZiYaZJpEwzyQS5pmUhgU6ETmNe7NJNMw0iYR5JpEwz6Q0TDwROY3ng5FomGkSCfNMImGeSWlYoNfRkiVL0LJlSwQGBqJfv37Ys2ePt5tE5DUcbkaiYaZJJMwziYR5JqVhgV4HX3/9NWbPno358+fjwIED6NGjB1JSUpCdne3tphF5BYebkWiYaRIJ80wiYZ5JaZj4Oli0aBGmTJmCSZMmoXPnzli6dCmCg4OxbNkybzeNyCs43IxEw0yTSJhnEgnzTErDAr0W5eXl2L9/P5KTk+V5arUaycnJ2LVrl8PXlJWVwWg02v0QiYTDzUg0zDSJhHkmkTDPpDQs0GuRk5MDi8WCuLg4u/lxcXEwGAwOX7NgwQJERETIPwkJCQAAjUYD4HqBbxuuo9Foqp227TGsOK3VaqudttHpdLVO25ZXqVTVTtvaW3FarVZXO80+sU/sE/vkr31Sq9XC9alyP9gn5fTJtqxIfarcD/ZJOX1Sq9XC9anyNPuknD7VhUqSJKnOSytQVlYWmjVrhp07dyIpKUme/+yzz2Lbtm3YvXt3ldeUlZWhrKxMfmw0GpGQkIC33noLiYmJHmk3UUNSq9WwWq3ebgaR2zDTJBLmmUTCPJMIiouLMWHCBBQUFCA8PLzGZbU1Pkto3LgxNBoNLl++bDf/8uXLiI+Pd/gavV4PvV5fZX5MTEyDtJHI0/iHkkTDTJNImGcSCfNMSsMh7rUICAhAr169sGnTJnme1WrFpk2b7I6oEymJM8N0iPwBM00iYZ5JJMwzKQ2PoNfB7NmzMWHCBPTu3Rt9+/bFu+++i6KiIkyaNMnbTSPyCp4ZQ6JhpkkkzDOJhHkmpWGBXgf3338/rly5gnnz5sFgMOCGG27AunXrqlw4jkgpONyMRMNMk0iYZxIJ80xKwyHudTRjxgycP38eZWVl2L17N/r16+f0OlJTUxugZUSex+FmJBpmmkTCPJNImGdSGhboROQ0Djcj0TDTJBLmmUTCPJPSsEAnIqdxuBmJhpkmkTDPJBLmmZSGBToROY3DzUg0zDSJhHkmkTDPpDQs0InIadybTaJhpkkkzDOJhHkmpWGBTkRO4/lgJBpmmkTCPJNImGdSGhboROQ0Djcj0TDTJBLmmUTCPJPSsEAnIqdxuBmJhpkmkTDPJBLmmZSGBToROY3DzUg0zDSJhHkmkTDPpDQs0InIaVqt1ttNIHIrZppEwjyTSJhnUpp6Jd5kMsFgMKC4uBgxMTGIjo52V7uE1KxZM283gcgtLBaLt5tA5FbMNImEeSaRMM+kNE4fQS8sLMRHH32EwYMHIzw8HC1btkSnTp0QExODxMRETJkyBXv37m2Itvq94OBgbzeByC043IxEw0yTSJhnEgnzTErjVIG+aNEitGzZEsuXL0dycjJ+/PFHHDp0CKdPn8auXbswf/58mM1mDBs2DMOHD0dqampDtZuIvIjDzUg0zDSJhHkmkTDPpDROJX7v3r3Yvn07unTp4vD5vn374pFHHsHSpUuxfPly7NixA+3atXNLQ4nId3C4GYmGmSaRMM8kEuaZlMapAv3LL7+s03J6vR7Tpk1zqUEiKy4u5jB3EgKHm5FomGkSCfNMImGeSWl4FXcPunjxorebQOQWHG5GomGmSSTMM4mEeSalcTnxubm5aNSoEQAgMzMTn376KUpKSnDnnXdi4MCBbmsgEfkes9ns7SYQuRUzTSJhnkkkzDMpjdNH0I8cOYKWLVsiNjYWHTt2xKFDh9CnTx+88847+OSTTzBkyBD8+OOPDdBUIiIiIiIiInE5XaA/++yz6NatG7Zv345bbrkFt99+O0aNGoWCggLk5eVh6tSpeP311xuirUTkI3Q6nbebQORWzDSJhHkmkTDPpDROD3Hfu3cvNm/ejO7du6NHjx745JNP8Ne//hVq9fVa/4knnkD//v3d3lAi8h0mk8nbTSByK2aaRMI8k0iYZ1Iap4+gX716FfHx8QCA0NBQhISEICoqSn4+KioKhYWF7mshERERERERkQK4dBV3lUpV42MiEhuHm5FomGkSCfNMImGeSWlcuor7xIkTodfrAQClpaWYNm0aQkJCAABlZWXuax0R+SQONyPRMNMkEuaZRMI8k9I4XaBPmDDB7vFDDz1UZZmHH37Y9RYRERERERERKZDTBfry5csboh1E5Ed0Oh33aJNQmGkSCfNMImGeSWlcOgedXNOuXTtvN4HILfiHkkTDTJNImGcSCfNMSuPUEfTZs2fXedlFixY53Rh3a9myJc6fP283b8GCBZgzZ478+PDhw5g+fTr27t2LmJgYPPHEE3j22WftXvPtt9/iH//4B86dO4d27dph4cKFGDlypEf6QERERERERMrgVIF+8OBBu8cHDhyA2WxGhw4dAACnT5+GRqNBr1693NfCenr55ZcxZcoU+XFYWJg8bTQaMWzYMCQnJ2Pp0qU4cuQIHnnkEURGRuKxxx4DAOzcuRPjx4/HggULcPvtt2PVqlUYPXo0Dhw4gK5du3q8P0S+QKvVwmw2e7sZRG7DTJNImGcSCfNMSuNUgb5lyxZ5etGiRQgLC8PKlSvl+6Dn5eVh0qRJGDhwoHtbWQ9hYWHyfdsr++KLL1BeXo5ly5YhICAAXbp0waFDh7Bo0SK5QH/vvfcwfPhwPPPMMwCAV155BRs3bsTixYuxdOlSj/WDyJfwDyWJhpkmkTDPJBLmmZTG5XPQ3377bSxYsEAuzgEgKioKr776Kt5++223NM4dXn/9dTRq1Ag9e/bEm2++afeffNeuXRg0aBACAgLkeSkpKTh16hTy8vLkZZKTk+3WmZKSgl27dlW7zbKyMhiNRrsfALhy5Yo7u0bkNSqVyttNIHIrZppEwjyTSJhnUhqXC3Sj0eiw4Lxy5QoKCwvr1Sh3efLJJ/HVV19hy5YtmDp1Kv75z3/anV9uMBgQFxdn9xrbY4PBUOMytucdWbBgASIiIuSfhIQEAJB/L2q1Gmr19V+9RqOpdtr2gVRxWqvVVjtto9Ppap22La9Sqaqd1mg0VabVanW10+yTcvpUeb4IfRLxfWKf6t4n2/ZE6lPlfrBPyumTRqMRrk+V+8E+KadPGo1GuD5VnmaflNOnulBJkiTVeekKHn74YezYsQNvv/02+vbtCwDYvXs3nnnmGQwcOBArV650ZbW1mjNnDhYuXFjjMidOnEDHjh2rzF+2bBmmTp2Ka9euQa/XY9iwYWjVqhU+/vhjeZnjx4+jS5cuOH78ODp16oSAgACsXLkS48ePl5f58MMP8dJLL+Hy5csOt19WVoaysjL5sdFoREJCAubOnYsePXo422UiIiIiIiLyU8XFxZgwYQIKCgoQHh5e47JO3wfdZunSpXj66afxwAMPyLc/0Gq1mDx5Mt58801XV1urp556ChMnTqxxmdatWzuc369fP5jNZpw7dw4dOnRAfHx8lSLb9th23np1y1R3XjsA6PV66PX62rpC5LdUKhVc3LdH5JOYaRIJ80wiYZ5JaVwu0IODg/Hhhx/izTffxJkzZwAAbdq0QUhIiNsa50hMTAxiYmJceu2hQ4egVqsRGxsLAEhKSsILL7wAk8kkD1/YuHEjOnToIJ9bn5SUhE2bNmHmzJnyejZu3IikpKT6dYTIj2k0Gl60hYTCTJNImGcSCfNMSuPUOegZGRlV5oWEhKB79+7o3r17leL84sWL9WtdPezatQvvvvsu/vzzT5w9exZffPEFZs2ahYceekguvh944AEEBARg8uTJOHbsGL7++mu89957dvd7/9vf/oZ169bh7bffxsmTJ/Hiiy9i3759mDFjhre6RuR1/ENJomGmSSTMM4mEeSalcapA79OnD6ZOnYq9e/dWu0xBQQE+/fRTdO3aFf/3f/9X7wa6Sq/X46uvvsLgwYPRpUsXvPbaa5g1axY++eQTeZmIiAhs2LAB6enp6NWrF5566inMmzdPvsUaAAwYMACrVq3CJ598gh49euC7777Djz/+yHugk6LZLq5BJApmmkTCPJNImGdSGqcuEpebm4vXXnsNy5YtQ2BgIHr16oWmTZsiMDAQeXl5OH78OI4dO4Ybb7wR//jHPzBy5MiGbLvfMBqNiIiI4EXiSBgajQYWi8XbzSByG2aaRMI8k0iYZxKBMxeJc+oIeqNGjbBo0SJcunQJixcvRrt27ZCTk4PU1FQAwIMPPoj9+/dj165dLM6JBMY/lCQaZppEwjyTSJhnUhqXLhIXFBSEe+65B/fcc4+720NEfoBXVCXRMNMkEuaZRMI8k9I4dQSd6qehr3BP5ClqNT86SCzMNImEeSaRMM+kNEy8BzVt2tTbTSByCw43I9Ew0yQS5plEwjyT0rBAJyKncW82iYaZJpEwzyQS5pmUhoknIqfxlickGmaaRMI8k0iYZ1IaFuhE5DQONyPRMNMkEuaZRMI8k9K4XKAPHToUL730UpX5eXl5GDp0aL0aJarz5897uwlEbsHhZiQaZppEwjyTSJhnUhqXbrMGAFu3bsWRI0dw8OBBfPHFF/IVysvLy7Ft2za3NVAk5eXl3m4CkVtwuBmJhpkmkTDPJBLmmZSmXrukfv31VxgMBvTv3x/nzp1zU5OIyNdxuBmJhpkmkTDPJBLmmZSmXgV6kyZNsG3bNnTr1g19+vTB1q1b3dQsMZ05cwbbtm3D/v37kZqaikuXLuHatWuwWq3ebhqRUzjcjETDTJNImGcSCfNMSuPyEHfbcBO9Xo9Vq1bh1VdfxfDhw/H3v//dbY0TTW5uLuLi4pCTk4Nz587BaDSisLAQxcXFDpfXarUICAiQ/9XpdPJP5ceV56nVamg0Gmg0GqjV6lofV/5XrVZzSBE5ZDKZoFKp5JwQ+avc3Fykp6ejsLAQKpUK7du3R5MmTfjZR0RERF7jcoEuSZLd47lz56JTp06YMGFCvRslqr59+6JHjx51WlaSJJjNZphMJphMJpSXl8NsNqO8vFyeV/E5k8kEo9Eoz7NarbBYLPKP1Wq1m2ebrvxvxWWJHNFqtVCpVDCbzfLnQF0KmsqfGUTeZDabERUVhXbt2iE8PBxWqxXr1q2DwWCQd1BWznXFx7VlXtRla/qdeGrZmpbx1M4V23aqa7ej36cz70Fd5vvaerzVTle3o/TtenPbdVmuuLgYZ8+ehcVigVqthtVqRUBAADp06CBf98qV/2fu5Mz/d0+0q+K2K/7Utnxt85x5vTvW4QttcHVd1ZEkCWVlZXVe3uUCPT09HY0bN7abN3bsWHTo0AH79+93dbX0/6lUKvloOJGv0Wg0PCeM/JokSXZ/dDUaDQYMGCA/tlqt1e5Uqjy/pp1PXLb+y9a2fH1f5yrbuh31rbr+utIeZ39XAOSCxpnXeKptrq6vPuvl9vxve4GBgRg9ejR0Op38naOkpARpaWkoKSmp8f+7Jw4I1PT/H4DD/38N3a6Kbar448xr6zq/Lst54rUNsW1X2+HotRV3mphMpjq/1ukC3Wg0AgCioqJw7dq1Ks+3aNECLVq0cHa1RORHeDSc/F3lPeKVM83TN8if1VSgE/kb2+dzUFAQunXr5uXWELmmuLgYq1atqtOyThfokZGRNR7qt+0t4NE1InHxix+JhpkmkTDPJBLmmZTG6QJ9y5Yt8rQkSRg5ciQ+++wzNGvWzK0NIyLfxSHuJBpmmkTCPJNImGdSGqcL9MGDB9s91mg06N+/P1q3bu22Romq8jn7RP6KQ9xJNMw0iYR5JpEwz6Q0PMnOg6KiorzdBCK34HAzEg0zTSJhnkkkzDMpDQt0InKaRqPxdhOI3IqZJpEwzyQS5pmUxi0FuifvOUhE3se92SQaZppEwjyTSJhnUhqnz0EfM2aM3ePS0lJMmzYNISEhdvO///77+rVMQM7c/47Il/F8MBINM00iYZ5JJMwzKY3TBXpERITd44ceeshtjRHduXPn0KNHD283g6jeeEVVEg0zTSJhnkkkzDMpjdMF+vLlyxuiHUTkRzjcjETDTJNImGcSCfNMSuP0Oejz5s3D/v37G6ItROQnONyMRMNMk0iYZxIJ80xK43SBfuHCBYwYMQLNmzfH448/jrVr16K8vLwh2kZEPkqrdXrwDZFPY6ZJJMwziYR5JqVxukBftmwZDAYDvvzyS4SFhWHmzJlo3Lgxxo4di3/961+4evVqQ7Szitdeew0DBgxAcHAwIiMjHS6TkZGBUaNGITg4GLGxsXjmmWdgNpvtltm6dStuvPFG6PV6tG3bFitWrKiyniVLlqBly5YIDAxEv379sGfPngboEZH/4LlgJBpmmkTCPJNImGdSGpdus6ZWqzFw4EC88cYbOHXqFHbv3o1+/frh448/RtOmTTFo0CC89dZbuHjxorvbKysvL8e9996Lxx9/3OHzFosFo0aNQnl5OXbu3ImVK1dixYoVmDdvnrxMeno6Ro0ahSFDhuDQoUOYOXMmHn30Uaxfv15e5uuvv8bs2bMxf/58HDhwAD169EBKSgqys7MbrG9Evo7DzUg0zDSJhHkmkTDPpDQqyc2pv3LlCv773//iv//9LwYOHIinn37anauvYsWKFZg5cyby8/Pt5q9duxa33347srKyEBcXBwBYunQp/v73v+PKlSsICAjA3//+d6xevRpHjx6VXzdu3Djk5+dj3bp1AIB+/fqhT58+WLx4MYDrF6pISEjAE088gTlz5tSpjUajEREREZg7dy6v4k5C0Gq1VUajEPkzZppEwjyTSJhnEkFxcTEmTJiAgoIChIeH17is00fQDxw4gOeeew55eXkAgLlz59o9HxMTg8mTJ+Onn35q8OK8Jrt27UK3bt3k4hwAUlJSYDQacezYMXmZ5ORku9elpKRg165dAK4fpd+/f7/dMmq1GsnJyfIyjpSVlcFoNNr9EImEw81INMw0iYR5JpEwz6Q0Thfojz32GEJDQ3H33XejoKAAmzdvboh21ZvBYLArzgHIjw0GQ43LGI1GlJSUICcnBxaLxeEytnU4smDBAkRERMg/CQkJAK7fxxG4XuSr1Wp5XnXTKpWqyrRWq6122kan09U6bVtepVJVO21rb8VptVpd7TT7pJw+VZ4vQp9EfJ/Yp7r3SZIk4fpUuR/sk3L6JEmScH2q3A/2STl9kiRJuD5VnmaflNOnunD6soiBgYF44YUXMGzYMEyePNmt54XMmTMHCxcurHGZEydOoGPHjm7bZkN47rnnMHv2bPmx0WhEQkKCvAew4v0cK+4VrMt0xSE+1U2bTKZap23LS5JU7bRtuxWnK7a9umn2Sfw+2bYnUp9EfJ/Yp7r3yTaEUqQ+Ve4H+6ScPlUeEixCn2qaZp/E7pNWqxWuT5Wn2Sfx++TMSBCnC/SgoCAAQJ8+fTBixIhqL9LmiqeeegoTJ06scZnWrVvXaV3x8fFVrrZ++fJl+Tnbv7Z5FZcJDw9HUFAQNBoNNBqNw2Vs63BEr9dDr9dXmd+iRYs6tZ3I1/FcMBINM00iYZ5JJMwzKY3TBfqrr74qH22YPHkyGjVq5LbGxMTEICYmxi3rSkpKwmuvvYbs7GzExsYCADZu3Ijw8HB07txZXmbNmjV2r9u4cSOSkpIAAAEBAejVqxc2bdqE0aNHA7i+B2TTpk2YMWOG021yVLQTERERERERAS6cgx4SEmI3Xt9WuHpaRkYGDh06hIyMDFgsFhw6dAiHDh3CtWvXAADDhg1D586d8Ze//AV//vkn1q9fj7lz52L69OlyoTxt2jScPXsWzz77LE6ePIkPP/wQ33zzDWbNmiVvZ/bs2fj000+xcuVKnDhxAo8//jiKioowadIkr/SbyBdUPB+HSATMNImEeSaRMM+kNE4fQe/evTv69OmDRx99FOPGjUNYWFhDtKtW8+bNw8qVK+XHPXv2BABs2bIFt9xyCzQaDX755Rc8/vjjSEpKQkhICCZMmICXX35Zfk2rVq2wevVqzJo1C++99x6aN2+Ozz77DCkpKfIy999/P65cuYJ58+bBYDDghhtuwLp166pcOI5ISSqej0MkAmaaRMI8k0iYZ1Iap++DvmPHDixfvhzfffcdrFYrxo4di0cffRQDBw5sqDb6Pdt90N9//300adLE280hIiIiIiIiD2nQ+6APHDgQy5Ytw6VLl/DBBx/g3LlzGDx4MNq3b4+FCxfWePsxpcvOzvZ2E4jcgsPNSDTMNImEeSaRMM+kNE4X6DYhISGYNGkStm3bhtOnT+Pee+/FkiVL0KJFC9x5553ubCMR+RgONyPRMNMkEuaZRMI8k9K4XKBX1LZtWzz//POYO3cuwsLCsHr1anesloiIiIiIiEgx6l2gb9++HRMnTkR8fDyeeeYZjBkzBr///rs72kZEPorDzUg0zDSJhHkmkTDPpDROX8UdALKysrBixQqsWLECaWlpGDBgAN5//33cd999CAkJcXcbicjHcLgZiYaZJpEwzyQS5pmUxukCfcSIEfj111/RuHFjPPzww3jkkUfQoUOHhmgbERERERERkWI4XaDrdDp89913uP3226HRaKo8f+XKFfz6668YP368WxpIRL5Hq9XCbDZ7uxlEbsNMk0iYZxIJ80xK43SB/t///hcA8PLLLzt8/syZM/j+++9ZoBMJjH8oSTTMNImEeSaRMM+kNC6dgw4AP/zwg91ji8WCzMxMGI1GvPrqq/VuGBH5LpVKBUmSvN0MIrdhpkkkzDOJhHkmpXG5QD948GCVeWazGTNnzsSxY8fq1ShRabUu/7qJfIpGo+EebRIKM00iYZ5JJMwzKY1bK0atVouZM2eie/fu7lytMFq1auXtJhC5Bf9QkmiYaRIJ80wiYZ5Jaep9H/TKzp8/z0KUSHAqlcrbTSByK2aaRMI8k0iYZ1Ial4+gv//++1XmXb58GcuWLcMdd9xh9/yTTz7p6maIyAdxuBmJhpkmkTDPJBLmmZRGJbl41YW6HiVXqVQ4e/asK5sQhtFoREREBFauXIng4GBvN4eIiIiIiIg8pLi4GBMmTEBBQQHCw8NrXNblI+jp6emuvlSxDAYDWrdu7e1mENUbr6hKomGmSSTMM4mEeSalcfs56FS9wsJCbzeByC3Uan50kFiYaRIJ80wiYZ5JaZh4InKaxWLxdhOI3IqZJpEwzyQS5pmUhgU6ETmNV1Ql0TDTJBLmmUTCPJPSsEAnIqdxuBmJhpkmkTDPJBLmmZSGiScip3G4GYmGmSaRMM8kEuaZlIYFOhE5jXuzSTTMNImEeSaRMM+kNEw8ETmN54ORaJhpEgnzTCJhnklpWKATkdM43IxEw0yTSJhnEgnzTErDAp2InMbhZiQaZppEwjyTSJhnUhom3oPCw8O93QQit+BwMxINM00iYZ5JJMwzKY3fFuivvfYaBgwYgODgYERGRjpcRqVSVfn56quv7JbZunUrbrzxRuj1erRt2xYrVqyosp4lS5agZcuWCAwMRL9+/bBnzx6X2hwXF+fS64h8DYebkWiYaRIJ80wiYZ5Jafy2QC8vL8e9996Lxx9/vMblli9fjkuXLsk/o0ePlp9LT0/HqFGjMGTIEBw6dAgzZ87Eo48+ivXr18vLfP3115g9ezbmz5+PAwcOoEePHkhJSUF2dnZDdY3I53G4GYmGmSaRMM8kEuaZlEbr7Qa46qWXXgIAh0e8K4qMjER8fLzD55YuXYpWrVrh7bffBgB06tQJv/32G9555x2kpKQAABYtWoQpU6Zg0qRJ8mtWr16NZcuWYc6cOW7qDRERERERESmd8Lukpk+fjsaNG6Nv375YtmwZJEmSn9u1axeSk5Ptlk9JScGuXbsAXD9Kv3//frtl1Go1kpOT5WUcKSsrg9FotPshEonVavV2E4jcipkmkTDPJBLmmZRG6AL95ZdfxjfffIONGzdi7Nix+Otf/4oPPvhAft5gMFQ5LzwuLg5GoxElJSXIycmBxWJxuIzBYKh2uwsWLEBERIT8k5CQAAA4d+4cgOtFvm24jkajqXbadlGMitNarbbaaRudTlfrtG15lUpV7bRGo6kyrVarq51mn9gn9ol98tc+2bYnUp8q94N9Uk6fNBqNcH2q3A/2STl90mg0wvWp8jT7pJw+1YVKqnhI2cvmzJmDhQsX1rjMiRMn0LFjR/nxihUrMHPmTOTn59e6/nnz5mH58uXIzMwEALRv3x6TJk3Cc889Jy+zZs0ajBo1CsXFxcjLy0OzZs2wc+dOJCUlycs8++yz2LZtG3bv3u1wO2VlZSgrK5MfG41GJCQkYO7cuejRo0et7STydWq1mnu0SSjMNImEeSaRMM8kguLiYkyYMAEFBQW13tnLp85Bf+qppzBx4sQal2ndurXL6+/Xrx9eeeUVlJWVQa/XIz4+HpcvX7Zb5vLlywgPD0dQUJC8B9rRMtWd1w4Aer0eer3e5XYS+Tr+oSTRMNMkEuaZRMI8k9L4VIEeExODmJiYBlv/oUOHEBUVJRfPSUlJWLNmjd0yGzdulI+WBwQEoFevXti0aZN89Xer1YpNmzZhxowZDdZOIl+n0Wh42xMSCjNNImGeSSTMMymNTxXozsjIyMDVq1eRkZEBi8WCQ4cOAQDatm2L0NBQ/Pzzz7h8+TL69++PwMBAbNy4Ef/85z/x9NNPy+uYNm0aFi9ejGeffRaPPPIINm/ejG+++QarV6+Wl5k9ezYmTJiA3r17o2/fvnj33XdRVFQkX9WdSIl86MwYIrdgpkkkzDOJhHkmpfHbAn3evHlYuXKl/Lhnz54AgC1btuCWW26BTqfDkiVLMGvWLEiShLZt28q3TLNp1aoVVq9ejVmzZuG9995D8+bN8dlnn8m3WAOA+++/H1euXMG8efNgMBhwww03YN26dVUuHEekJBxuRqJhpkkkzDOJhHkmpfGpi8SJymg0IiIigheJI2FwuBmJhpkmkTDPJBLmmUTgzEXihL7NGhE1DO7NJtEw0yQS5plEwjyT0rBAJyKnceANiYaZJpEwzyQS5pmUhgU6ETlNo9F4uwlEbsVMk0iYZxIJ80xKwwLdg5o0aeLtJhC5BYebkWiYaRIJ80wiYZ5JaVige1BoaKi3m0DkFhxuRqJhpkkkzDOJhHkmpWGBTkRO02r99g6NRA4x0yQS5plEwjyT0rBAJyKn8XYnJBpmmkTCPJNImGdSGhboHlRaWurtJhC5BYebkWiYaRIJ80wiYZ5JaVige1BmZqa3m0DkFhxuRqJhpkkkzDOJhHkmpWGBTkRO43AzEg0zTSJhnkkkzDMpDQt0InIah5uRaJhpEgnzTCJhnklpWKATkdM43IxEw0yTSJhnEgnzTErDAp2InGY2m73dBCK3YqZJJMwziYR5JqVhgU5ERERERETkA1igE5HTdDqdt5tA5FbMNImEeSaRMM+kNCzQichpJpPJ200gcitmmkTCPJNImGdSGhboRERERERERD6ABToROY3DzUg0zDSJhHkmkTDPpDQs0D2odevW3m4CkVtwuBmJhpkmkTDPJBLmmZSGBboHaTQabzeBiIiIiIiIfBQLdCJyGoebkWiYaRIJ80wiYZ5JaVigE5HTONyMRMNMk0iYZxIJ80xKwwLdg3Jzc73dBCIiIiIiIvJRLNA96OrVq95uApFbaLVabzeByK2YaRIJ80wiYZ5JaVigE5HTzGazt5tA5FbMNImEeSaRMM+kNCzQichpKpXK200gcitmmkTCPJNImGdSGr8s0M+dO4fJkyejVatWCAoKQps2bTB//nyUl5fbLXf48GEMHDgQgYGBSEhIwBtvvFFlXd9++y06duyIwMBAdOvWDWvWrLF7XpIkzJs3D02aNEFQUBCSk5ORmpraoP0j8nW8ZSCJhpkmkTDPJBLmmZTGLwv0kydPwmq14uOPP8axY8fwzjvvYOnSpXj++eflZYxGI4YNG4bExETs378fb775Jl588UV88skn8jI7d+7E+PHjMXnyZBw8eBCjR4/G6NGjcfToUXmZN954A++//z6WLl2K3bt3IyQkBCkpKSgtLfVon4l8CYebkWiYaRIJ80wiYZ5JaVSSJEneboQ7vPnmm/joo49w9uxZAMBHH32EF154AQaDAQEBAQCAOXPm4Mcff8TJkycBAPfffz+Kiorwyy+/yOvp378/brjhBixduhSSJKFp06Z46qmn8PTTTwMACgoKEBcXhxUrVmDcuHF1apvRaERERATmzp2LHj16uLPbRF6hUqkgyEcHEQBmmsTCPJNImGcSQXFxMSZMmICCggKEh4fXuKxfHkF3pKCgANHR0fLjXbt2YdCgQXJxDgApKSk4deoU8vLy5GWSk5Pt1pOSkoJdu3YBANLT02EwGOyWiYiIQL9+/eRlHCkrK4PRaLT7IRIJh5uRaJhpEgnzTCJhnklphCjQ09LS8MEHH2Dq1KnyPIPBgLi4OLvlbI8NBkONy1R8vuLrHC3jyIIFCxARESH/JCQkAPjfB4xarYZarZbnVTdtuyhGxWmtVlvttI1Op6t12ra8SqWqdtrW3orTarW62mn2STl9sm1PpD6J+D6xT3Xvk9lsFq5PlfvBPimnT2azWbg+Ve4H+6ScPpnNZuH6VHmafVJOn+rCp24sOGfOHCxcuLDGZU6cOIGOHTvKjy9evIjhw4fj3nvvxZQpUxq6iXXy3HPPYfbs2fJjo9GIhIQEWCwWAIDVapWfs82r63TF83CqmzaZTLVO25aXJKnaadt2K05XbHt10+yT+H2yWCzycDNR+iTi+8Q+1b1PKpVKuD5V7gf7pJw+qVQq4fpU0zT7JHafVCqVcH2qPM0+id+niu2pjU8V6E899RQmTpxY4zKtW7eWp7OysjBkyBAMGDDA7uJvABAfH4/Lly/bzbM9jo+Pr3GZis/b5jVp0sRumRtuuKHaNur1euj1+irzAwMDa+wbkb9Qq9VOfdAQ+TpmmkTCPJNImGdSGp8q0GNiYhATE1OnZS9evIghQ4agV69eWL58uTy0wSYpKQkvvPACTCaTPDRh48aN6NChA6KiouRlNm3ahJkzZ8qv27hxI5KSkgAArVq1Qnx8PDZt2iQX5EajEbt378bjjz/udP9sQ92J/B3/UJJomGkSCfNMImGeSWn88hz0ixcv4pZbbkGLFi3w1ltv4cqVKzAYDHbnhT/wwAMICAjA5MmTcezYMXz99dd477337Iae/+1vf8O6devw9ttv4+TJk3jxxRexb98+zJgxA8D1ITUzZ87Eq6++iv/+9784cuQIHn74YTRt2hSjR4/2dLeJfEbFc9GJRMBMk0iYZxIJ80xK41NH0Otq48aNSEtLQ1paGpo3b273nO282IiICGzYsAHTp09Hr1690LhxY8ybNw+PPfaYvOyAAQOwatUqzJ07F88//zzatWuHH3/8EV27dpWXefbZZ1FUVITHHnsM+fn5uPnmm7Fu3ToOVydF43AzEg0zTSJhnkkkzDMpjTD3QfdltvugHzlyBJGRkbBYLHY/tgsHWK1WWK1WSJIESZLspis/rjgN/G/HhG1+ZRWXc/S6ivMdPVd5PZWnq1N5GW/HzZm9sO7eY+vs78vbv6vKbFeptF2p0nbxC7PZ7HNtJaqNWq1GUFAQ9Hq9fGXV0tJSlJaWMtNERD7CdppqxQtxEfkjZ+6D7pdH0P1Vfn6+3dF5Ik9wR6FRcWeFxWJBeno6WrVqJRc2ddlG5R0errbL34e6ebPwq8+2K762Lu9B5W058/47Wn9tbXe2fWq1Wl7OUaZrOlrjjvfQ2XW48v/H13cyuNI+22tqe48lSXLqs6K69br7d1hdTt25HavVioyMDLRo0cKlz0tX/n/b5tXlfaluG+78HdQ1Jw3ZBle24UwmqlvW2ezXZVvObN/R8xWXqcv/MdvtqQIDAyFJkvz5DAAlJSXy1byd+R3VtD13c2Ybrv5/c8eyzq7P1e9fzn6+uuuzsa7rqUt+Ky9X18+6igoLC2t8TUUs0D3o2rVr3m4CKVBDjATIy8tDy5Yt67UNfy+0XeXNfiv1d14bR5l25n6lRL7EbDbj2rVr0Ov1dvf4JfJHZrNZ/nzWarUIDQ31dpOIXFLxfuq14RB3D7ANcd+4cSOSk5O93RwiIiIiIiLyEFs9WJch7n55FXd/xQtckAgsFgtOnjzJPJMwmGkSCfNMImGeSYlYoBOR00pKSrzdBCK3YqZJJMwziYR5JqXhyUkexHMaSQQajQY9e/b0djOI3IaZJpEwzyQS5pmUiEfQPYjDc0gEFosFR48eZZ5JGMw0iYR5JpEwz6RELNCJiIiIiIiIfACHuHsQh7iTCDQaDbp27ertZhC5DTNNImGeSSTMMykRC3QPsN3Jzmg0wmg0erk1RPVjG27WtWtX7nQiITDTJBLmmUTCPJMobDVgXe5wzvuge8DZs2fRpk0bbzeDiIiIiIiIvCQzMxPNmzevcRkeQfeA6OhoAEBGRgYiIiK83Bqi+jEajUhISEBmZibCw8O93RyiemOmSSTMM4mEeSZRSJKEwsJCNG3atNZlWaB7gFp9/Vp8ERER/HAhYYSHhzPPJBRmmkTCPJNImGcSQV0P1PIq7kREREREREQ+gAU6ERERERERkQ9gge4Ber0e8+fPh16v93ZTiOqNeSbRMNMkEuaZRMI8kxLxKu5EREREREREPoBH0ImIiIiIiIh8AAt0IiIiIiIiIh/AAp2IiIiIiIjIB7BAJyIiIiIiIvIBLNA9YMmSJWjZsiUCAwPRr18/7Nmzx9tNIqrViy++CJVKZffTsWNH+fnS0lJMnz4djRo1QmhoKMaOHYvLly97scVE/7N9+3bccccdaNq0KVQqFX788Ue75yVJwrx589CkSRMEBQUhOTkZqampdstcvXoVDz74IMLDwxEZGYnJkyfj2rVrHuwF0XW15XnixIlVPq+HDx9utwzzTL5iwYIF6NOnD8LCwhAbG4vRo0fj1KlTdsvU5TtGRkYGRo0aheDgYMTGxuKZZ56B2Wz2ZFeIGgQL9Ab29ddfY/bs2Zg/fz4OHDiAHj16ICUlBdnZ2d5uGlGtunTpgkuXLsk/v/32m/zcrFmz8PPPP+Pbb7/Ftm3bkJWVhTFjxnixtUT/U1RUhB49emDJkiUOn3/jjTfw/vvvY+nSpdi9ezdCQkKQkpKC0tJSeZkHH3wQx44dw8aNG/HLL79g+/bteOyxxzzVBSJZbXkGgOHDh9t9Xn/55Zd2zzPP5Cu2bduG6dOn448//sDGjRthMpkwbNgwFBUVycvU9h3DYrFg1KhRKC8vx86dO7Fy5UqsWLEC8+bN80aXiNxLogbVt29fafr06fJji8UiNW3aVFqwYIEXW0VUu/nz50s9evRw+Fx+fr6k0+mkb7/9Vp534sQJCYC0a9cuD7WQqG4ASD/88IP82Gq1SvHx8dKbb74pz8vPz5f0er305ZdfSpIkScePH5cASHv37pWXWbt2raRSqaSLFy96rO1ElVXOsyRJ0oQJE6S77rqr2tcwz+TLsrOzJQDStm3bJEmq23eMNWvWSGq1WjIYDPIyH330kRQeHi6VlZV5tgNEbsYj6A2ovLwc+/fvR3JysjxPrVYjOTkZu3bt8mLLiOomNTUVTZs2RevWrfHggw8iIyMDALB//36YTCa7bHfs2BEtWrRgtsnnpaenw2Aw2OU3IiIC/fr1k/O7a9cuREZGonfv3vIyycnJUKvV2L17t8fbTFSbrVu3IjY2Fh06dMDjjz+O3Nxc+TnmmXxZQUEBACA6OhpA3b5j7Nq1C926dUNcXJy8TEpKCoxGI44dO+bB1hO5Hwv0BpSTkwOLxWL34QEAcXFxMBgMXmoVUd3069cPK1aswLp16/DRRx8hPT0dAwcORGFhIQwGAwICAhAZGWn3Gmab/IEtozV9NhsMBsTGxto9r9VqER0dzYyTzxk+fDj+9a9/YdOmTVi4cCG2bduGESNGwGKxAGCeyXdZrVbMnDkTN910E7p27QoAdfqOYTAYHH6G254j8mdabzeAiHzTiBEj5Onu3bujX79+SExMxDfffIOgoCAvtoyIiCoaN26cPN2tWzd0794dbdq0wdatW3Hrrbd6sWVENZs+fTqOHj1qd40bIqXjEfQG1LhxY2g0mipXnbx8+TLi4+O91Coi10RGRqJ9+/ZIS0tDfHw8ysvLkZ+fb7cMs03+wJbRmj6b4+Pjq1zM02w24+rVq8w4+bzWrVujcePGSEtLA8A8k2+aMWMGfvnlF2zZsgXNmzeX59flO0Z8fLzDz3Dbc0T+jAV6AwoICECvXr2wadMmeZ7VasWmTZuQlJTkxZYROe/atWs4c+YMmjRpgl69ekGn09ll+9SpU8jIyGC2yee1atUK8fHxdvk1Go3YvXu3nN+kpCTk5+dj//798jKbN2+G1WpFv379PN5mImdcuHABubm5aNKkCQDmmXyLJEmYMWMGfvjhB2zevBmtWrWye74u3zGSkpJw5MgRux1PGzduRHh4ODp37uyZjhA1EA5xb2CzZ8/GhAkT0Lt3b/Tt2xfvvvsuioqKMGnSJG83jahGTz/9NO644w4kJiYiKysL8+fPh0ajwfjx4xEREYHJkydj9uzZiI6ORnh4OJ544gkkJSWhf//+3m46Ea5duyYfPQSuXxju0KFDiI6ORosWLTBz5ky8+uqraNeuHVq1aoV//OMfaNq0KUaPHg0A6NSpE4YPH44pU6Zg6dKlMJlMmDFjBsaNG4emTZt6qVekVDXlOTo6Gi+99BLGjh2L+Ph4nDlzBs8++yzatm2LlJQUAMwz+Zbp06dj1apV+OmnnxAWFiafMx4REYGgoKA6fccYNmwYOnfujL/85S944403YDAYMHfuXEyfPh16vd6b3SOqP29fRl4JPvjgA6lFixZSQECA1LdvX+mPP/7wdpOIanX//fdLTZo0kQICAqRmzZpJ999/v5SWliY/X1JSIv31r3+VoqKipODgYOnuu++WLl265MUWE/3Pli1bJABVfiZMmCBJ0vVbrf3jH/+Q4uLiJL1eL916663SqVOn7NaRm5srjR8/XgoNDZXCw8OlSZMmSYWFhV7oDSldTXkuLi6Whg0bJsXExEg6nU5KTEyUpkyZYnf7KUlinsl3OMoyAGn58uXyMnX5jnHu3DlpxIgRUlBQkNS4cWPpqaeekkwmk4d7Q+R+KkmSJM/vFiAiIiIiIiKiingOOhEREREREZEPYIFORERERERE5ANYoBMRERERERH5ABboRERERERERD6ABToRERERERGRD2CBTkREREREROQDWKATERERERER+QAW6EREREREREQ+gAU6ERERERERkQ9ggU5ERERERETkA1igExEREREREfkAFuhEREREREREPoAFOhEREREREZEPYIFORERERERE5ANYoBMRERERERH5ABboRERERERERD6ABToRERERERGRD2CBTkREREREROQDWKATERERERER+QAW6EREREREREQ+gAU6ERERERERkQ9ggU5ERERERETkA1igExEREREREfkAFuhEREQesGLFCqhUKqhUKvz2229VnpckCQkJCVCpVLj99tu90ELXrVq1Cu+++663m1Ena9aswYsvvujtZhARETnEAp2IiMiDAgMDsWrVqirzt23bhgsXLkCv13uhVfXjbwX6Sy+95O1mEBEROcQCnYiIyINGjhyJb7/9Fmaz2W7+qlWr0KtXL8THx3upZeQqSZJQUlLi7WYQEZEAWKATERF50Pjx45Gbm4uNGzfK88rLy/Hdd9/hgQceqLL8W2+9hQEDBqBRo0YICgpCr1698N1331VZrqSkBE8++SQaN26MsLAw3Hnnnbh48SJUKpXdkO4XX3wRKpUKaWlpmDhxIiIjIxEREYFJkyahuLi4ynr/85//oFevXggKCkJ0dDTGjRuHzMxM+flbbrkFq1evxvnz5+Uh/C1btpSfz87OxuTJkxEXF4fAwED06NEDK1eutNvGuXPnoFKp8NZbb2HJkiVo3bo1goODMWzYMGRmZkKSJLzyyito3rw5goKCcNddd+Hq1atV2rp27VoMHDgQISEhCAsLw6hRo3Ds2DH5+YkTJ2LJkiUAILdVpVLJz1utVrz77rvo0qULAgMDERcXh6lTpyIvL89uOy1btsTtt9+O9evXo3fv3ggKCsLHH38MANi4cSNuvvlmREZGIjQ0FB06dMDzzz9fpa1ERESOaL3dACIiIiVp2bIlkpKS8OWXX2LEiBEArheWBQUFGDduHN5//3275d977z3ceeedePDBB1FeXo6vvvoK9957L3755ReMGjVKXm7ixIn45ptv8Je//AX9+/fHtm3b7J6v7L777kOrVq2wYMECHDhwAJ999hliY2OxcOFCeZnXXnsN//jHP3Dffffh0UcfxZUrV/DBBx9g0KBBOHjwICIjI/HCCy+goKAAFy5cwDvvvAMACA0NBXB9p8Ett9yCtLQ0zJgxA61atcK3336LiRMnIj8/H3/729/s2vTFF1+gvLwcTzzxBK5evYo33ngD9913H4YOHYqtW7fi73//O9LS0vDBBx/g6aefxrJly+TX/vvf/8aECROQkpKChQsXori4GB999BFuvvlmHDx4EC1btsTUqVORlZWFjRs34t///neV38nUqVOxYsUKTJo0CU8++STS09OxePFiHDx4EL///jt0Op287KlTpzB+/HhMnToVU6ZMQYcOHXDs2DHcfvvt6N69O15++WXo9XqkpaXh999/rzUXREREAACJiIiIGtzy5cslANLevXulxYsXS2FhYVJxcbEkSZJ07733SkOGDJEkSZISExOlUaNGya+zLWNTXl4ude3aVRo6dKg8b//+/RIAaebMmXbLTpw4UQIgzZ8/X543f/58CYD0yCOP2C179913S40aNZIfnzt3TtJoNNJrr71mt9yRI0ckrVZrN3/UqFFSYmJilT6/++67EgDpP//5j137k5KSpNDQUMloNEqSJEnp6ekSACkmJkbKz8+Xl33uueckAFKPHj0kk8kkzx8/frwUEBAglZaWSpIkSYWFhVJkZKQ0ZcoUu+0bDAYpIiLCbv706dMlR19/duzYIQGQvvjiC7v569atqzI/MTFRAiCtW7fObtl33nlHAiBduXKlyvqJiIjqgkPciYiIPOy+++5DSUkJfvnlFxQWFuKXX35xOLwdAIKCguTpvLw8FBQUYODAgThw4IA8f926dQCAv/71r3avfeKJJ6ptw7Rp0+weDxw4ELm5uTAajQCA77//HlarFffddx9ycnLkn/j4eLRr1w5btmyptZ9r1qxBfHw8xo8fL8/T6XR48sknce3aNWzbts1u+XvvvRcRERHy4379+gEAHnroIWi1Wrv55eXluHjxIoDrw8rz8/Mxfvx4u7ZqNBr069evTm399ttvERERgdtuu81uHb169UJoaGiVdbRq1QopKSl28yIjIwEAP/30E6xWa63bJCIiqoxD3ImIiDwsJiYGycnJWLVqFYqLi2GxWHDPPfc4XPaXX37Bq6++ikOHDqGsrEyeX/Hc6fPnz0OtVqNVq1Z2r23btm21bWjRooXd46ioKADXdwKEh4cjNTUVkiShXbt2Dl9fcbh3dc6fP4927dpBrbY/HtCpUyf5+ZraZCvWExISHM63nRuempoKABg6dKjDdoSHh9fa1tTUVBQUFCA2Ntbh89nZ2XaPK/+uAeD+++/HZ599hkcffRRz5szBrbfeijFjxuCee+6p8jsgIiJyhAU6ERGRFzzwwAOYMmUKDAYDRowYIR99rWjHjh248847MWjQIHz44Ydo0qQJdDodli9f7vBWbc7QaDQO50uSBOD6BdNUKhXWrl3rcFnbeebuVF2b6tJW4Pp56I6ugl/x6Ht1rFYrYmNj8cUXXzh8PiYmxu5xxZENFedt374dW7ZswerVq7Fu3Tp8/fXXGDp0KDZs2FBtP4iIiGxYoBMREXnB3XffjalTp+KPP/7A119/7XCZ//u//0NgYCDWr19vd3/05cuX2y2XmJgIq9WK9PR0uyPeaWlpLrevTZs2kCQJrVq1Qvv27WtctuLR/MrtOnz4MKxWq90R5JMnT8rPu0ObNm0AALGxsUhOTnaprW3atMGvv/6Km266yWHxXVdqtRq33norbr31VixatAj//Oc/8cILL2DLli21to2IiIjjrYiIiLwgNDQUH330EV588UXccccdDpfRaDRQqVSwWCzyvHPnzuHHH3+0W852LvSHH35oN/+DDz5wuX1jxoyBRqPBSy+9JB+ptpEkCbm5ufLjkJAQFBQUVFnHyJEjYTAY7HZAmM1mfPDBBwgNDcXgwYNdbl9FKSkpCA8Pxz//+U+YTKYqz1+5csWurQCQn59vt8x9990Hi8WCV155pcrrzWZzleUdcXTrtxtuuAEA7E5PICIiqg6PoBMREXnJhAkTanx+1KhRWLRoEYYPH44HHngA2dnZWLJkCdq2bYvDhw/Ly/Xq1Qtjx47Fu+++i9zcXPk2a6dPnwZQ/VHjmrRp0wavvvoqnnvuOZw7dw6jR49GWFgY0tPT8cMPP+Cxxx7D008/LW//66+/xuzZs9GnTx+EhobijjvuwGOPPYaPP/4YEydOxP79+9GyZUt89913+P333/Huu+8iLCzM6XY5Eh4ejo8++gh/+ctfcOONN2LcuHGIiYlBRkYGVq9ejZtuugmLFy+W2woATz75JFJSUqDRaDBu3DgMHjwYU6dOxYIFC3Do0CEMGzYMOp0Oqamp+Pbbb/Hee+9Ve50Am5dffhnbt2/HqFGjkJiYiOzsbHz44Ydo3rw5br75Zrf0lYiIxMYCnYiIyEcNHToUn3/+OV5//XXMnDkTrVq1wsKFC3Hu3Dm7Ah0A/vWvfyE+Ph5ffvklfvjhByQnJ+Prr79Ghw4dEBgY6NL258yZg/bt2+Odd97BSy+9BOD6BduGDRuGO++8U17ur3/9Kw4dOoTly5fjnXfeQWJiIu644w4EBQVh69atmDNnDlauXAmj0YgOHTpg+fLlmDhxosu/F0ceeOABNG3aFK+//jrefPNNlJWVoVmzZhg4cCAmTZokLzdmzBg88cQT+Oqrr/Cf//wHkiRh3LhxAIClS5eiV69e+Pjjj/H8889Dq9WiZcuWeOihh3DTTTfV2oY777wT586dw7Jly5CTk4PGjRtj8ODBeOmll+yuTk9ERFQdlVR53BoREREJ4dChQ+jZsyf+85//4MEHH/R2c4iIiKgWPAediIhIACUlJVXmvfvuu1Cr1Rg0aJAXWkRERETO4hB3IiIiAbzxxhvYv38/hgwZAq1Wi7Vr12Lt2rV47LHHqtxHnIiIiHwTh7gTEREJYOPGjXjppZdw/PhxXLt2DS1atMBf/vIXvPDCC3W6DzgRERF5Hwt0IiIiIiIiIh/Ac9CJiIiIiIiIfADHvHmA1WpFVlYWwsLCXLoXLREREREREfknSZJQWFiIpk2bQq2u+Rg5C3QPyMrK4gV6iIiIiIiIFCwzMxPNmzevcRkW6B4QFhYG4PobEh4e7uXWEBERERERkacYjUYkJCTIdWFNWKB7gG1Y++nTpzF06FAvt4aofiwWC06cOIFOnTpBo9F4uzlE9cZMk0iYZxIJ80yiqcvpzrxInAeZTCZvN4GIiIiIiIh8FI+gexD3/JEINBoNunbt6u1mELkNM00iYZ5JJMwzKRGPoHuQxWLxdhOI6s1iseDgwYPMMwmDmSaRMM8kEuaZlIgFOhE5LSgoyNtNIHIrZppEwjyTSJhnUhoOcfcgDnEnEWg0GnTs2NHbzSByG2aaRMI8k0iYZ1IiHkH3ILPZ7O0mENWb2WzG3r17mWcSBjNNImGeSSTMMykRC3QPqstl9Yl8nUqlQlRUFPNMwmCmSSTMM4mEeSYl4hB3D9JoNCgvL0dAQIC3m0LkMo1Gg7Zt23q7GURuw0yTSJhnEgnzTErEI+geZDabkZeX5+1mENWL2WzGzp07OdyMhMFMk0iYZxIJ80xKxALdg1q3bo3c3FxvN4OoXtRqNZo1awa1mh8fJAZmmkTCPJNImGdSIqbdg+Lj43kEnfyeWq1GYmIi/1iSMJhpEgnzTCJhnkmJmHYPKi0tRUFBgbebQVQvZrMZ27dv53AzEgYzTSJhnkkkzDMpEQt0D5IkCcXFxTCZTN5uCpHL1Go12rRpw73ZJAxmmkTCPJNImGdSIqbdg4qKigAARqPRyy0hch3PByPRMNMkEuaZRMI8kxIx7R506NAhAOAwd/JrZrMZmzdv5nAzEgYzTSJhnkkkzDMpEQt0D5IkCQALdPJvarUaXbt25d5sEgYzTSJhnkkkzDMpEdNeweuvvw6VSoWZM2fK80pLSzF9+nQ0atQIoaGhGDt2LC5fvuzS+q1WKwAW6OTf1Go1YmNj+ceShMFMk0iYZxIJ80xKxLT/f3v37sXHH3+M7t27282fNWsWfv75Z3z77bfYtm0bsrKyMGbMGJe2YRuew3PQyZ+ZTCasX7+eFzskYTDTJBLmmUTCPJMSsUAHcO3aNTz44IP49NNPERUVJc8vKCjA559/jkWLFmHo0KHo1asXli9fjp07d+KPP/5weju2I+jl5eUoKSlxW/uJPEmj0aBPnz7QaDTebgqRWzDTJBLmmUTCPJMSsUAHMH36dIwaNQrJycl28/fv3w+TyWQ3v2PHjmjRogV27dpV7frKyspgNBrtfgDYXeDCNszdYrHAYrHIz1ecthX01U2bTCa7ads57rZpSZKqTAOwm7ZarXbTtjZWN22xWOymbe2tbpp9Eq9ParUaYWFhsBGhTyK+T+xT3ftktVoRHR0tb0uEPon4PrFPdeuTJEmIjo6Wsy1Cn0R8n9inuvVJpVIhKipKXrcIfRLxfWKf6t6nulB8gf7VV1/hwIEDWLBgQZXnDAYDAgICEBkZaTc/Li4OBoOh2nUuWLAAERER8k9CQgIA4MqVKwCun09z5swZAMDhw4eRmpoKADh48CDS09MBAHv27EFmZiYAYOfOnbh06RIAYPv27cjJyQEAbN68Gfn5+QCADRs2oLCwEACwZs0alJaWwmw2Y82aNTCbzSgtLcWaNWsAAIWFhdiwYQMAID8/H5s3bwYA5OTkYPv27QCAS5cuYefOnQCAzMxM7NmzBwCQnp6OgwcPAgBSU1Nx+PBhAMCJEydw4sQJ9kkBfTKZTFizZo3cPxH6JOL7xD7VvU/btm3D6tWrceHCBWH6JOL7xD7VrU9paWlYvXo1du/eLUyfRHyf2Ke69amkpASrV68Wqk8ivk/sU+19+vPPP1FXKsm220CBMjMz0bt3b2zcuFE+9/yWW27BDTfcgHfffRerVq3CpEmTUFZWZve6vn37YsiQIVi4cKHD9ZaVldm9xmg0IiEhAZ988ok8hL5Dhw7o1q2bvMdHo9HAbDZDpVLJ02q1Gmq1utppk8kEjUYjT2u1WqhUKnkauL7HqOK0TqeDJEnytNVqhcVikaetViu0Wm210xaLBZIkydO2tlc3zT6J1yeVSoW8vDxERERAo9EI0ScR3yf2qe59slgsKCkpQUhIiNx2f++TiO8T+1S3PgFAcXExgoKC5Pb6e59EfJ/Yp7r1SaPRoLCwEEFBQQgICBCiTyK+T+xT7X0qKChAo0aNUFBQgPDwcNRE0QX6jz/+iLvvvtvuvBaLxQKVSgW1Wo3169cjOTkZeXl5dkfRExMTMXPmTMyaNatO2zEajYiIiLAr0BMTE9GnTx+39oeIiIiIiIh8i60erEuBrugh7rfeeiuOHDmCQ4cOyT+9e/fGgw8+KE/rdDps2rRJfs2pU6eQkZGBpKQkp7dn27MNXN+7TeSPTCYTfvrpJ/ncGyJ/x0yTSJhnEgnzTEqk9XYDvCksLAxdu3a1mxcSEoJGjRrJ8ydPnozZs2cjOjoa4eHheOKJJ5CUlIT+/fs7vb3AwECsX78eKSkpLNDJb2m1WgwbNkwe+kPk75hpEgnzTCJhnkmJFH0EvS7eeecd3H777Rg7diwGDRqE+Ph4fP/99y6t6+rVqzhy5AgAoKSkBAo+u4D8HP9QkmiYaRIJ80wiYZ5JaVigV7J161a8++678uPAwEAsWbIEV69eRVFREb7//nvEx8e7tO5r167JVxa0Wq0oLS11R5OJPKri1S2JRMBMk0iYZxIJ80xKxALdg0pLS3H58mWUl5cD4Hno5J+0Wi1GjhzJPdokDGaaRMI8k0iYZ1IiFugelJ2djbi4OGRlZQFggU7+i3uySTTMNImEeSaRMM+kNCzQPSgnJwdt27aVh7kXFRV5uUVEzjObzdiwYQP/YJIwmGkSCfNMImGeSYkUfR90T7Hd9y4lJQXNmjVDXl4eHnjgAbRp0wY9e/b0dvOIiIiIiIiogfA+6D6qrKwMrVu3xsWLFwHwCDr5J0mSYDQaeRcCEgYzTSJhnkkkzDMpEQt0DyorK0NoaChMJhMAnoNO/slsNmPHjh0cbkbCYKZJJMwziYR5JiXiJRE9qLy8HHq9Hnq9HqWlpbwiJfklnU6HUaNGebsZRG7DTJNImGcSCfNMSsQj6B5kMpmg1+vRvHlzXLx4EWazWb7lGpG/sFqtuHr1KqxWq7ebQuQWzDSJhHkmkTDPpEQs0D3IVqAnJCTIV3LnMHfyNxaLBXv37oXFYvF2U4jcgpkmkTDPJBLmmZSIBboHmc1m6HQ6JCQkICMjAwALdPI/Op0OKSkp0Ol03m4KkVsw0yQS5plEwjyTErFA9zCVSoX4+HhkZ2cDALKysrzcIiLnWK1WZGdnc7gZCYOZJpEwzyQS5pmUiAW6B6lUKgDX9wbarkaZkZGBkpISbzaLyClWqxVHjx7lH0sSBjNNImGeSSTMMykRC3QPCg4OrjLParUiNTXVC60hco1Wq8XQoUN5FwISBjNNImGeSSTMMykRC3QvCQwMRFFREQDg7Nmz8r3RiXyd1WrFxYsXuTebhMFMk0iYZxIJ80xKxALdw2zD3GNjY5GTkwPg+sXj0tPTvdksojqzWq04c+YM/1iSMJhpEgnzTCJhnkmJWKB7WFhYGAAgJiZGvlAcAOTm5nqrSURO0Wq1GDRoEIebkTCYaRIJ80wiYZ5JiVige1BpaSmio6MBXD+CfuXKFfm5q1eveqtZRE6xWq04f/4892aTMJhpEgnzTCJhnkmJWKB7kEqlQlRUFICqR9BLSkpQWlrqraYR1RnPByPRMNMkEuaZRMI8kxKxQPeggIAAREZGAgAaN24sn4Nuk5eX54VWETlHq9ViwIABHG5GwmCmSSTMM4mEeSYlYoHuQTqdDuHh4QCuF+u2e6HbsEAnf2CxWJCWlgaLxeLtphC5BTNNImGeSSTMMykRC3QP0uv10Ol0CAoKAgBIkmT3PM9DJ38gSRLy8vKq5JfIXzHTJBLmmUTCPJMSsUD3IL1eDwDyUfSgoCAUFxfLz+fn53ujWURO0Wq16NOnD4ebkTCYaRIJ80wiYZ5JiVige5BOpwPwvwI9JibG7krupaWldgU7kS+yWCw4efIkh5uRMJhpEgnzTCJhnkmJWKB7UGBgIID/FeiVb7UG8Dx08g8lJSXebgKRWzHTJBLmmUTCPJPSsED3oMoFeuUj6ACQm5vr8XYROUOj0aBnz57QaDTebgqRWzDTJBLmmUTCPJMSsUD3oMrnoFe+FzoApKam4vTp0x5vG1FdWSwWHD16lMPNSBjMNImEeSaRMM+kRCzQPSgmJgYA5Cu5N27cuEqBLkkSDh8+jMOHD3ujiUREREREROQlLNA9qFmzZvJ0WFgY9Ho9TCYTysrKqix75syZKvdJr69Dhw6hsLDQresk5dFoNOjatSuHm5EwmGkSCfNMImGeSYlYoHuQ7f7nABASEgIA6NevH/bs2VNlWYvFAoPB4LZtnzx5EmlpaTh48KDb1knKZLFYcPDgQQ43I2Ew0yQS5plEwjyTErFA9yBbUV5xun///ti1a5fD5S9cuOCW7V66dAlHjx4FAGRnZyMzM9Mt6yXlqriziUgEzDSJhHkmkTDPpDQs0D0oNDRUnrYV6CEhIdDr9bh69WqV5Q0Gg1v2GB47dszu8eHDhyFJUr3XS8qk0WjQsWNHDjcjYTDTJBLmmUTCPJMSsUD3oPT0dHm64tH0gQMHYseOHVWWN5vNuHz5cr22eenSJeTn59vNKykpQUFBQb3WS8plNpuxd+9et18jgchbmGkSCfNMImGeSYlYoHuQo3PQAaBHjx44cuSIw9dcvHixXts8ceKEw/mV779OVFcqlQpRUVFQqVTebgqRWzDTJBLmmUTCPJMSsUD3oODgYHlar9dDq9UCuD58JywsDEajscprMjMzkZOT49L2Ll++7HDoPMACnVyn0WjQtm1bDjcjYTDTJBLmmUTCPJMSsUD3ILXa/tddsWDv3Lmzw6PdVqsVO3fuxLVr15zeXlpaWrXPuVr0E5lMJuzcuZPDzUgYZrOZmSZhMM8kEuaZlIgFugdV3vtXcZh7586dq1zMzaa8vBy//fabUx9ORUVFNd6mrby8nOehk0uMRiOaNWtWZYcTkb9Sq9XMNAmDeSaRMM+kREy7B+l0OrvHFQv0pk2bIisrq9rXXrt2rdoC3pH09PRar9TOYe7kiry8PLRo0YJ/LEkYarUaiYmJzDQJgXkmkTDPpERMuxdVLNBVKhVCQ0NRWFhY7fJpaWnIy8urdb1Wq9XuivHV4TB3ckVpaSm2bt3K4WYkDLPZjO3btzPTJATmmUTCPJMSsUD3oMp7/yoW6ADQqVMnnDx5strXS5KEffv2wWq1Onw+Ly8P+fn5OHfuHMrKymptDwt0coXVakV0dDT3ZpMw1Go12rRpw0yTEJhnEgnzTErEtHuQ7artNpUL9C5dutQ6jL2goACbN2+ucqQ9LS0NmzZtwq+//ooDBw7UqT2lpaUOrxxPVBOr1QqVSsU/liQMnuNIImGeSSTMMykR0+5FlQv0Zs2aISMjAxaLpcbX5efnY9OmTfjzzz+RkZGBkydP4tChQy61geehk7PMZjPOnz/P4WYkDLPZjM2bNzPTJATmmUTCPJMSsUD3oE6dOtk91mq10Ov18mOVSoWhQ4fi1Vdfxfbt22u8yJvZbEZqair27NmDo0ePutwmDnMnZ1mtVlitVu7NJmGo1Wp07dqVmSYhMM8kEuaZlIhp96CYmJgq8yreCx0Abr75Zjz//PM4fPgwzp492+Bt4hF0cpbVaoXJZEJJSYm3m0LkFmq1GrGxsfwCSEJgnkkkzDMpkVvSbjKZkJmZiVOnTuHq1avuWKWQHF3cLTQ0tMo8nU6H22+/HTt27GjwNpWWltZ45XiiykwmE7RaLXJzc73dFCK3MJlMWL9+PUwmk7ebQlRvzDOJhHkmJXK5QC8sLMRHH32EwYMHIzw8HC1btkSnTp0QExODxMRETJkyBXv37nVnW/2eRqOpMi82NtbhsomJiXU6H90deBSdnGG1WmGxWHiBQRKGRqNBnz59HH5GE/kb5plEwjyTErlUoC9atAgtW7bE8uXLkZycjB9//BGHDh3C6dOnsWvXLsyfPx9msxnDhg3D8OHDkZqa6u52+yVHBU2TJk0cLqtSqdClSxccP368oZvFAp2cYrVaIUkSC3QShlqt5q0DSRjMM4mEeSYlcinte/fuxfbt27Fnzx784x//QEpKCrp164a2bduib9++eOSRR7B8+XIYDAaMHj3aI0O1/YGjYjswMBDR0dEOl7/55pvx22+/NXSzWKCTU8xmM7RaLcrLy73dFCK3MJlMWL16NYdQkhCYZxIJ80xKpK19kaq+/PLLOi2n1+sxbdo0VzYhpOqG5zRp0sThuftxcXG4evUqysvLERAQ0GDtst0PPTw8vMG2QeKwWCwwm80eOf2CyBO0Wi0GDhwIrdalP4lEPoV5JpEwz6REHC/iQSqVyuH8pk2bVvuakSNH4r333qvXFbNLS0uxZcsWvPrqq9WebnDq1CmX10/KYrvYoaOLHhL5I5VKhfDw8Go/o4n8CfNMImGeSYnqXaBXvJJzZmYm5s2bh2eeeYbD2h0wm80O50dERCAkJMThcz179sQdd9yBt956CwUFBU5vMzc3F6+//jrUajWmTJmCH374weFyGRkZuHbtmtPrJ+Uxm83Q6XTV5pnI35hMJvz0008cQklCYJ5JJMwzKZHLBfqRI0fQsmVLxMbGomPHjjh06BD69OmDd955B5988gmGDBmCH3/80Y1N9X81XYGypqPoHTt2xEMPPYTly5c7tb38/Hx88MEHmDp1KgYPHoy4uDjEx8fjxIkTVZaVJMnhfKLKbPdB5xB3EoVWq8WwYcM4hJKEwDyTSJhnUiKXC/Rnn30W3bp1w/bt23HLLbfg9ttvx6hRo1BQUIC8vDxMnToVr7/+ujvb2iA++ugjdO/eHeHh4QgPD0dSUhLWrl0rP19aWorp06ejUaNGCA0NxdixY3H58mW3t6OmAh0AWrVqhbi4OOzZs6dO6zOZTHj//ffx6KOP2l0p/q677sJPP/3k8DUZGRm8MjfVylaYs0AnkfDLH4mEeSaRMM+kNC4X6Hv37sVrr72Gm266CW+99RaysrLw17/+FWq1Gmq1Gk888QROnjzpzrY2iObNm+P111/H/v37sW/fPgwdOhR33XUXjh07BgCYNWsWfv75Z3z77bfYtm0bsrKyMGbMGJe2VVNB07hx41ovBDd27FisWbMGRUVFVZ4zm804ffq0/HjVqlUYPnw4mjdvbrdcREQEmjZtaresjSRJ2L59u91pC0QVSZIESZKg0+l4DjoJw2w2Y82aNTxtg4TAPJNImGdSIpUkSZIrL1Sr1TAYDIiNjQUAhIWF4c8//0Tr1q0BAJcvX0bTpk398ihbdHQ03nzzTdxzzz2IiYnBqlWrcM899wAATp48iU6dOmHXrl3o379/ndZnNBoRERGBDRs24Lbbbqt2uX379uHcuXM1ruv06dP48ssvcfvtt+PGG2+ESqWCwWDAZ599hsaNG6O8vBx9+vTBkSNH8NhjjzlcR0ZGBjZv3oyJEyc6fF6tVuPGG29Ey5Yt69Q/Ug6z2Wx36ort/wWRP5MkSb59IC9ERP6OeSaRMM8kCls9WFBQUOuds+p1kbjK/1H8/T+OxWLBV199haKiIiQlJWH//v0wmUxITk6Wl+nYsSNatGiBXbt2VbuesrIyGI1Gux/b+m3/OpqOi4urtY3t27fHs88+i9TUVCxYsACvv/46/v3vf2Pq1KmYNm0aRowYgZ07d+Lhhx+udh0JCQnIzMxEdftmrFYr9u3bhz///FN+bNtzabvFVk39qDhd8XZcZrNZPupa3bTJZLKbtrXRNi1JUpVpAHbTtnOkK7e9umn2qe59qnyRFlu7/LlPIr5P7JPzfbJtQ6Q+ifg+sU9161PFTIvSJxHfJ/apbn0ymUzC9UnE94l9qluf6qJeBfrEiRMxZswYjBkzBqWlpZg2bZr8+JFHHqnPqj3qyJEjCA0Nle/b/sMPP6Bz584wGAwICAhAZGSk3fJxcXEwGAzVrm/BggWIiIiQfxISEgAAZ8+eBQCcOHFCviDb4cOH5VufXbp0ST7PRqPRyDs8Kk5rtVoEBwdj3LhxmDdvHp577jk888wz8nnm7dq1w5w5cxAYGAgA0Ol0crts0yqVComJicjIyIBKpZK3WXn67Nmz2LNnDzIzM+Vz39PT03Hw4EEAQGpqKg4fPlxjnw4ePIj09HQAkNcFADt37sSlS5cAANu3b0dOTg4AYPPmzcjPzwcAbNiwAYWFhQCANWvWoLS0FGbz/4Y6lZaWYs2aNQCAwsJCbNiwAcD1i+Nt3rwZAJCTk4Pt27fLv9+dO3cCAPvkYp+uXLkC4HqWVCoVLBaL3/dJxPeJfXK+Txs2bMDFixeF6pOI7xP7VHufzpw5gw0bNgjVJxHfJ/apbn0qLS3Fxo0b5etDidAnEd8n9qn2PtkOfNaFy0PcJ02aVKflnL3yuDeUl5cjIyMDBQUF+O677/DZZ59h27ZtOHToECZNmoSysjK75fv27YshQ4Zg4cKFDtdXVlZm9xqj0YiEhARcvXoVUVFR8l4ejUZjN202m7Fnzx5kZWU1UE//59ixYzh58iTGjh1b67IdO3ZEx44dodVqYbFYIEmSPA1U7UflPqlUKnnado2C6qZNJhM0Go08bRvSZJsGru8Fqzit0+nkIVC2c6MtFos8bbVaodVqq51mn+rep6KiImzcuFHOxu233w6NRuPXfRLxfWKf2Cf2iX1in9gn9ol9Yp98p08FBQVo1KhRnYa4u1ygiyw5ORlt2rTB/fffj1tvvRV5eXl2R9ETExMxc+ZMzJo1q07rs51zkJ+fj4iIiFqXvXDhAnJycpCdnV2fbtTIYrHg9ddfxwsvvFCn5Xv37s1z0gn5+fn49ddf5ccjRoxASEiIF1tEVH+SJKGwsBBhYWF+f6oWEfNMImGeSRQeOwddVFarFWVlZejVqxd0Oh02bdokP3fq1ClkZGQgKSnJ6fWazbWfexAeHo7OnTtjwIABDXpbCY1Gg4iIiDpfsX3fvn3Yt2+ffL4FKZNtj6Utm7bHRP7MbDZjx44ddfqMJvJ1zDOJhHkmJXKpApw9e3adl120aJErm/CY5557DiNGjECLFi1QWFiIVatWYevWrVi/fj0iIiIwefJkzJ49G9HR0QgPD8cTTzyBpKSkOl/BvaKK54PXRqvVIiEhQT6noiH06dMH+/fvx7Bhw+q0/Llz53D58mV06dIFiYmJ3JOpQBUvwlHxMZE/0+l0GDVqlLebQeQWzDOJhHkmJXKpQLeduG9z4MABmM1mdOjQAcD1W4FpNBr06tWr/i1sYNnZ2Xj44Ydx6dIlREREoHv37li/fr18O7R33nkHarUaY8eORVlZGVJSUvDhhx+6tK309HT06NGjzsu3bNmyQQv07t27Y8mSJXUu0AGgpKQE+/btw+nTp3HjjTeicePGDdY+8j22q16qVCpIksQCnYRgtVqRn5+PyMhIqNUcWEb+jXkmkTDPpEQuFehbtmyRpxctWoSwsDCsXLkSUVFRAIC8vDxMmjQJAwcOdE8rG9Dnn39e4/OBgYFYsmQJlixZUu9tXbp0yakCvVGjRggPD5dv0+ZuQUFBMJvNKC8vR0BAgFOvNRqN2Lp1K1q3bo2uXbs6/XryT5UvysECnURgsViwd+9eDB06lF8Aye8xzyQS5pmUqN5Jf/vtt7FgwQK5OAeAqKgovPrqq3j77bfru3qhuHJOeWJiYgO05H+6dOmCY8eOufz6s2fPYu3atTh58iSLNQWwWCw4cuQIh7iTUHQ6HVJSUpw6DYnIVzHPJBLmmZSo3gW60WiU741c0ZUrV+T7ytF1tuHBzmjdunWDXj39xhtvrHLKgrNMJhOOHj2KtWvXIjU1FcXFxcjLy0NeXh54kwCxWCwWfP3117h69ar8mMjfWa1WZGdnu/QZTeRrmGcSCfNMSlTvy4TffffdmDRpEt5++2307dsXALB7924888wzGDNmTL0bKBJXPlx0Oh169+6NVq1aNchVLJs2bYqsrCxIklTvi76Vlpbizz//xJ9//inPCwgIQExMDMLDwxETE4PY2Nj6Npm8yGKxoKysDGfOnEF0dDQLdBKC1WrF0aNHMWjQIA6hJL/HPJNImGdSononfenSpRgxYgQeeOABJCYmIjExEQ888ACGDx/u8sXURFWf26Y1atQI3bp1c2NrrlOpVHKR3hDKy8tx8eJFnDhxAjt27MD58+cbZDvkGRaLBRaLBadOnZIfE/k7rVaLoUOHNuitLYk8hXkmkTDPpET1LtCDg4Px4YcfIjc3FwcPHsTBgwdx9epVfPjhhwgJCXFHG4VR3+E5bdq0aZCrpvfs2RN79+51+3orkyQJ+/btY5HuxywWC2JiYpCZmSk/JvJ3VqsVFy9e5BBKEgLzTCJhnkmJXCrQMzIyqswLCQlB9+7d0b179yqF+cWLF11rnWDc8eHSu3dvBAYG2s1TqVRo1qwZ2rVr59I6u3fvjsOHD6OoqKje7auNJEnYu3cvfvvttwa7Oj01HIvFArVaDZVKJR9NJ/J3VqsVZ86c4RdAEgLzTCJhnkmJXCrQ+/Tpg6lTp9Z41LWgoACffvopunbtiv/7v/9zuYEiccfwnNDQUIwcORJJSUno2LEj+vTpg+HDhyMpKQk9evRAs2bNnF6nRqPB6NGj8cMPP9S7fXVlMBiwadMm5OXleWybVH+2grx58+bIzMzkH0wSglarxaBBgziEkoTAPJNImGdSIpfSfvz4cbz22mu47bbbEBgYiF69eqFp06YIDAxEXl4ejh8/jmPHjuHGG2/EG2+8gZEjR7q73X7JXcWMWq1Gs2bNHBbjvXv3xrVr1xAZGYkWLVpAr9dDkiRkZ2fj/Pnz1R617t69OzZu3IjLly8jLi7OLe2sjcViwc6dOzF06FAEBQV5ZJtUPyaTCSqVCu3bt0dqaiqGDRvm7SYR1ZvVakVmZiYSEhJ4ESLye8wziYR5JiVyKemNGjXCokWLcOnSJSxevBjt2rVDTk4OUlNTAQAPPvgg9u/fj127drE4ryAsLKzBt6HT6XDbbbehT58+iIuLQ2RkJKKiotChQwckJydXGR5f0bhx4/Dxxx8jJyenwdtpU1JSgp07d/JIrJ8oLi5GQEAAOnTogNTUVA5xJyHwHEcSCfNMImGeSYnqNV4kKCgI99xzD+655x53tUdoXbp08er21Wo1WrVqhRMnTjh8vlmzZnj00UexdOlSJCcno3///h5pV15eHk6ePInOnTt7ZHvkuqKiIuj1ekRERCAvL48FOglBq9ViwIAB3m4GkVswzyQS5pmUiGNFPMgXipnWrVvXOESoadOmmDNnDo4cOYLVq1d7rF0nT57kReP8gO0Iulqthl6vx7Vr17zdJKJ6s1gsSEtL84nPaKL6Yp5JJMwzKRELdA+SJMnbTUBQUFCtF5LTarV49NFHYTQa8fXXX3uk3VarFXv37uUQJh9XXFwMvV4PlUqF0NBQ7lQhIUiShLy8PJ/4jCaqL+aZRMI8+65z58555A5QSsQC3YN85QqUbdu2rXUZlUqF8ePHIzg4GMuXL/dI4ZyXl4cdO3bAZDI1+LbINSUlJdDr9bBYLNDr9SguLvZ2k4jqTavVok+fPj7zGU1UH8wziYR59k3l5eU4cuQIsrOzvd0UIbFA96CDBw96uwkArl/kLzIysk7L3nHHHWjVqhUWL16MY8eONfiesitXrmDr1q0oLS1t0O2QayoPcWeBTiKwWCw4efIkh1CSEJhnEgnz7JuOHj2KsrIyFugNhLujPMiXis42bdpg//79dVp2yJAhSEhIwLFjx7Bx40Zcu3YNbdq0Qfv27dGyZUtER0dDpVK5rW0FBQXYvn07Bg0aVONV58nzKg5xDwgIQElJibebROQWzDKJhHkmkTDPvqWoqAjp6ekAwAK9gdS7QB86dCgGDx6M+fPn283Py8vD2LFjsXnz5vpuQhgajcbbTZC1aNEChw8frvNw8rZt28pD4y0WC9LT05GWloa9e/ciOzsbPXr0wNChQ912Kzmj0Yjt27dj8ODB0Ov1blkn1R+HuJOINBoNevbs6e1mELkF80wiYZ59z9WrV+VrApSVlaGgoAARERFebpVY6j3EfevWrVi8eDFGjx5tN/y5vLwc27Ztq+/qheJLw3M0Gg0SExNdfm3btm0xfPhwTJs2DS+88AKaN2+Ot99+GydPnnRbG41GI/bu3eu29VH9lZSUyEPceQSdRGGxWHDo0CGf+owmcpXFYsHRo0eZZxIC8+x78vPz7R5fvnzZOw0RmFvOQf/1119hMBjQv39/nDt3zh2rJA9o06aNW9aj0WjQq1cvPPvss1i/fj0WL16MZcuW4YcffkBmZma91m0wGJCWluaWdlL92Y6gA4Ber2eBTsIoKyvzdhOIiIh8XkFBgd1jDnN3P7ecg96kSRNs27YNkyZNQp8+ffDtt9+iU6dO7li1UHxpiDsAhIWFoVGjRsjNzXXL+oKDg/Hkk08iLy8PJpMJOTk52LhxIy5evIjhw4ejd+/eLp2rfuTIETRq1AhRUVFuaSe5rrS0FDExMbBarTyCTkKJiYnxuc9oIldoNBp07drV280gcgvm2fdUPoKek5MDq9UKtZrXHneXev8mbQWXXq/HqlWr8Le//Q3Dhw/Hhx9+WO/GicYXh+e0aNHCretTqVSIjo5GXFwcunTpgkceeQRPP/00zp8/jzfffNOlo1QWiwVbtmzB8ePHeZ90L5IkCWVlZQgICIBGo4Fer/epCx8SucpoNCIjI8MnP6OJnGWxWHDw4EHmmYTAPPuWsrKyKt/9zGYzrl696qUWianeBbrtIgE2c+fOxRdffIG33367vqsmD2jevLlbr8DuSFBQEO655x4MHz4cn376aZXM1IXVasXx48exZcsWHrX1EovFgrKyMuj1ekiShICAAA4LJiEUFxfz6DkJJSgoyNtNIHIb5tl3VD56bsNh7u5V7wI9PT0djRs3tps3duxY/PHHH1i2bFl9Vy8UX/wCqNfrERcX55Ftde/eHQkJCVizZo3L68jLy8OmTZtw8eJFnD9/HidPnnSp4CfnVSzQbUPcy8rKuFeb/F5xcTEiIiJ88jOayFkajQYdO3ZknkkIzLNvqa5Av3LlimcbIjiXC3Sj0Qij0YioqChcu3ZNfmz7adGiBe6++253ttXvmc1mbzfBoYSEBI9t684770RGRgY2bNjg8jpKS0uxa9cu7N27F0ePHuWV3j3EVqBXHOLOAp1EUFhYCIPB4LOf0UTOMJvN2Lt3L/NMQmCefUvlC8TZ5Obm8vugG7lcoEdGRiIqKqraH9vz9D/uPt/bXZo1a+axPZMqlQpTp05Fbm4u/vWvf7nlnPKMjAyen+QBFosF5eXl8hB3vV6P8vJy/t7J7xUXF0Or1Tb46T5EnqBSqRAVFcU8kxCYZ99S3RF0q9XqtotOUz2u4r5lyxZ5WpIkjBw5Ep999hmaNWvmloaJqHnz5t5ugkNarRbt2rVz6z3Ma6JWqzF+/HisXr0aP//8M+666656r/PMmTPIzMxEy5YtER0dDb1ej8aNG/MD3Y04xJ1EVVxcjNDQUA6hJCFoNBq0bdvW280gcgvm2XdYrVYUFhZW+3x2djZiY2M92CJxuVygDx482O6xRqNB//790bp163o3SlS+PDync+fOyMrKgtFo9Ng2R44ciffffx8nT55Ex44d672+8vJynD59Wn7crFkz9OvXj7d9cBOLxQKTyQStVguNRoOAgAAeQSchFBUVwWQywWw2Q6t1y91HibzGbDZjz5496Nu3L/NMfo959h1Go7HG6z7xQnHuw8rFg3y5UFSr1S7fp9xVKpUKU6ZMwVdffVXtOS31cfHiRfzxxx8sIN3E9ntUqVSwWq08B52EUFpaCovFAo1G49Of0UR1pVar0axZM+aZhMA8+45r167V+HxeXp5PH4z0J0y7B/l6aKOjo9GnTx/o9XqPbTM4OBiTJk3Chx9+2CC/n6ysLPz888/YvXs3zpw5g7S0NKSnpyMvLw9lZWXIysrCyZMnYTKZ3L5t0VQsxCVJgk6ng8lkYoFOfq2oqAjA9S+B/AJIIlCr1UhMTGSeSQjMs++w/b2sjiRJPA/dTdw6VoTn+9Zs3759GD58uLebUaMWLVqgSZMmOHjwIDIyMjyyzcTERAwZMgQrV67E5MmT3b5+s9mMzMxMZGZmVrvM2bNn0atXL8TGxlabY6vVCkmSFHueasVCXKPRyI9ZoJM/s33hKC0t5RB3EoLZbMbOnTsxYMAA5pn8HvPsO0pKSmpd5urVqx67fbPIXE76mDFj7B6XlpZi2rRpCAkJsZv//fffu7oJ4fjL3j+dToe+fftCo9EgPT3dI9vs378/MjIysGbNGowcOdIj26youLgYO3bsgE6nQ1RUFIKCgqDT6RAeHo7GjRvDaDTiyJEjiI2NRa9evTzePl9gK8SDgoJQWlpaZT6RP6p4RMBfPqOJaqJWq9GmTRvmmYTAPPuO4uLiWpe5evWqB1oiPpcL9IiICLvHDz30UL0bIzp/+3Dp1asXNBoN0tLSPLK9e++9F59//jk2b96MoUOHemSblZlMphovcpGeno7mzZsrcu+grRBv0qSJ3Y4bFujkz2wFusVi8bvPaCJHbOfsEomAefYddSnQ8/LyPNAS8blcoC9fvtyd7VAEXz8H3ZEbbrgBcXFx2LdvH/R6PeLi4qDVamG1WhEeHo64uDioVCrk5ubi+PHj1d4fsS5UKhUeeeQRLF26FEFBQUhKSnJfR9xo//79uO2226DT6bzdFI+yFeIBAQHQ6XQoLy8HALfcy57IW2wFukqlgslkUtz/axKP2WzG9u3bMWjQIA4JJr/HPPuOuhTopaWlKC4uRnBwsAdaJC6XDxfMmzcP+/fvd2dbhOevR2eaNGmC22+/HcOGDUOPHj3QpUsXdOvWDYmJiQgMDIRer0fTpk0xaNAgREZG1mtbarUaU6dOxe+//47jx4+7pwNuVlxcjE2bNuHKlSvebopH2QpxnU5nd59LHkEnf2Y7XcNisXBnEwlBrVaja9eufvudg6gi5tk3mM1m+cBMbTjMvf5cTvuFCxcwYsQING/eHI8//jjWrl1b5zdOqfz5w6UuFwAMCAjAoEGD0KpVKzRq1MjlPZ0ajQbTp0/H999/X+OF3bzp2rVr2LZtG06dOuXtpnhMSUkJtFotdDodEhIS5Pks0Mmf2e7gIEkSC3QSglqtRmxsrF9/5yCyYZ59Q12OntuwQK8/l9O+bNkyGAwGfPnllwgLC8PMmTPRuHFjjB07Fv/617/45jjgj0PcnRUQEIBevXphyJAhuOOOO9CvXz9ERUU5vZ6goCDMmDEDn3/+ea23dfCmI0eO4NKlS95uhkfk5uYiICAAKpUKR44ckeezQCd/ZivQtVotysrKvNwaovozmUxYv349bx9KQmCefUNdruBuwxqw/uq1O0qtVmPgwIF44403cOrUKezevRv9+vXDxx9/LA95fuutt3Dx4kV3tdevKW3vn0ajQUJCAoYMGeLSBT4iIyPx4IMP4qOPPvLpI1t79uyB0Wj0djMaXHZ2NvR6PQICAtC3b1+EhYVBpVJx5Az5LavVane7QEmSvNwiovrTaDTo06ePYm8JSmJhnn2DM0fQ8/Pz+fe0ntxaMXbq1AnPPvssfv/9d2RmZmLChAnYsWMHvvzyS3duxm8prUC3UavV6N+/P1q0aOH0a9u1a4eePXviiy++8Nki3WQy4ddff8Vvv/2GzMxMIT+UrFYr8vLyoNfrodVqER0djdjYWOj1eqf2qhL5kopHZCRJ4mgQEoJarUZ0dLRiv3OQWJhn3+BMgW42mxVx4KohuZz2AwcO4LnnnpMvpz937ly752NiYjB58mT89NNPePrpp+vXSkEoYYh7dVQqFW688UaEhIQ4/dpbb70VsbGxWLRoEQoLCxugdfVntVphMBiwe/du/Prrr7h06RKuXr2K7OxsXLt2zdvNq7dr166hpKQEAQEBAIDVq1cjKioKAQEBPn0KAlFNKhboWq1WvmAckT8zmUxYvXo1hwSTEJhn3+BMgQ4ABQUFDdQSZXD5fgWPPfYY7r77btx999346aefsHnzZne2S0g9evTwdhO8SqvVonfv3ti2bZvTr01JSUHbtm3x9ttvY/LkyXYXKfM1BQUF+P333+3mBQQEICYmBvHx8QgJCYHJZEJoaCgiIiK81ErnFBQUoLy8HHq9Hnq9HgMHDkRpaSkLdPJrFb/wmc1mIUe/kPLYTj/kLalIBFqtlnn2Ac4W6PxuWD8upz0wMBAvvPAChg0bhsmTJ/OLTR24cvRYNDExMWjTpg3OnDnj9GvbtGmDmTNnYvHixRg8eDDS09Nx/Phx3HfffbjxxhsboLXuU15ejosXL1a5HkPjxo3RsWNHxMfHe6lldVNQUICysjJ5iHtoaCgsFgv0er3TH9pEvqLyERkOcScRFBUVITw83NvNIHILlUrFPPsAZ7/riTB61JtcHuIeFBQEAOjTpw9GjBjBe6LXAYfnXNejRw80btzYpddGRkbimWeeQU5ODpKSkvDKK69g06ZNOHz4sJtb6Rk5OTn47bff8NtvvyE/P9/bzalWxQIdAH766SdIksQCnfya7TPZbDbj+PHjvIo7CaGwsBA//fQTv3OQEEwmE/PsAxxdbygvL6/aU095BL1+XC7QX331Vfmc6smTJ+Obb75xW6NExeE516nVagwYMABhYWEuvV6v1+Puu+9Gu3btoNPp8OSTT2LdunXYu3evm1vqOQaDAb/++ivWrl2LY8eO+dz1CoxGI8rLyxEQEAC9Xo9hw4YhICAAAQEBLNDJb9m+8GVlZWH16tU+eyFKImdYLBbcdNNN/M5BQtBqtRg2bBjz7EUlJSVV/j6aTCa89dZbWLduncPXsECvH5cL9PXr19vdXmn06NHuaI/QsrOzvd0EnxEQEOC2LxB6vR6zZs3Cvn378PPPP/v16RZFRUU4ceIE1q9fj/T0dOTk5KCgoABFRUU13s6stLQUV69exZUrV9x+FNBsNqOoqMhuiLvth0fQyZ/ZCvSLFy+ipKSEQ9xJCOXl5cwyCYXFuXc5Onr+xRdf4I477sCpU6eqfQ13ervO5cS/9NJLmDZtGoKDg93ZHqGdOXMG7dq183YzfEZoaCi6d++OAwcO1HtdOp0O06ZNw5o1a/DKK68gMTERw4cPR1xcnBta6nklJSUOTxvRarUICQlB8+bN0aZNG5jNZvz5558Oz22/6aaboNPp6t0W25U4y8rKEBUVBbPZjDVr1shH0Xnla/JXtgL9woULKC0t5RBKEkJpaSmOHTuGkSNHuuVvAJE32b5zMM/eU/lAzKFDh2C1WtG/f38cPHgQV65cQUxMTJXXFRUVuTxaVulcLtD9+Silt2g0Gm83wee0bt0aWVlZMBgM9V6XSqXCqFGjMHLkSJw7dw4ff/wx7r//fnTo0MENLfUNZrMZBQUFKCgokPdaOhoOn5OTg61bt2LQoEHyeeOVWa1WXLhwAVeuXEFJSYl8IZaIiAhERUXJH6q2Ar28vBzBwcHQarUYOXIktFotAgICUFBQgNLSUgQGBjZQr4kahu3/zsWLF6HT6XjUkYRgsVjQuXNnHnUkIVT8zkHeUXm4+o4dO/Dwww8DAPr27Ys9e/Zg1KhRDl/HAt019Uq7SqVyVztIwXr37o2tW7e67YqPKpUKrVq1wjPPPIPFixejR48euPXWW4XbQVLbeeoFBQVYt24dmjRpgri4OJSUlKCgoAAWiwVqtdrhcPhLly7J00FBQWjRooX8vpSVlckjZsxmM7RaLYKCglBQUIB9+/bh5ptvdnMPiRqW7Yh5SUkJgoKCfO7aD0SuqOl0KCJ/ZPvOQd5RuUA3Go3ybYK7deuGjRs3OizQeSV317l8DjoAtG/fHtHR0TX+0P/w6IxjgYGBGDJkCCIjI9263qCgIMyePRuSJOGf//wndu7ciTNnzlR7xUkRmUwmZGRkYO/evTh69CgyMzORlZWFCxcu1HqueklJCU6dOiUPn7cV6GazGRs2bIDZbEZwcDDKy8thMBiQmpoKq9UKg8GAc+fOIS8vj+cfkU8zmUywWCxQqVRQq9Uc4k5CKCsrw7lz57jDiYRQ8TsHeUfFAt1oNNodFbddPNjRd2teKM519dod9dJLL8l7UKh23PtXPb1ej8GDB2Pr1q3ykGp30Gg0SElJwYABA7Bnzx7s378fly5dQmFhIRo3boyYmBjEx8ejf//+wh1hdzdbga7T6XDXXXcBuL4TxHa05siRI1WuQK/VahEfH4+4uDiEh4dDq9XizJkzuHDhApo2bYp27drxM4S8xmQyIScnBzExMcjNzWWBTkIwm82Ii4vj+bokhIrfOcg7KhbaqampaN++vd3zvXv3xr59+zBkyJBqX0fOqVfFOG7cOMTGxrqrLcLjefs10+l0uOmmm7Bp0ya3X4k8LCwMt956q/xYkiRcvXoVubm5OHPmDBYsWIBJkyahWbNmbt2uSMrLyxESEgJJklBYWIiwsDAEBwfL75XVaq1yxNxsNuPChQu4cOFClfWdO3cO58+fR5s2bdC1a1fuwCKPM5lMuHDhApo3b46ioiJFja4hcZWVlcFisUCSJJ6KSH6v4ncO5tnzJEmyu0jc6dOn0bdvX7tlevbsiY8//rhKgc4h7q5z6Rvxn3/+yf8kLuAQ99oFBwdjwIAB2LZtW4MOj1apVGjUqBEaNWqE9u3bo0+fPvj3v/8NSZLQq1cvdOjQAbGxsVCr63UWiFDKysoQEhICs9mMHTt2YNiwYXZH0F0hSRLS0tJw4cIFxMfHo3HjxggNDUVQUBAkSZKP2gcFBbmxJ0TXmUwmXLx4Ea1bt8aFCxdYoJMQTCYTSktLYTabeRSd/F7F7xzMs+dVvl3a+fPnce+999otExoaCrPZLN+O14a34XWdS9VHz549AVz/ct26dWvk5ua6tVGetGDBAvTp0wdhYWGIjY3F6NGjq9zTr7S0FNOnT0ejRo0QGhqKsWPH4vLly05vi0cI66ZRo0ZyxjylcePGmDVrFqZMmQIAWL16NV5//XV8+umnyM/Pl5dT8igIW4Gu0+kwatQo6HQ6hISEuGW0Q2lpKc6dO4d9+/Zh69atWLt2LdatW4ctW7ZgzZo1+OOPP2AwGHgOGrmV7Qh6s2bNEBgYyAKdhGA7VYPFDImg4ncO8ryKw9RtI3Mc1TM33HAD/vzzT7t5ZrOZt+J1kUsVY1RUFFavXo24uDicO3fOry8EtW3bNkyfPh19+vSB2WzG888/j2HDhuH48eMICQkBAMyaNQurV6/Gt99+i4iICMyYMQNjxozB77//7tS2/Pn35GmtWrXC1atXkZ6e7tHthoWFYfDgwRg8eDAAIC0tDUuXLpXfu+DgYDz55JOKPLJutVoRGBgIq9WK/Px8REZG2g1xbyiSJMnD5NVqNRo1aoTY2FhER0fL965u0aIFAgICGrQdJB6TyYSCggI5yyzQyd9ZLBZYLBZYrVZe+ZqEUPE7hxK/e3lbxQL9woULSEhIcLhc79698eWXX1YZ/l5UVMTb8LrApU/usWPH4pZbbkGTJk2gUqnQu3fvai+wdfbs2Xo1sKGtW7fO7vGKFSsQGxuL/fv3Y9CgQSgoKMDnn3+OVatWYejQoQCA5cuXo1OnTvjjjz/Qv3//Om+Lfyid07NnTxQUFODq1atea0Pbtm0xZ84c+fGWLVvw1Vdf4YEHHvBam7xJq9XCYrFg7969GDp0KEJCQjx6Sx+r1YorV67gypUrdvOPHj2KFi1awGKxoLCwUD6C1KFDB7Rs2RIAcPnyZaSnp8NsNiMsLAwdO3as9h7xJD5bAQNcP+UlJCSE58uR37N99mk0GpSUlPAexOT3Kn7nYIHueZUvENeuXTuHyzVq1Ei+lW/FmrCoqAiNGjVq8HaKxqWK8ZNPPsGYMWOQlpaGJ598ElOmTBHmj4DtCuK2W8Tt378fJpMJycnJ8jIdO3ZEixYtsGvXLocFellZmd1RRaPRCOB/pwbYzkXXaDR202azGSqVSp5Wq9VQq9XVTptMJmg0Gnlaq9VCpVLJ04D9vSNt56NJkiRPW61WWCwWedpqtUKr1VY7XXF4S3X9cFefLBYLBgwY4NZ7pNfXkCFDsHLlSmzatMnuonNKoVarodPpMHToUGg0Gvk2a95mNpsd7gzct28fsrOzYbVa7S5UZ7sVXOfOndGmTRtF/H9in+z7VFJSgoKCAvkuAnq9HkVFRSgvL0dAQIBf9km09+nw4cNo1aoVwsLChOlTQ79PJSUl8rbLy8thtVr9vk8ivk/sk3N9GjZsmLxDVZQ++cv7VHFkWVpaWpXzzyvq3LkzTpw4ga5du8rziouLfa5P3nqfnDlN0+VdUcOHD8eMGTMwYcIE/O1vf6v2x59YrVbMnDkTN910kxwug8GAgICAKvfojouLg8FgcLieBQsWICIiQv6xDQc5evQoAODEiRM4ceIEAODw4cNITU0FABw8eFAe0r1nzx5kZmYCAHbu3IlLly4BALZv346cnBwAwObNm+Xzozds2CD/J1qzZo18gZg1a9bI54CsWbMGAFBYWIgNGzYAAPLz87F582YAQE5ODrZv3w4AuHTpEnbu3AkAyMzMxJ49ewAA6enpOHjwIIDre9IOHz7coH0qLy/HzTffbHfuUXXTtv9IKpWq2mnbXr2K02q1utpp295a239kAJgwYQIuX76MTz75RP5QsC1jm7b9Z3c0XVs/vNGnytOO+qRSqVBWVgar1Ypff/0VV69ehV6vtzsv3xf7lJGRgUuXLlXpk8lkwrFjx+Rsb9q0CYcPH8bu3buxZs0abN++HceOHavy/+nYsWM4cOCAX/5/EvEzwtU+7dixA7m5uWjcuDG0Wi2Cg4NRUlKCXbt2+W2fRHqfiouLkZaWhq1btwrTJ0+8T8eOHYNarYZKpcLhw4eF6JOI7xP7VPc+lZeX48KFC0L1yZ/ep+zsbPn7U0FBgXwA09F3vN69e2P//v3yfK1Wi+LiYp/rk7fep8rn6NdEJSn5qleVPP7441i7di1+++03NG/eHACwatUqTJo0qcp5tn379sWQIUOwcOHCKutxdAQ9ISEB2dnZiImJ8fs9QN7Yq5WXl4ddu3b51BUhDx48iNWrV+Opp54S/irjkiRhwYIF+Oabb9CyZUts27YNAwcOxMmTJ/HII4/YnQbgj4KDg6vNlkqlQtOmTVFSUlLldIumTZuic+fOCA4Olo+6+sP/JxE/I5ztU25uLhYvXoyMjAyMGjUKx48fR3p6Ot5///0qR2z9pU8ivU+HDx+Wv3DdfPPNiI2N9fs+eeJ9yszMxO7du6HVatG1a1e0bt3a7/sk4vvEPtW9T8D14mrAgAHyHV78vU/+9D79/PPPck3z+uuv1/h9T5IkvPbaa5g7d648r0mTJkhKSvKpPnnrfSooKJBPBQgPD6/29wjU8z7oIpkxYwZ++eUXbN++XS7OASA+Ph7l5eXyBSpsLl++jPj4eIfr0uv1Ds9ttc2zHfmrPF3x6GpdputytNLRtEqlkqcrHn2sy3R1bW/oPkVFRWHo0KH4/fffkZeXB1/Qs2dPBAYGYvHixZg1a5ZdP0STn5+PqKgo6HQ6aLVaeXi/KH2uacePJEm4ePGiw+eysrKQlZUFjUaD6OhotGnTBs2aNQMA+SiWyWSCTqfzqf9PIn5GONsn271dg4ODAVz/fK6YA3/skyjvU3l5Oc6fPy8/9+effyIlJcWv++Sp98lqvX5BU7PZDIvFIq/Hn/sk4vvEPjnXj4qnFIrSp4rTvtoni8UiF+dFRUW1HoxSqVSIjIxEXl4eoqKiAFy/TZsv9Qnw3vvkzHdmMb5d14MkSXjiiSfwww8/YOvWrWjVqpXd87169YJOp8OmTZswduxYAMCpU6eQkZGBpKQkp7Z1+vRp9O7d221tV5rAwEAMHjxYvuWWTqdDu3btkJqaKl8Yx9M6deqE/Px8LF68GA888ABiY2O90o6GlpWVhaZNm0Kj0cBqteLSpUto0qSJ3QekklksFvnidba9srY9rcD/jrRXPlWGvMdkMqGoqAihoaEAIA9xd+YcMWoYZ86ckQtN4PqwQoPBUO1Ocfof2zVBVCoVb29EQqj4ncNW7JBnVLxA3KVLl9C0adNaX9O1a1ccPXoUAwcOBAD5uhjkHMUX6NOnT8eqVavw008/ISwsTD6vPCIiAkFBQYiIiMDkyZMxe/ZsREdHIzw8HE888QSSkpKcuoI7APncB3KdVqvFTTfdhNTUVLRo0QKBgYFo0qQJduzY4bWLlSUlJSE6OhrffPMNysrK8NBDDyEuLs4rbWkotgLdNmTnzJkziPt/7d13dBvXnS/w76B3gAAJgAXsnaJENcqSrE71aF0Ut3Vsy3ack429Wdsp3uzZxHnvOetne3OSeOO1k2zWZbP2sX2y7iUqVrGtZlWrkaLYOwmC6B2Y9wffTAASpEiJBNvvc46OSGAI3iEvB/O793d/12SaNTPoEykSifCpVxxupj0rKwsVFRWzpqjmTMYF6NzfqlKphNfrpQB9GuDWD8ZqaGigAH0MuPdBgUBAATqZFWLvOShAT65rCdArKyvx5ptv8gE6V7uIfnfjM+fvrl988UUAwNq1a+Mef/nll7Fr1y4AwK9+9SsIBALs3LkTgUAAmzdvxr//+7+P+3tRMDMxGIZBcXEx/3lKSgpWr16N/fv3DwuMkqWkpAQlJSXo6enBf/zHf+DGG29EdXX1rFmb3tnZifLycohEIohEIqxevRoAaAZ9nNrb29HR0QGz2Yzc3FzI5XJ+5wiTycSvhedGnBmGAcuyEAgEfLoYAHR0dECj0Ywa6LMsyxd2IcNxAXpsijvNoE89q9WacMalu7s7bkkCSYwL0CORyLTYYYOQ6xV7z0GSKzZA7+zsxNKlS6/6NQaDATabLe4exOv18tlqZGzmfMQ4lhp5MpkML7zwAl544YXr+l6xKXtkYul0OixZsgTHjh2b0naYTCb84z/+Iz755BP87ne/g8/ng1AoREVFBRYsWIDMzMwZGTT19PTAaDTyM+htbW2wWCw06HQNWJZFV1cXX1k0lkAgGPE6oVKpYLFY0NnZCYfDAYZhkJWVhaysLOj1eoRCIbS1taGnpwculwsSiQQLFiwY04j3XBQKhYatQQ8GgxSgT7FEs+fA4N9NY2Nj3PY9ZDhKcSezTWNjIxiGQU5ODs3CJhk3gQCAX2YwFmazGd3d3fzxPp+PAvRxorvrJKIAfXJZLBYMDAzg8uXLU9oOoVCIb3zjG/zngUAAFy9exJ49e9DR0QGDwYCqqiosWLBgxswGcZUquTXoHR0dyMzM5GfQabZ2Yox2jXC73fz2IsDgz7ytrW3EgCYUCuHw4cMwmUyorKyk9e9DhMNheL1eKJVKAIN/t7F1A0jysSyL9vb2EZ9vampCaWkpDQyOgqvHQinuZLbo6emB3W6HxWKhAD3JYneu8fl8Y84KraysxPnz5+MCdDI+9C6XRHRTMfm4QOTChQtxqTlTSSqVYuHChVi4cCEAoK+vD2fPnsVvfvMbmM1mbNu2bVqvWee2owDAp7ivWLGC/1wsFvPbTpDpp6enh991QiaTQSKRQK1WQ6fTQafTzdmBFW4Gnbvh4JbHOJ3OqWzWnNbb2ztsS9NYgUAAly5dQmVlZRJbNbNwe0anpKRApVLR4CmZ8YLBIDweDxobG+OWN5LJFYlE+PfD8e7IXV5ejj/+8Y/YuHEjAArQrwVFjEk0Veuj5xKGYZCdnY2srCxcunQJtbW1476wTLa0tDTU1NSgpqYGDQ0NePvttxEKhbBu3Trk5uZCq9VOqxuq3t5efgCB28uxqakJeXl5EAqFkEqlCAQCFKBPc1wBzFhisRhGoxEpKSnQarXw+Xzo7OyEWCxGSUkJdDodQqEQnE4nent74fF4kJmZCbPZPK366LUIhUKIRqP84BM3M9PX1zeVzZrTRps959TX1yMvL4/SJUcQDAZx4MABVFRUYOHChfD7/bOmFgqZm/x+PwQCwbTZYneuGBgY4O+fY7dNGwu1Wh0XlFOAPn4UoCfRdAsUZzOBQICKigoYjUYcO3Zs2qb6FRQU4JFHHkF/fz8OHz6Mw4cPo6enB9/5znf4/bSnGlfBHfhrgD4wMIDc3FyIRCJIJBIEAgG6YZ6BQqEQOjo6Eu7z3tbWBrFYPGwLw+bmZojFYiiVSmg0GhQXF0On0/Fr661WK1wuFxiGgVKphFarRVpaGp9KPl0MPS9uwMHhcPB715PkYVkWnZ2dVz0uGo3izJkzuPHGG5PQqpknGAzCbrfzu8bEZokQMhMFg0EwDDNqdg2ZeLEDIp2dneO+JxUKhfx7qdfrnejmzXoUoCcRpbgnX1paGjZs2IDDhw9P69FXg8GAHTt2ABi8KP7bv/0b7rvvPuTk5ExxywYLgxQUFEAgEIBhGIhEIr6Sp1AohEQioWrBs9TQIDb2cbvdDrvdjtbWVqSnp8PhcIz6JiyTyaDX62E0GpGdnQ2JRAJgMG1ZKpXGHcuyLILB4LDHJ9LQPsut/49Go+jr66Pieklms9nGfAPe3d2Nvr4+pKWlTXKrZh7ub5PLBPF6vTAYDFPcKkKuHZftRAF6csWuPx9PgThORkYGurq6kJ2dTTPo14AixiSiFPepIZfLsXbtWtTX16Ovrw/9/f3TuhBUSkoKHnvsMfz+97/n139zfYdlWZhMJixfvhxlZWX8Y3a7nQ+O9Hr9hM6YdHZ2YtWqVfwAUyQSQX19PYqKiiASiZCSkoL29vZxX7zJ7JGoIv1Qfr+f3w/+3Llz0Ol0cDqdCIVCMBqNyM3NxcDAADo7O/n6EVqtFsXFxVCpVPD5fNDpdHymhtPpxLlz5yAQCCCXy5GZmTmugG3oNUCpVPKDTVarlQL0JBtLH4p18eJFrFmzZpJaMzOFQiGwLItQKIT+/n4AoJkrMqNxwTkVPUy+2ACd22p3PLKzs9Ha2koB+jWiAD2JaLR/6giFQpSWlqK0tBTRaBRWqxUdHR1obm6elgMnarUaP/jBDwAMvkGJRCIwDINoNIqenh7s3bsX7733HvR6PXp7e2EwGPgUYpvNBrvdjo0bN2LFihWjrhUOhUKor6/HhQsXwLIslixZgry8vLivGRgYgE6ni8sA4S62QqEQmzZtwjPPPIOqqipKCyZjEolE+AACGKxz0NvbO+w4h8OBr776iv9cKBSipKQEKpUKp06diguyr1y5ArVajaVLl0Kv1/PfJxAIgGVZKBSKuH7t9/v5zyUSCUQiERQKBXw+X8J16H19fQgEAtBqtaPuP0+uzVjS22P19fXRLPoQXFaIXC7nA3MK0MlMxs2aMwwzYkYXmXhcYT4Ot9XueFgsFhw5cgTA4PstN9BCxoYC9CQqLCyc6iYQDK5PNxqNMBqNKC8vR11dHerr66dtjYDYoFcgECA9PR333HMPHA4HfD4fzGbzsK8JhUL48MMP8Ytf/AILFy5EeXk5BAIBvF4vvF4vPB4Pzp8/D7vdjpKSEsyfPx8sy+Lw4cN46623AAzOzBuNRoRCIT61HRgMkriK9CzLQi6Xo6amBh999BFuvvnmyf+BkDkrEong4sWLIz7vcrmwf/9+5OXlwev1ore3l09dl8lkyMzMRDQaRVdXF+x2O59potfrkZKSArlcDp/PB7vdzq+di0QiOHfuHK5cucJ/nxUrVtAM+wRyu93XVD2fZtHjcbONwF9r3lCATmYybtCJm0gJBoP88igyeWJnzwFc0049mZmZcfVtfD7ftKtFM51RgJ5E03Gmdq6TSqWYP38+LBYLvvrqqxm1xZJWq4VWq034nFgsxi233IJt27bh4sWLOHLkCBiGgUKhgEKhgFwux2233TZs9qm0tJT/mFuLy71BctWuI5EILl26hLKyMgiFQgiFQqxcuRL/9//+XwiFQthsNjAMg8zMTBQWFiI7O3vGV/wmMwfLsmhsbBz2uN/vR0NDA/957B7oOp0ONpuND9BZloXVaoVYLMapU6eGXRdOnDiBmpoaKBSKuNf3eDyjrvcdbyXcuWK8s+ecvr4+2Gw2PmNirvN6vXC5XNBoNHC73YhEIhSgkxmNm0EXCAT8OnQK0Cff0P3PZTLZuF9DIpHEZT1QgD4+FKATgsF13xs3bkRnZycaGhrQ19c3bWfUx2PoHuzjIRAI4vZnH6nIIbdG/rvf/S7a29uxePFiRKNRdHR04MCBA2hpaYHZbIZIJEIwGOQv/FyV71tuuQUWi+XaTpCQa+TxePibhZSUFDgcDj5AB4CzZ8/C7XYn/NpgMIhjx46hvLwc4XAY/f39aGhoQCQSgdFoRGFhITQaDZRKJRiGQSQSwdmzZ9HY2Ij8/HwsWrQoaec53bndbtTX11/z1zc3N1OA/v/Z7XY4HA5otVqIRCLY7fZrurEmZLoYWswzEAjQEqMkcLlc/Mft7e3XfI8mlUrh9/shk8loHfo4UYCeRNwMJJmeuFnfzMxMBINBdHV14fz583RR+f9iU9znzZsX93gwGERKSkrc7GBWVhaWLVuGaDSK/v5+sCwLsVgMnU7Hz6hbrVa8+uqryMrKwo033giz2Ux/JyQpPB4PPwPOzXorFAp+xnGk4JzT39+Pzz//fNjjQ9fTc3833Hr5xsZGhMNhLF269JoySzweD8LhMAQCAX+jGo1G0dzcjNTUVGg0mnG/5lRxu904ePDgdV1j29vbUVVVRWsbMZih4XA4oNPpIJPJ0N/fD4PBgHA4TLvIkBmJm0Hnlm5QJffkiM284Qq9JZKfn4+enp649eqxLBYL2tvbUVhYSPfS40RX7CQ6fvw4ampqproZZAwkEglycnKQlpaGL774Ykalvk+W2CruX3/9NebPn8+nuI9GIBCMWMgpNTUVjz/+OE6dOoW9e/eiq6sL0WgUGRkZSElJgd/vh0ajwfz585GRkUGp8mTCcCnucrkcYrEYra2tcTPoEyXRjhGtra0IBAJYvnw5/3fldrvR3d0NAMjJyRm23s9ms6G2tjYuHVwmk8FkMsFqtcLj8UAkEqG6ujrh+vhAIACn0zktiqqxLIuWlhacP3/+uiszB4NBdHZ2Iisra4JaN3NxWx/qdDq+GGpxcTG8Xu+MGrghhMMF5FymHlVyT47YAL2trQ2bN28edozFYsHChQtRW1uLCxcuJHwdi8WCtrY2FBYWjhjEk8QoQE8iWoM+8ygUCqxbtw4NDQ3o6emB1WqdFanv1yJ2BiZ2G7frnZlhGAaLFy/G4sWLAYBPj3e73ZBKpRgYGMDu3bvR1taG4uJirFmzhrZ0I9fN6/VCoVDwWR9yuRxyuTxhNfnJ0NPTg/3790OlUsFms8UNDJw7dw4Gg4FPT+7t7U14Y+r3+9HS0sJ/Hg6HcfjwYZSVlaG8vBwMw/Db0XV3d4NlWajValgsFrAsi2g0iszMzFFTxKPRKC5fvgy/34958+Zd9997KBTCgQMH4HA4rnpsd3c3jEbjVWfHW1pa5nyAHggE+AKHeXl5EAqF/NIBCtDJTMWluHP3XTSDPvlYlo17v+Guw7G4HVMYhkFOTg4uXryY8N44Ozsbe/fuBYAxXfPJX1GAnkSUujszicVifou27u5uHDlyZE4OtnD9l9uybujjE0UgEAxb77R48WKwLIva2lp88MEH6OvrQ3FxMZxOJ1wuFxYsWIDq6moolUpEIhG0tLSgrq4OZWVlyM3N5V+Hq27f2dmJXbt2UcGSOczj8fDLMoRCIYqLi+NS3JPB4XAkvGmJRCLXNVBw6dIlDAwMQK/Xo7a2lk8PBQbXFsZWwq+rq+P3lg8EAkhPT0dpaSkEAgE6OzvR2NjIp/t3dXXBYrGgv78fwWAQZWVlcYGx3++H3W6HVquNG8SLde7cuTHdqDkcDjz99NNYt27dVXeH6O7u5tc5zlV2ux0A+DXoEokEVqsVAFVyJzMXpbgnn9frjQu2o9HosPu89PR0fuBUoVDAaDSip6dn2GuZzWZ0dXUBAGWijhMF6EmUKNWRzCxmsxmrV6/Gl19+Oax4yWwXu5b29OnTWLhwIUQiUdLWNjIMg7KyMpSVlSEYDKKpqQk6nQ5KpRKnTp3C7373OwSDQTAMA4vFguLiYrz//vvQ6XSorKxEa2srzpw5g5qaGpSXl+O5557Drl274gJ4Mndwa9BTUlIQDodx7ty5SUlxnyrd3d18yvzVxK63b21tRWtra8LjPB4Pamtr+c+PHj0KhUIBgUCAcDgcN+tiMBiQn58Pi8XC38j19/cnrLCfyKuvvop/+Id/wAcffIDLly+juLh4xGNZlsWePXtgNpuRk5Mz7v16Z4OBgQEA4FPclUolX5CTAnQyUw1NcacAffLFvgc6HI6E2TdDr7F5eXkJA3ShUMgPrgSDQfh8vhEHb0k8CtCTiNbPzg4GgwHr1q3D4cOH4ypdznbc1iYMwyAlJYXvz1ORGSKRSFBSUsJ/vnr1aqxevXrYcUuWLMHZs2fR2dmJwsJCbN68mZ9le+yxx/DSSy+huroa69atAzB4o09/p3MDV8Wdq7RuMBiSPoM+G4z08+rv70d/fz/OnTsHk8mElJSUMQfnX331FR/gf/vb38Zzzz2HH//4x3Hb2g0VCATQ0tKClpYWWCwWVFVVQSqV8s9Ho9FZXUiOm0F3u91QKpUQiUT8pAD1aTJTUYp78sVeLxJVcE9UVygjIwMSiSThxJVUKkUgEIBUKoXT6aQAfYwoQE8iSnGfPdRqNdatW4cjR46gr69vqpuTFFw6uFAoRGFhIf/4dK8OvGDBAixYsGDY41qtFj/84Q/x9ttv4xe/+AUYhuH/RaNRGAwGrF27FsXFxXzQ3traipaWFr6QXVFRUbJPh0wQbg26RCLh+/Tx48epCNEE49bJx66VH00kEsFHH32En/zkJwAGrzs333wz3n//fdx5551jeo22tja0tbVBKpVCJpPB7/cjEAjwW+BJJBJ4PB643W643W54vV7+xl+tVkOlUkEkEkEmk8FoNEKtVsNut6Orq4uviJ6bmzutbjS5AB34657RHArQyUwVCATw0ksvYefOnUhLS6MAPQmuVsE9NTV1WDwjEAiQm5uLy5cvD3u99PR0dHV1ITc3Fw6HI277XjKy6X1nPctQivvsIpFIcOONN+KLL76YE0E6F6CHw2EcP34c1dXVEIlEM3rgSSgU4s477+TTnWNnzzs7O3Ho0CG8/fbbSEtLg81mQ2pqKsrKyiAWi3H06FG89dZbWLVqFZYsWTLq7B6ZfrgAXSwW831ao9FQMDPFvvrqKyxdujRu9nvBggX49NNP+fTtsQoEAnE39EO3wEsk0fZ6YrEYoVAo7rHa2loUFRUhLS2NH+ThBviAwRl7v9+PcDgMqVQKhUIRF9CPlurJsix6e3vh9XphMBiuWuAtFAoNa7dQKIRYLEYgEKA+TWYklmURCATQ2tqKF198Ebfffjvmz58/1c2a9YZWcK+uro57fqQAOy8vL2GAnpGRgc7OTj5AJ2NDAXoSzeb0urlKKBTixhtvxJEjR8a83nOm4gJ0gUCAzMxMvj9P9xn0sUhULC4jI4Ofsevp6YFarY4LwlesWAGfz4ejR4/ihRdeQDQahcViQWZmJr8e1+/3IxQKoaKiAuXl5TN6MGO2CYfDkMvlfD/OzMyE1+uNm3kkyffZZ5/h0UcfjXuMYRjceuut+POf/4wHH3ww6W0aGpwDgzP9tbW1cWvyr0Yul0Oj0cDhcMDv90Ov16O4uBgajQZisRhOpxPd3d1ob2+PWwcql8thsVhgsVj4XQcGBgZw/vx5mM1mvshfNBqNGyBITU1Ff38/ZDIZH+ywLBs3MMANVMUKBAJoaGiA1WqF1+uFUCiEWq1Gfn7+nFzfT6ZGMBiE0+lEVlYW7r//fvzLv/wLSktLaSnaJIsN0K1W67BdPkYK0NVqNdLS0oZNWGVkZODrr78GQJXcx2Pm31nPIBSgz05ckN7f34+LFy8mLJQx00kkEn5fZoFAgJycHP65uRB0jvSGJJfLsW7dOqxbtw6hUAjt7e3o6uriq5pKpVIIhUKcOXMG77zzDsrKyrBp0yZotdoknwFJZGifbm1tRSQSoRvAKVJfX4+srKyE2SjFxcX48MMP0dXVNWO3WfT5fHGBt81mw9GjR8f0dZcvX8bly5eh0Wig0+nQ1tYGlmXj3m9cLhfUajWAwdlHLkDPyMjA3r174XA4IJVKsXz5cqSmpuLChQu4dOkSzGYzv1+61WpFW1vbsJ1KHA4H2tvbkZubi6KiIj77hBONRuF0OuFwOODz+ZCVlcUPHBByLYLBIJ81I5fLodVq+ayYubxjw2TjAnSfzwexWBz3XiiVSkfNYsrPz08YoH/66acABq9R9P46NhSgJxGluM9uBoMBq1atwtdff50wzWcmi51h5vZaXrFiRVKruE93YrEYeXl5yMvLG/ZcQUEBbr31Vnz99df4/e9/D4FAgIqKCn5NnVKpRHFx8bRa0zoXcAEG16fFYjH0ej1sNhsMBsMUt27u+eSTT3DXXXeN+Py3vvUt/P73v8cTTzwRFxzOJU6nc8Ttirgt7oDBgdO0tDQ+pZ+buQoEAjh06BD0ej2/Ddt4Kv43NzejubkZwODfj1QqhUAggNvtjss+uXDhAtLT05Gfnw+TycTfkDscDpw7dw7d3d1gGAYqlQpZWVkwm81QKBQQCoV8e9xuN4LBIHQ6HYxGIzIyMuICM6/Xi0uXLsHpdEKv1yM3Nzfh4GcgEEB7ezt6enqQmpoKi8VC19oZIBAIwOFwQKfTQSgUQq/Xw263U4A+ybgA/fz588OWFKSmpo76tZmZmXxROI5KpYLH4wEwmHnkdrv5gUQyMrqzTqLRtokhs8f8+fOhVqtx5cqVWZPOEzsTIhAIUFBQwGeEzIUZ9InAMAxfsM7r9eLixYvo7++HVCpFa2sr9u7dmzCVFhgMINPT07F+/Xo0Nzfj2LFj0Ov1WL9+PTIzMxEMBtHb28vvWc1tNxW7RzUZjtuZgOvT3d3dyM/PR2NjIwXoSeZyuRAKhYZVB45lNBqxefNm/Nd//RceeOCBJLZuZuCCGWBwRttkMuHKlSvDjotGo3xwfj1CodCI1yyWZdHZ2YnOzk7I5XJIpVJEo1F+Bo07xuVy4dKlS7h06dKI38ftdqO9vR2nTp2CXq+HRCJBKBTCwMAAPyjQ39+PhoYGlJaWoqysDAzDIBKJoK6uDnV1dXxGQGdnJ77++mvIZDKo1WoIBAJEIhHIZDJotVrodDpoNBq+uGAkEoFKpeKP8/l8YFkWYrE4YZDo9/shFov590Wfz4euri7IZDKkpKSMaWCAZhgHBQIBfgY9Go0iJSUFAwMDVChuEoVCIX4y8eTJk7j11lvjnueW2IxEIBDAYrEkvO5w/drhcFCAPgYUoCfR1UaeyOzBzaR6vV50dnaira0N/f39U92saxY7g86tQefQDPr4KRQKLFmyZFxf09zcjAMHDiAvLw+PPvoo+vv7sX//fvT390MikUCv16OgoAC5ubno6enB7t270dHRgfnz52PLli1xRbfmOi5AiE1xz8zMxMDAAPLz83Hq1CksXbp0Kps45xw9ehTLly+/6nFLly7FpUuX+GJy5K9iA3SWZWE0GqfFkquhqf3Xg9vbPZFoNIqLFy+itraWHxAYKZjjaoTEam9vT3gswzAQi8XDtpBKT09HSUkJwuEw+vv70dPTA5vNBqlUioKCAjAMg7q6Oj7gEYlEqKysREFBwYjn4HA4cOzYMSiVSixcuHBOFx/lUtwLCwvBsix0Oh0F6JOMmz1nWRZWq3VYzYmh69ETSRSg63Q62O12pKSkjJgBROLRnXUSUYr73KNQKFBYWIjCwkJ4vV60traioaFhwm5WkmVoivuhQ4ewevXqGV/FfSbJzc3Frl27+M8zMzPxrW99K+GxJSUlWL16NSKRCE6cOIGnn34aS5cuhVwuRyQSQWpqKjIyMhJulzIX+P1+yGQyfgad69Pp6enIycnBO++8M8UtnHtOnjyJxx57bEzH3nnnnXj66adRVVU1Z1PdE7Hb7fwSG5FIBLlcPieDmWg0OqHvsSzLJtzfuaurC11dXcMeDwQCuHjx4rDHw+EwTp8+jYaGBhiNRqSlpcFsNkMoFCIcDuPKlSu4dOkSIpEInE4n+vr6MG/ePD7Y9/v9/GC/y+WCVCqFVCrlZ/Ozs7MTrvuPRCLo7e2FWCxO+kRRd3d33BKH8YidQReJRNDr9ejs7KStMCcRF6An2l4NuPoMOjC43FOpVPJp7cBfK7mnpKRMSPbOTJXoOjISCtCTiIrEzW0KhQKlpaUoLi5GQ0MDamtrZ8zN09AU93nz5s2qKu6zlVAoxLJly7B48WKcPn0a0WiUX+N58uRJWK1WPu1s6N7JCxYsQH5+PtxuN1wuF1wuF79eXi6Xw+VywePxYNWqVXEZFcDgmzzLsgmr408HsVusAX/t0263GxKJhAZTk8xqtUKlUo05y0MikWDDhg349NNPsWPHjklu3cwRuwZ9aJE3Mn1wdQSuXLkCsVgMs9mMnp6eYTfv4XAYZ86cQVtbGzQaDVpaWkbdZeLixYswGo1ISUmBSqWCz+eDzWaD1Wrlr2lcpW2xWAy5XA69Xg+lUgm/349AIACGYSASiSCRSCCVSvn3d5ZlEQ6HxzwgFo1GcerUKTQ3NyMtLQ3Lli2LWxLg8/kgEolGfT1uBl2r1SISiUCn0+H8+fPjCnLI+HAB+qlTp7Bo0aK451Qq1Zh//xaLJW6HCy5Ar6ioQF9f36jbTM5mdrt9zMfSnXUSeTyece3hSmYngUCAoqIifq3rlStX4kYap6OhKe6xaU9zcQZ2phGJRFdNB45EIhAIBGAYBoFAAGfPnsWFCxegVquhUqmQmpoKqVQKr9cLr9eL1NRUiMVivPvuuwgGg5DJZHA4HIhGo/ye8rGzWCKRCFlZWcjJyUF2djZSUlLQ3t4Oq9WKhQsXJvXN2uv1QqlUxq1BNxqN/I2fTqeDzWYbUzofuX6HDx/GypUrx/U1K1euxC9+8QusWbPmqvuEzxV9fX38DCm3jEOhUMDj8UzbwbK5LhQKoa2tbdRj+vv7x7xErre3ly8MmAg32DoesYO33HIqLvVeJBJBJpNBpVJBp9NBLBajvb0dDQ0NfDDS19eH3bt3o6SkBAUFBejq6sLp06fBsiyKiopgMpkgEomgUqni7icCgQA/mMqyLPR6PQYGBmgGfRJx79m1tbXDBj/HMnvOSRSgc1klLMuiubkZZWVlE9DimWVgYGDMx1KAnkTnzp0bNtNE5i6hUIiioiIUFRXB7Xajv78f0WgUdrsdDQ0NU908nkAgiAueQqEQPvvsM6xfvx5isZhm0GeJ2BsjqVSK6upqVFdXX/XrSkpK+DcdrVY7YqYQV0mZK4hns9mQlZUFnU6HX/7yl8jIyIDP54PT6QTDMGBZli8MxAXKFosFy5Ytg1AoxPnz53HkyBGEw2GIRCIUFRWhoqJiTPs0cwELNxvA9WmuYm1BQQEaGxvjAnQq3DQ5WJbF2bNnsW3btnF9HcMw2LlzJ959913ce++9k9S6mcXv90Mul0MsFvMzntw69Pz8/KluHpmhYmftg8HgmCv+xwoGgzh37hwuXboUl6F08eJFPnCTyWQoKytDamoqLl++jNbWVgDgZ/VVKhXcbje6u7tx4MAB+Hw+mEwmFBUVQSqVwuFw8P+4nVG49yOfzweJRAKBQICBgQFYrVbI5XLodDqoVCq6tv9/Xq8X4XAYQqFw2L3deAJ0rVYLjUbDrzc3mUxx9TBaWlrmZIBOM+jTFKW4k5GoVKq4NHKv15twbdtU4GZDOUKhEEuXLuUDOm4WksxdY3nj5gonJSqQVFNTw6dxDs0yGhgY4N/ULl++jF/84hd8FspNN93Er7O9fPky3n77bfj9ftTU1MDtdqO+vh69vb2IRCJgGAaZmZlwuVyw2Wz45je/yfddrk9z8vPzcfr0aSxZsgQOhwN79uzB+fPnIZPJEA6HsXnzZipQNgFYlsVrr72G6urqaxroKysrwzvvvEMzxBisdM7NanLVrgHw6dMUoJPpYLTlQ36/H6dPn074HHcNB+KLDjY2NqKxsTHh17S0tPCp1VzWwNClXMDg9V+tVkOhUEAul0MoFPKZYGazeUoydKLR6JhjhvEcOxq3242uri709PTAbDYPe368GWVms5kP0EUiUdzv3u12w2q1zrni2RSgT1MUoJOxWrp0Kfbu3cuvB5pKQ298BQJB3IVapVINGx0lZDwYhklYkAYYDDa4AYC8vDxs3LgRoVBo2HrltLQ0rFy5EjabDQcOHIBer8fGjRv5IkyRSAQdHR2Qy+X8Vl6xa9D1ej2/1CQ7OxtvvvkmXn/9dbS0tGDbtm3YuXMnGIZBOBzG888/D6FQyK/RY1kWly9fRkdHByoqKmAymYadh9/vx5EjR7BgwQJKncdfg/PU1FRs3rz5ml9n48aN2Lt3L2666aYJbN3M09zczAfharUakUgE/f39MJlMqKurm+LWETJ+3Ewu8NclG+PhcrmG9f1Ea/gjkQjsdnvC4Onrr78GwzBgGAYSiQSpqakwGAzQaDRQq9X8TPNoS/247zmWGMDlcqGxsRFNTU0QiUR8QdeMjAwIhUK43W5+ltvtdqO1tRVerxd5eXkoLi5OuPVfNBpFKBQCy7Ij7h8fiURw9OhRhEIhdHR0DMv2ZRhm3Et0uUwIjlarxcDAAP9+3tTUNKcC9PHuZkEBehJR4SEyVhKJBOvWrUNfXx+cTifUajWMRiNCoRBsNhsaGxtH3W5mIg0N0EOhEHbv3o1NmzbxAU5FRQUF6CQpBALBqMXE9Hr9sL1bgcFZkqGDANwMOten165dC2Bwtj87Oxvz5s3DXXfdFZdBIhKJ8Pd///f49a9/jS+++ALRaBROpxOFhYXIycnBe++9h/7+fj5NX6FQICUlBc3NzVixYgX+8Ic/IDc3FzfffPO4t75jWZbf655hGOTk5ECr1fLpo2azeUYso+rq6sKrr76KJUuWoKam5rpea/Hixfj444+xbdu2OV3Rvampia/gLpPJ+BlDk8mEQ4cOTWXTCLkmDoeDL3rIzcCKRCKEQqGk/q2zLAuWZeH3+9He3p5wOz6NRoO0tDQolUrIZDL4fD4++4sb+FWr1dDpdDAYDHxtCI/Hg1AohEAgMGx9fTgc5r+fUCjkB4gT4QaI161bFxeEe71efPnll3A4HACAwsJCLFiwIO49jWVZnD59mh+g6OjoGJZ+rlarx53lNDT4Li8vx8WLF/l6Iy0tLfz2sHPBeNafAxSgJxUV0yLjIZfLhwUUcrkcGo0Gubm5aG9vR3d3N3+h5d5EYi/2o1V85Wg0GuTl5YFhGNTX1w8rWDc0QBeJRFi1alXcxVqv1yM9PX3apOUTMhbcTR7Xp2NrLYy2rlksFuPxxx+H3+/nBwy42ZGhxc7cbjf6+vrwrW99CwKBABs2bMCJEyfwzDPP4O6770ZeXh56enrQ29uLgYEBMAyDjIwMZGVl8e3htmf6y1/+gpycHBgMBkSjURw4cABOpxMikQjz5s3D0aNHEYlEsHPnzrhA3e1249y5c+jq6kJFRQUKCwv51x3LIEEgEIDf7+dvlq/HuXPn8OGHH+KBBx5ImGkwXgKBACtWrMAXX3yBdevWXffrzVRNTU38AJNarUZ+fj5qa2v5vaMJmWm4LdaAv05wcftpc1lQ0wVXmX8sx3Br68djLLsyeDwefPHFF1izZg0EAgF6e3tx8uTJuKD/ypUrcDqdyMvL4wfy6urq4u77Ojo6hg2cXkvWl0QigVar5QcHysvL8f7778e9R3JLGmKD9Gg0img0OuvqG1GAPo1REQoykbKyspCVlTXi85FIhN9ihRuZDYfDkEgk/Kye0WiMu+kuKCiA2+2GUCjkA46hI9UMwyRck1VRUQGfz4dgMAi/3z+mwQFCphLXt2P7tFgsRigUuurXCoXCMa17HlpfgmEYLF26FKWlpXjttdfgcrlgNBphNpuRkpIClmVx5swZvP/++wgEApDL5fD5fKisrMRjjz121e/Z1dWFN998EykpKSguLsYXX3wBgUCA+fPno6SkBGfPnsU777wDgUAAgUCAQCCA0tJSSCQSeDweVFZWory8HAzDwGq1Yu/evaivr4dUKoXBYMCaNWsQCoUgEAiQn58fd32IRCJobW1FSkpKwnRIh8OB//mf/8ETTzwxYqrltVi9ejV+97vf4cqVK7j99tsnZCBhpnG73VCr1QAGA3SpVIra2loIBIJrSg8mZKrFBugcrr7CdAvQpwu73Y6//OUvCAaDI96DjaXSP3ct4Vzrzzs1NZUP0I1GY8Lve/r0adTV1SE1NRWRSAQ9PT1gWRaZmZnIzMyETqeDXC7nBzhCoRCCwSCsViv6+/thsVhQXl6OYDCIjo4OhEIhyGQy/v1NrVYjOzt7WNaA3W7nBz4EAgHEYnHcebMsi97eXrS1tUGhUKCkpGTEiVZuBxiBQDDiwMJ4s14pQE8iSnEnySQUCpGWljauCyvDMMMuzEOFQqGEKaU6nY4fdWVZFl6vFzabDa2trejv74dKpYJcLuf3W+UKsrS1tVEwT6ZEbIo716clEsmYAvTrpVar8fDDD496TCQSgdfrverfZKz09HQ8+uijOHfuHDo6OvDd73437usrKirijg+Hw7h8+TK/PvGrr77CO++8A2Bw1mTVqlW44447+AybEydOQC6XIxQK4Z133uELFEWjUTAMA4vFwq/nzMjIwLp165CbmwsA+MMf/oD77rtvQoNzYHBJwve//33U19fjhRdeQGlpKbZv3z7uJQQzld/vjztXiUSCAwcO8J8LhUI+PZiQmSI2QOcGTrmt1sjIrmcbupEG8641QE9LS+N3JeLuL2OXLnC8Xu+wzILW1tYxZRs0NTWhubl51IHI2tpaZGVlIRwOw+fzobe3lw+qY8lkMpjNZvj9flit1ri4raWlBTk5OVCpVBCJRPB4PHA6nejr64Pb7eaPEwqFkMlkkMlkUCqVfA0BmkGfxijFncwGIpEImzZtGvVmj2EYKJVKKJVKWCyWUV+vtLQUJ0+eRH9/P830kKThtu4B4vv0dFrHzFUXvhaVlZWorKy86nEikQjl5eX85wUFBQgGgxAKhcPes7htIWONtv1cS0sLDhw4gDfffBPRaBTLli3jg/XJUFRUhJ/85Cc4fvw4fvnLX/K/Y6lUColEgoKCAsyfPx8ikQg9PT38v2AwCLVazf+TSqXw+XyIRCLIzc3ll+80NTUhGAyCYRiUlpYiIyNj0s5lPFpaWvifq1QqhUwmw6ZNm7Bnzx4Eg0GkpqbCarUmrMxMyHTlcDj4+wdu0FSn01G9m0lks9mGpbMrlUp+h4jxGroOvaKiAhcvXsTy5cuvuY2JXO3e0eVy4dKlS1d9Hb/fj+bm5oTPeTwefkvA0UQiEb6+QH9/P1pbWyGVShMOCIyGAnRCyLhN5EyMWq3G2rVrwbIsfD4fenp60NraCqfTye/lSzPsZKIN3R6Q69O0beD4fgajLd3KycnBfffdd83tKC8vR1NT07gq3zIMg2XLlmHZsmUAwKdD+v1+1NfX47333gMwWDzNZDJh2bJlkEgkcLvdcLlc/DZ83PaS+/btQ1dXF8xmMwoKCqDRaBCJRPDhhx+it7cXcrkc0WgUUqkUer2en11hGAbBYBAsy0Kv18NgMCA1NRUajQa9vb3o6elBbm7usKDZ7Xbj0qVLOH36NJxOJ/99q6qq4moksCzLV0SOLRDHLYEQiUTQarXo6+vjt1obT4De29uLjo4Ofl2tSqVCYWHhnFw+QKYGN4NeVlaGYDCI5uZm6PX6MQVa5Np0dnYOKzRqNBqv+fVkMhm/fz0weE3/+OOPJzxAn+4CgQCAwdn+saIAPYnGUuSBkOkuHA5PStVkhmGgUCiQl5fH32xygsEg+vv7UVtbi/7+/uv+XkP35CRzT2zfnaw+Ta5deXk5ysvLkZWVhQMHDox79oEjFoshFouhVCphMBhwww03jOvrV69enfDxG264AZFIhE/x9/v9sNlscLvdiEQiYFkWUqkULMvCZrOhpaUFJ0+ehNPphNFoRFpaGj744AP09vbymQrRaBRKpRKlpaW46aabkJKSgu7ubtTV1eH555/nCwgqlUqcP38eWq0WdrsdLpcL//RP/wRgMJDm+rPFYkFfXx9MJhPeeOMNfPTRRwgGg7jttttQUlKC9957D6dPn4bBYMCiRYsgEAjgdDrx9ddfQ6fTIS8vD1qtFizLwmq1Yt++fTAajVi3bh1MJhO/VCESicBqtfIZCXa7HfPnz0dxcfGoAzjcwEvswMN4cb+DsfzdBgKBObPsYTaw2+3QarXQarU4efIkKisrYbPZxrWXNBmf9vb2YQH69a73T0tL4wN0s9k8p4sJnzp1aszHUoCeRNXV1VPdBEKum0gkwrZt25K6nlEikSA9PR3p6emwWq2or69HZ2cnxGIxZDIZ3G73sFl2s9kMj8fDbzfEKSwsRH5+Pg4dOnRda7XIzBZ7Qx/bp2kGferl5OTwafcajQYrV67EwYMHp10mTewyAG5Jz3hs2LDhqsdkZ2cjOzsbGzduRDAYRFdXF1wuF77xjW9ALBYjEomgvr6e31tYqVTy/Zlbv1lVVYXi4mKo1Wp4vV68/vrr+K//+i984xvfwP/5P/8HTqcTZ8+eBQBkZGRgw4YNCesEbN68GXV1dTh06BD6+vr4dH+GYWAwGGA2m2EymZCdnY2TJ0/izTffRFZWFioqKiCXy+H1etHc3IzGxkYIBALIZDI+c0ogEEAul0MqlcLtdg8bQGVZFgaDATk5OYhGo+jv70dHRwdYloVQKOTXJ+/YsSMuwGhra8OePXvQ2dkJqVSKQCAAnU4Hi8UCo9HID66IRCJ+C6y0tLSESxK5rAWZTAa5XJ5w8MHj8UAikdBA3wQIBoOQSqVQq9XYtm0b+vv7oVarr1otnVy7jo4OLF68OO6x6w3QU1NT+ZljhmGQmpqacK/1uWA8FfwpQE8iWoNOZoupLDiUmpqK1NRUfuYKGJxFsdvtcLvd8Pl8yMjIgEajAcuyaGlpQWNjIwYGBmA2m/k9QNesWYNDhw6NK32WzB5DA3GuT8dWXCfJJ5PJUFVVFfeYwWBAZWUlH0TOVRKJBDk5OXGPCYVClJaW8p9zgwThcJhPR4+tZaBQKPDtb3877jW0Wu2ImQJDlZSUoKSkZEzHsSyLzs5OXLx4EVarFQqFAkuWLMFtt9027H6IC9QDgQBUKtWwAJebxW9tbYVQKERFRQXS09Pjjmtvb8d7772HgYEBvtijwWDAli1b4qo42+12dHZ28tWiZTIZwuEwGhsbcezYMfT19fFrWmN/dlarFQaDAaFQiN/tpKSkBF6vFx0dHQiHw5DL5XC73TCbzdBqtaivr+ffp6LRKNatW4fq6uqE94OBQACff/45jhw5ArFYjGXLluGGG26IyzCIRCIYGBiA1+uFwWAY96DQTKRQKBAOh6FQKPifJZkcVqs1bt04V9z3egwN8Ldu3YqPP/4YDz300HW97kwz3qxNCtCTiFJqyWwQDoexe/fuKU8Hjn2jFgqFMBgMMBgMcccwDIPc3Fzk5uYiEAhAKBTyN2lqtRobN27EqVOn0N7entS2k6k3NMWd69OJthAkybNgwYKE15WioiL09fWhs7NzClo1c3Ap7rt378bGjRuntC0Mw/BbJY3lWIVCMWIxKoZhrrorSVZWFr73ve8BGPybjkQiCVPadToddDpdXHHEkYTDYbhcLoTD4WHfOxAIoL6+HiqVCpmZmXH9tq2tDR6PB7feeisfjPt8Puzbtw9PP/00RCIR1Go10tLSoNVqUVtbC4/HgxUrVuAf//EfEQ6Hcfz4cfzqV7+CyWRCamoqLly4AKFQCL1eD7lcDpvNBq/XC2Aw+NdqtSgvL4dcLkckEkF7eztaWloQjUb5ei4WiwVFRUXQaDR8UUSRSIS+vj7Y7Xao1WpoNBpIJBKIRCIoFIprep/3eDz49NNPcebMGVRWVmL79u1xgwncrg9X236Y+967d+/G5s2bx90OMj4sy8bdW13P+nOOQqGAUqnk91rPycnBwMBAwu3cZrOmpibk5OTgzJkzYzqeYals8qRzOp3QarVwOBx080fINGS1WgEMBv39/f3o7u6mSrGzXH5+PhYtWjTscY/Hg08++WQKWkRMJhNWrVo14vPBYBCHDh2iNaij2L59e9yM10cffURZQtMQy7JwOp2wWq2w2+0oKCgYtuc3p7m5GQ6HA+Xl5aMGyzabDbW1tfwuDBkZGcjOzua/hmVZtLa2orm5mS+I6HK5EAqFYDQaodPp4Ha7YbfbEQqFEA6H4fV6h00uxWYEcJ9zuwdEo1EMDAxAJBKhpqYGCxcuxNmzZ/Hxxx/z2y7W1dXh8OHDEIlE0Ov1yMjIAMMw0Ov1mD9/PoLBIF5//XUUFhbirrvuwqZNm/jv/cEHH+A3v/kNXC4XNBoNqqqqsHjx4riMvnA4DJZlR/1Z+Xw+SCQSymyN0dDQgN27d+Pv/u7v+Mc2bNjAL5+5HidOnIirjn769Gk0NjZi586d1/3aM8UHH3wAk8mE5557bkzxIM2gJ1FbW9uwPWgJmWlYluVHPq82+j1TxKZ06fV6FBUVwWq14uzZs/zelUKhEFlZWVCr1QiFQvwWGnTzOzPF3rzF9mluDS9lPCXf1WY0JRIJ1qxZgy+++GJCikXONkKhEHK5PK4/q1QqukZNQwzD8AXQrmasWxPq9XqsWLFi1O+Zk5MzbJnEeHEFj7ngNhKJ8DslAIMZCrH3BlVVVaiqqkJDQwP27t2LwsJC/PSnP4VQKITVakVfXx+AwZ0DXn31VQSDQdxxxx2wWCxQKBRx/VmhUOC73/0uQqEQHA4Hjh8/jqeffjpuEIKrSZCWloaioiI0Njait7cXYrEYIpEIXq+XX9YQW9dCLBZDo9FAJBIhEolApVLBYrHw9wcymQzp6emTXqeEy36QSCRITU0dcaCBZVm0t7fDZrOhqKjomrdCA4Curi7893//N37wgx/wjxmNxgkJzoHBNPfYAL2qqgoffPABtm7del3tnkkuX76MlStXjvl4CtCTiAJ0MhuEw2F8/vnn2LRp06wuhJOamooNGzbwwTi3fdJQdrsdly5dQkdHBwDwhcbEYjGEQiEEAgFcLhe/zQaZHmJvsob2abVazQ/MkOTQarXDlqgkIhaLsXr1anz22WdwOBxJaNnMEbv+nOvPGo2GD4AImQhDZ525gaGrrVUuKChAQUFB3GNcTRkAKCsrw5o1a+Ke59afc/1ZoVBgYGAAYrEYqamp2LZtG7Zt25bw+3V0dKC5uRnbtm2D2WxGOBxGMBgccd1+MBiEw+FAJBKBUCiEy+VCW1sbLl68CJZl4fV60d3djWAwCLFYjLS0NP41tVot0tLSoFarIZPJ4HK50NPTwy+P4IogqlQqGAwGaLVaiMViMAwDp9MJu92Ojo4OdHd3IxqNwmKxIBKJoK+vD4FAALm5uRCJRGhra+MHSKLRKDIzM2EwGLBv3z6Ew2HceeedyM7O5s+pr68PH330Ef+6WVlZ2LZtG/8zj0QiuHDhAv7nf/4H3//+9+N+NmOpNTFWQ/dDZxgGd911F5599lncc889w/rFbMPV2EhUfHMkFKAn0VQV1SJkIonFYmzfvn2qm5E0YrF4xNRDYHC2YPny5QiHw3Fr3IfiCglx6YpkasUOLg3t0xqNhgL0JBvPDZpQKMTixYuxf/9+0Cq9v+LWc8b257m0xpPMPnK5PK4/j2e2dWj9A27LxZFIJJK4OgNpaWnIz89PeCy39Ss3IG+322G1WuF2u+FwOKBWq7Fw4UKo1Wp+twW/3w+n0wmbzYbW1laEQiGwLAu1Ws3XRDCZTMNihWg0ipaWFrAsi507d454DjabDa+++iq0Wi0kEgl6e3shEAiwY8cO5OXlQSAQoK6uDn/605/4bIdgMIiKigr8wz/8Q9xsuU6ng8lkuvoPeYyUSiUUCgVfMwEYrCvygx/8AC+//DK8Xm9c0V+WZWE2m5Gfnw+TyQS1Wg2r1Qqr1Qqfzwe/34+BgQE4nU6YTCbk5+cjEAjwAxEajQYMw8DtdkOj0WD58uXQ6/UABpcd19XVoampCV6vF36/H4FAAKFQCEVFRVi0aBGi0Sja2tpw5coVdHR0QCQSYcWKFVi0aFHcIIbf70dLSws6OjoQCAQQDof55R7cbg95eXlwOBzIyMgY18+MIsYkmm5bxBByLaLRKOx2O3Q6HVVUjXG1ATiFQoGioiIUFRXxhYe4Nwe32w2bzcaPttO1YvLFzqAP7dNUKyS5RCJR3KzPWOj1ehQWFqK+vn6SWjXzcAOJsf2ZAnQykykUirj+PF3SobmtXzlarfa6lw6MRCAQIC8v76rH6fV6PPbYY2hqaoJIJEJKSsqwXUnGugvDZMxop6WloaWlJe4xtVqN73//+wAGM38YhoFQKATLsujq6kJzczNqa2vhcrmQlpaG1NRUmM1myGQypKSkQK1Wo6enB42NjVAqlVi5ciUEAgGcTidYloVKpYLVasWf/vQnuN1uCAQCKBQKlJSU8MG2TCaDVCqFUChEbW0t9u3bB7FYjKysLNTU1CAjIwN+vx9HjhzBH/7wB/h8Pn4ihttZIysrCwaDAUKhkF/u4Xa70dvbiz179qCrqwu33nrruH5eFKAnEd10k9kgEongq6++wvr16ylAv0bcm+dI67tYlkU0GuVT2SKRCL9dnEQigcFggNfrRV9fH4RCIcxmMzQaDcRiMTweD5qamhAMBpN5SjNO7CzE0D5NAXpy5eTkXFOG2bx589DZ2clXB57ruOtJbH+mAJ3MZAqFIq4/T5cAfTobSzB/NRNRvX2ojIyMYQF6rNj3AIZhkJGRMaZZZ4vFAovFMuLzubm5WLJkyZjauGDBAixYsGDY4wqFAhs2bMCGDRvG9DpDhUIhCIVCPnNhLChATyJKcSezgVgspu1OJhk3ihy71q+0tDRuv2MAcXvBxyovL0dvby/8fj/sdjuamppogHCI2Bn0oX2aAvTk0Wq111ybRSgUorKyEkePHp3gVs1M3Ax6bH/mCmNR0UMyE3Ep7lx/pgB98snl8hHX6V+PjIyMYWnuc8W11GuiiDGJ6AaZzAbRaBRWqxWpqak0gz7FRvr5C4XCuPS7oqIiXL58GSKRCDKZDKFQCIFAAMFgEKFQiN8mJxqNwuv1wu12jzrSK5VKkZGRAaPRiI6ODnR0dMy4tcCxb5hD+zRVck8OrVaL1atXX1dV5KysLKSlpc35QmjcmkdgeH9WqVS0NR2ZkbgUd64/U4A++WLX4U8khmGQl5eHCxcuTMrrzwTjuWemAD2JKEAns0E0GsX58+exevVqCtBnCJVKlXDP79FwhVO4zB+Px4NgMAidThe3rs1iscDr9aK3txd2ux0SiQQpKSkQCATw+XxgWRYKhYKvVsvtPyuVSqFWqyGVStHU1ISGhgZ+DZpYLIZEIgHDMGBZFqFQCMFgcMIGATQaDaRSKf95oj5Nldwnl9lsRnV19YRsWVRVVYW9e/fOuEGiiRS7XGZof1ar1RSgkxlHJpNBIBAgHA7z/ZlbK8wt/yITb2jF9YmUn5+PS5cuzdl4aCw7lXAoQE8iSnEns4FIJML69eunuhlkksXOyAEYNeVNoVCMaa/ekda1VVZW8mnOIw36cHvh9vT0wOfzQaPR8AG+UCiEz+eDy+WCzWaDzWaDWCyGUqmETqeDwWCAQCBAKBSCQqEYth1Qoj6t0Wjg8XiQnZ0NvV4PjUYDgUCASCSCuro6tLe3X/V8SWLz5s0btlzjemi1WlRVVeHMmTNzNkiP3WliaH+mdehkJuKu00P7s0KhgMvlmqpmzXqTNYMODGbfZWVlobW1ddK+x3Q2nrX9FDEm0VwdMSKzSzQaRVdXF9LT02kGnUyYq/UlhmGg0WhGXB8ul8uh1+uvqZJuoj5dVlaGRYsWDdvzFwBuuOEGNDc380G6XC6H0WiERqPhA0Ru9qerqws9PT3Q6XRIS0tDMBiE0+lEU1MTnE7nuNqpVCpRUFAAuVwOhmH4AQmhUMjvF+xwODAwMDBt32/Ky8snNDjnFBQUQKvV4tixY/D5fBP++tPd0Bn02P5MATqZibh09qH9mQL0ycNltk2mkpKSORugj2fwY84H6IcOHcJzzz2HkydPoqurC++88w5uvvlm/nmWZfHkk0/iD3/4A+x2O1auXIkXX3wRRUVF4/5eQ2dtCJmJotEoGhoaYDKZKEAns0KiPj10e5qhcnNzx5Q1kJOTM2zQwGQyobCwEO3t7fB6vVCpVBAIBAgEAmBZFlKpFMFgEFeuXIHD4UBaWhpyc3NhsVj47V1GEwwG0draCofDAaVSye+zq1Ao4PF44PP5IBKJIBQKYbPZYLVaEYlEIBAI0Nvbywe4YrEY6enpyMrKglQqRXt7O3p6euDxeBKmmMrlcphMJrAsC5/PB5vNFreOPzs7G+Xl5Vdt/7VKTU3F5s2b0dDQgPr6+nFVzJ3pYmfQh/ZnKnpIZqLYAD22P9M69MkzmentHK1Wi+zs7DkXpEul0rjr9NXM+QDd4/FgwYIFeOCBBxLuUffss8/i+eefx6uvvoq8vDz89Kc/xebNm3Hx4sW49M+xSFS6n5CZRiQSYfXq1VPdDEImzFT0aYZhRt0aBhgcBAiFQuOuACuRSFBYWJjwOZVKFTf4oNFo4gYaWJZFZ2cnBALBsEG42PVzgUAA0WiU/8cwzLBBjWg0ip6eHgSDQchksklNneSIRCJ+r99wOAyfzweHwwG73Q63283vYSuTyaBUKqHRaMAwDP88N1ChVqshl8vh8/n4ugkymQxCoRACgQB+vx8ejwcMw0AulyMUCsFut8Pr9SIcDiMSiVxzuj0XVEulUgQCAXg8HoRCoRGPl0qlcUHL0P6sUqn4eg5DjfS4UCiETCbjB3IYhoHb7UYgELimcyJkvGJT3GP7MwXokycZ12gAqKioQHt7+7TN9JoM4926bs4H6Fu3bsXWrVsTPseyLH7961/jn//5n3HTTTcBAF577TWYTCa8++67uPPOO8f1veZSRySzVzQaRVtbGywWC82gk1lhOvfpa9me5XowDIPMzMyrHhdbZG8kAoEgbjeBZBOJRFCr1VCr1cjKyhr12Ozs7An//izLIhwO8wUXI5EIotEoJBIJxGIxgsEgX0hRIBBAIpHwWxzF9sNoNIq+vj5YrVYIBAKIxWLI5XJIJBJ+ACTW0P4sFAqxfv16KJVKhMNh1NfXo6+vD4WFhcjOzkYgEIDL5YLX60UgEEBKSkrCXTpYlkVPTw96e3v5QQOZTAaFQsHXrOCCeqvViu7ubr4wJMMwkEqlEAgEYFkWMpkMKSkpUCgUYFkW0WiU/3m53W54PB4IhUKIRCJIJBJIJBL+eZlMBo1GA5FIhEgkglAoBL/fD6fTCavVGpe1IZVKYTKZoNFooFKp4Pf74Xa74fV6+UwRiUTCD0KEQiF4PB54vd5hAxcikQjp6ekIBAL8ThfRaJRfYiKVSiGRSOD1eq+rKJ9IJALLshNSCI37ec+02gxCoZAfEBzan6+W3USujdFoHFNW2ERQKpXIz8/HlStXkvL9pgOTyTSu4+d8gD6apqYmdHd3o6amhn9Mq9Vi2bJlOHLkyIgBeiAQiBtl5tYZciPg3EU3thKlUCjkKxhzHwsEAr6CZaKPuY3vuY9FIhH/BsMVpAuHw3Efi8Vi/k1OLBYjGo0iEonwH0ejUYhEohE/5mYFuI8TnQed0+w+J+7NMj09HRKJZFac02z8PdE5jf2cgsEgOjo6+DWOs+GcZuPvaaaeE7e94XjOiXsd7pxMJhOffhp7HmlpaYhEIohEIvx5RCIRdHR0wGQyQSKR8BkB3CBARUVF3DlJpVI+CyD2nLjlFLHnZDAYYDabr/p70ul0yM/P5wNYLgif7N8TwzB8DQYumBOLxePue36/nx9gAAYD/by8PP73w/3P/fyGnpPf7+cDeG6QxO/3o6+vD/39/YhEImAYhi9ayS1FUSgU/AANl73hcDj4HTQUCgX/tW63Gy6Xiw/mfT4fAoEAFAoF1Go1UlNTodFo+P7hcDhgs9ng8/n4fsK1TalUQqlUwu12w+12QyQS8W3weDxwuVxxk0xcRolEIoFIJOL7OTegGI1G+XPr7+9HX18fHA4H//Wxvzfu98wwDCKRCLRaLaqrq6FWq/n75vb2dhiNRsjlcmRlZSElJQVWqxVtbW3o7e2dcQMQ001OTg4WLFjAD8ol41peWVkJuVzOL0eKvU4kA3fdk0gkcX3VarXyWWHcAGQ0GoXL5Rpx61WGYSASiSCVSvm/LW6A0e/3IxwOIzU1ddhg6mim11TBNNPd3Q1g+KiHyWTin0vk6aefhlar5f9xaYy1tbUAgEuXLuHSpUsAgK+//hr19fUAgNOnT6OpqQkAcPz4cbS1tQEADh8+jK6uLgCDa+atVisA4LPPPuNHaXfv3s0Xzfj444/5DvHxxx/zI/gff/wxAMDlcmH37t0AALvdjs8++wwAYLVacejQIQBAV1cXDh8+DABoa2vD8ePHAQwOWpw+fRoAUF9fj6+//prOaY6dk0gkgsfjgdvtnjXnNBt/T3ROYz+nw4cPY8WKFejr65s15zQbf090TmM7p7a2NqxYsQKnTp2aFufEMEzSfk8Mw+Crr76CQCCAXq/Hnj17rumcvF4v6urqMH/+fJjNZnR0dEAikQz7PZ08eTLhOV2+fBkGgwE9PT3o6uqCTqdDV1cXxGIx1q5dC41Gg+zsbNxwww3weDwQi8UwmUw4ffo0f05HjhxBOBxGXl4empubIRaLoVar8eWXX/KZLnV1dcjNzUVJSQk6OzuxbNkylJWV4eLFi0hJSYHH48GePXv4QKStrQ2LFy9GXl4e/H4/brjhBmRkZMBqtSInJwcqlQqRSASLFy+GWq2GWCzGxo0bUVZWBovFgo0bN6K4uBj5+fnYtGkTtFotUlNTsWzZMj4onz9/PrxeL6RSKSwWC5xOJ8rLy7F9+3aoVCpUVFTgb/7mbyCXy7F+/Xp885vfhEQiwfr167Fz507+58H9ngBg0aJF/O/G5XLh4MGDyM3NRUVFBZRKJVasWIG8vDwolUosX74cZWVl0Gg0KC8vR05ODvR6PZYsWYLs7GyYzWbs2LED5eXlyM/Px9/8zd+goKAA+fn52Lp1K3JyclBSUoKtW7ciPT0dRUVFWLduHdLS0lBcXIzq6mqoVCro9Xrk5uZCqVQiLy8P8+bNg1wuR35+PubPnw+pVIqysjKUlpZCLBajpKQElZWVEIvFKCsrQ3p6OsRiMcxmM7KysiCRSFBVVYXy8nIoFAr+PJRKJbKyspCWlga1Wo3q6mrk5+fDYDBgw4YNKC8vR3p6OlatWoX09HTodDpYLBZoNBqkpKSgoqICZrMZ+fn5WLNmDdLS0mCxWDB//nzo9XosWLAAS5cuxdGjR5N6jRAKhVCpVNBoNLjllluwaNEi/ndTWloKs9mMG2+8ERaLBUajETfccAMsFgtycnJQU1ODzMxMZGdnY+3atcjMzERFRQU2b94Mo9GI0tJSrFmzBnq9HpWVlVi4cCGUSiVKSkqwfv16qNVqrFy5EjU1NXC5XCguLkZFRQUGBgawceNGbNu2DSKRCJs2bcINN9wAt9uNm2++GWvXroVMJsPq1av519y2bRtuvPFGqNVqbNmyBQsXLkRKSgq+8Y1voKysDEajEVu2bEF3dzfOnj2LsWJYGnbiMQwTVyTu8OHDWLlyJTo7O+PS9G6//XYwDIM333wz4eskmkG3WCw4ePAgVq9ePeWj+bNxhoLOKXnnxLIsrly5gvz8fIjF4llxTrPx90TnNPZzCoVCaGtrQ05ODj8SPtPPaTb+nuicxnZO0WgUra2tsFgsEIvFs+KcZuPvic5pbOfEMAyamppgsVggk8lmxTnNxt8TndPVz8nhcMBgMMDhcFy1eCcF6DGGBuiNjY0oKCjA6dOnUVVVxR+3Zs0aVFVV4Te/+c2YXtfpdEKr1eKTTz7Bli1bJqHlhCRPOBzG6dOnsXDhQv7iRchMRn2azCbUn8lsQv2ZzBZcPDiWAJ1S3EeRl5cHs9mMffv28Y85nU4cO3YMy5cvH/fr0YWFzAYikQhLly6l/kxmDerTZDah/kxmE+rPZC6a8wG62+3GmTNncObMGQCD64jOnDmD1tZWMAyDRx99FE899RTef/99nDt3Dvfeey8yMjLi9kofKy4dg5CZLBKJoLa2lvozmTWoT5PZhPozmU2oP5O5aM4PR504cQLr1q3jP3/88ccBAPfddx9eeeUV/PjHP4bH48F3vvMd2O123Hjjjfj000/HvQc6IbMJtz0NIbMF9Wkym1B/JrMJ9Wcy19Aa9CTg1hzs2bMnbss2QgghhBBCCCGzG61Bn6YoPYfMBpFIBOfPn6f+TGYN6tNkNqH+TGYT6s9kLqIAnRBCCCGEEEIImQbm/Br0ZBIKhVPdBEKum1AoxLx586a6GYRMGOrTZDah/kxmE+rPZC6iAD0JuGX+TqcTTqdziltDyPXh0s3mzZtHg05kVqA+TWYT6s9kNqH+TGYLLgYcS/k3KhKXBI2NjSgoKJjqZhBCCCGEEEIImSJtbW3Iysoa9RiaQU8CvV4PAGhtbYVWq53i1hByfZxOJywWC9ra2q5ahZKQmYD6NJlNqD+T2YT6M5ktWJaFy+VCRkbGVY+lAD0JBILBWnxarZYuLmTW0Gg01J/JrEJ9mswm1J/JbEL9mcwGY52opSruhBBCCCGEEELINEABOiGEEEIIIYQQMg1QgJ4EUqkUTz75JKRS6VQ3hZDrRv2ZzDbUp8lsQv2ZzCbUn8lcRFXcCSGEEEIIIYSQaYBm0AkhhBBCCCGEkGmAAnRCCCGEEEIIIWQaoACdEEIIIYQQQgiZBihAJ4QQQgghhBBCpgEK0JPghRdeQG5uLmQyGZYtW4bjx49PdZMIuaqf//znYBgm7l9paSn/vN/vx8MPPwyDwQCVSoWdO3eip6dnCltMyF8dOnQIO3bsQEZGBhiGwbvvvhv3PMuy+NnPfob09HTI5XLU1NSgvr4+7hibzYa7774bGo0GOp0ODz74INxudxLPgpBBV+vPu3btGna93rJlS9wx1J/JdPH0009j6dKlUKvVMBqNuPnmm1FXVxd3zFjuMVpbW7F9+3YoFAoYjUb86Ec/QjgcTuapEDIpKECfZG+++SYef/xxPPnkkzh16hQWLFiAzZs3o7e3d6qbRshVVVRUoKuri//3xRdf8M899thj+OCDD/D222/j4MGD6OzsxK233jqFrSXkrzweDxYsWIAXXngh4fPPPvssnn/+ebz00ks4duwYlEolNm/eDL/fzx9z991348KFC9izZw8+/PBDHDp0CN/5zneSdQqE8K7WnwFgy5YtcdfrN954I+556s9kujh48CAefvhhHD16FHv27EEoFMKmTZvg8Xj4Y652jxGJRLB9+3YEg0EcPnwYr776Kl555RX87Gc/m4pTImRisWRSVVdXsw8//DD/eSQSYTMyMtinn356CltFyNU9+eST7IIFCxI+Z7fbWbFYzL799tv8Y5cuXWIBsEeOHElSCwkZGwDsO++8w38ejUZZs9nMPvfcc/xjdrudlUql7BtvvMGyLMtevHiRBcB+9dVX/DGffPIJyzAM29HRkbS2EzLU0P7Msix73333sTfddNOIX0P9mUxnvb29LAD24MGDLMuO7R7j448/ZgUCAdvd3c0f8+KLL7IajYYNBALJPQFCJhjNoE+iYDCIkydPoqamhn9MIBCgpqYGR44cmcKWETI29fX1yMjIQH5+Pu6++260trYCAE6ePIlQKBTXt0tLS5GdnU19m0x7TU1N6O7ujuu/Wq0Wy5Yt4/vvkSNHoNPpsGTJEv6YmpoaCAQCHDt2LOltJuRqDhw4AKPRiJKSEvzd3/0d+vv7+eeoP5PpzOFwAAD0ej2Asd1jHDlyBJWVlTCZTPwxmzdvhtPpxIULF5LYekImHgXok8hqtSISicRdPADAZDKhu7t7ilpFyNgsW7YMr7zyCj799FO8+OKLaGpqwqpVq+ByudDd3Q2JRAKdThf3NdS3yUzA9dHRrs3d3d0wGo1xz4tEIuj1eurjZNrZsmULXnvtNezbtw/PPPMMDh48iK1btyISiQCg/kymr2g0ikcffRQrV67EvHnzAGBM9xjd3d0Jr+Hcc4TMZKKpbgAhZHraunUr//H8+fOxbNky5OTk4K233oJcLp/ClhFCCIl155138h9XVlZi/vz5KCgowIEDB7Bhw4YpbBkho3v44Ydx/vz5uBo3hMx1NIM+iVJTUyEUCodVnezp6YHZbJ6iVhFybXQ6HYqLi3HlyhWYzWYEg0HY7fa4Y6hvk5mA66OjXZvNZvOwYp7hcBg2m436OJn28vPzkZqaiitXrgCg/kymp0ceeQQffvgh9u/fj6ysLP7xsdxjmM3mhNdw7jlCZjIK0CeRRCLB4sWLsW/fPv6xaDSKffv2Yfny5VPYMkLGz+12o6GhAenp6Vi8eDHEYnFc366rq0Nrayv1bTLt5eXlwWw2x/Vfp9OJY8eO8f13+fLlsNvtOHnyJH/MZ599hmg0imXLliW9zYSMR3t7O/r7+5Geng6A+jOZXliWxSOPPIJ33nkHn332GfLy8uKeH8s9xvLly3Hu3Lm4gac9e/ZAo9GgvLw8OSdCyCShFPdJ9vjjj+O+++7DkiVLUF1djV//+tfweDy4//77p7pphIzqhz/8IXbs2IGcnBx0dnbiySefhFAoxF133QWtVosHH3wQjz/+OPR6PTQaDf7+7/8ey5cvxw033DDVTScEbrebnz0EBgvDnTlzBnq9HtnZ2Xj00Ufx1FNPoaioCHl5efjpT3+KjIwM3HzzzQCAsrIybNmyBQ899BBeeuklhEIhPPLII7jzzjuRkZExRWdF5qrR+rNer8f/+l//Czt37oTZbEZDQwN+/OMfo7CwEJs3bwZA/ZlMLw8//DBef/11vPfee1Cr1fyaca1WC7lcPqZ7jE2bNqG8vBz33HMPnn32WXR3d+Of//mf8fDDD0MqlU7l6RFy/aa6jPxc8G//9m9sdnY2K5FI2Orqavbo0aNT3SRCruqOO+5g09PTWYlEwmZmZrJ33HEHe+XKFf55n8/Hfu9732NTUlJYhULB3nLLLWxXV9cUtpiQv9q/fz8LYNi/++67j2XZwa3WfvrTn7Imk4mVSqXshg0b2Lq6urjX6O/vZ++66y5WpVKxGo2Gvf/++1mXyzUFZ0PmutH6s9frZTdt2sSmpaWxYrGYzcnJYR966KG47adYlvozmT4S9WUA7Msvv8wfM5Z7jObmZnbr1q2sXC5nU1NT2R/84AdsKBRK8tkQMvEYlmXZ5A8LEEIIIYQQQgghJBatQSeEEEIIIYQQQqYBCtAJIYQQQgghhJBpgAJ0QgghhBBCCCFkGqAAnRBCCCGEEEIImQYoQCeEEEIIIYQQQqYBCtAJIYQQQgghhJBpgAJ0QgghhBBCCCFkGqAAnRBCCCGEEEIImQYoQCeEEELIrBEMBlFYWIjDhw9P6Ot++umnqKqqQjQandDXJYQQQmJRgE4IIYRMU7t27QLDMMP+XblyZaqbNm299NJLyMvLw4oVK/jHGIbBu+++O+zYXbt24eabbx7T627ZsgVisRj//d//PUEtJYQQQoajAJ0QQgiZxrZs2YKurq64f3l5ecOOCwaDU9C66YVlWfz2t7/Fgw8+OCmvv2vXLjz//POT8tqEEEIIQAE6IYQQMq1JpVKYzea4f0KhEGvXrsUjjzyCRx99FKmpqdi8eTMA4Pz589i6dStUKhVMJhPuueceWK1W/vU8Hg/uvfdeqFQqpKen45e//CXWrl2LRx99lD8m0YyzTqfDK6+8wn/e1taG22+/HTqdDnq9HjfddBOam5v557nZ6X/9139Feno6DAYDHn74YYRCIf6YQCCAJ554AhaLBVKpFIWFhfjjH/8IlmVRWFiIf/3Xf41rw5kzZ0bNIDh58iQaGhqwffv2cf6Ugebm5oTZCmvXruWP2bFjB06cOIGGhoZxvz4hhBAyFhSgE0IIITPUq6++ColEgi+//BIvvfQS7HY71q9fj4ULF+LEiRP49NNP0dPTg9tvv53/mh/96Ec4ePAg3nvvPezevRsHDhzAqVOnxvV9Q6EQNm/eDLVajc8//xxffvklVCoVtmzZEjeTv3//fjQ0NGD//v149dVX8corr8QF+ffeey/eeOMNPP/887h06RJ+97vfQaVSgWEYPPDAA3j55Zfjvu/LL7+M1atXo7CwMGG7Pv/8cxQXF0OtVo/rfADAYrHEZSmcPn0aBoMBq1ev5o/Jzs6GyWTC559/Pu7XJ4QQQsZCNNUNIIQQQsjIPvzwQ6hUKv7zrVu34u233wYAFBUV4dlnn+Wfe+qpp7Bw4UL8y7/8C//Yf/7nf8JiseDy5cvIyMjAH//4R/zpT3/Chg0bAAwG+VlZWeNq05tvvoloNIr/+I//AMMwAAaDZ51OhwMHDmDTpk0AgJSUFPz2t7+FUChEaWkptm/fjn379uGhhx7C5cuX8dZbb2HPnj2oqakBAOTn5/PfY9euXfjZz36G48ePo7q6GqFQCK+//vqwWfVYLS0tyMjISPjcXXfdBaFQGPdYIBDgZ9uFQiHMZjMAwO/34+abb8by5cvx85//PO5rMjIy0NLSMo6fFiGEEDJ2FKATQggh09i6devw4osv8p8rlUr+48WLF8cde/bsWezfvz8uoOc0NDTA5/MhGAxi2bJl/ON6vR4lJSXjatPZs2dx5cqVYTPVfr8/Lv27oqIiLihOT0/HuXPnAAymqwuFQqxZsybh98jIyMD27dvxn//5n6iursYHH3yAQCCA2267bcR2+Xw+yGSyhM/96le/4gcCOE888QQikciwYx944AG4XC7s2bMHAkF8sqFcLofX6x2xDYQQQsj1oACdEEIImcaUSuWIKd2xwToAuN1u7NixA88888ywY9PT08dc/Z1hGLAsG/dY7Npxt9uNxYsXJ6xonpaWxn8sFouHvS63TZlcLr9qO7797W/jnnvuwa9+9Su8/PLLuOOOO6BQKEY8PjU1lR8AGMpsNg/7OarVatjt9rjHnnrqKfzlL3/B8ePHE6bK22y2uHMkhBBCJhIF6IQQQsgssWjRIvz5z39Gbm4uRKLhb/EFBQUQi8U4duwYsrOzAQADAwO4fPly3Ex2Wloaurq6+M/r6+vjZo0XLVqEN998E0ajERqN5praWllZiWg0ioMHDw6b2eZs27YNSqUSL774Ij799FMcOnRo1NdcuHAhXnzxRbAsy6fej8ef//xn/O///b/xySefoKCgYNjzXIbAwoULx/3ahBBCyFhQkThCCCFklnj44Ydhs9lw11134auvvkJDQwP+8pe/4P7770ckEoFKpcKDDz6IH/3oR/jss89w/vx57Nq1a1ga9/r16/Hb3/4Wp0+fxokTJ/Dd7343bjb87rvvRmpqKm666SZ8/vnnaGpqwoEDB/D9738f7e3tY2prbm4u7rvvPjzwwAN49913+dd46623+GOEQiF27dqFn/zkJygqKsLy5ctHfc1169bB7XbjwoUL4/ipDTp//jzuvfdePPHEE6ioqEB3dze6u7ths9n4Y44ePQqpVHrVdhBCCCHXigJ0QgghZJbIyMjAl19+iUgkgk2bNqGyshKPPvoodDodH4Q/99xzWLVqFXbs2IGamhrceOONw9ay//KXv4TFYsGqVavwt3/7t/jhD38Yl1quUChw6NAhZGdn49Zbb0VZWRkefPBB+P3+cc2ov/jii/jmN7+J733veygtLcVDDz0Ej8cTd8yDDz6IYDCI+++//6qvZzAYcMsttyRMvb+aEydOwOv14qmnnkJ6ejr/79Zbb+WPeeONN3D33XePmmZPCCGEXA+GHbrIjBBCCCFzytq1a1FVVYVf//rXU92UYT7//HNs2LABbW1tMJlMVz3+66+/xsaNG9HQ0JCwWN61slqtKCkpwYkTJ5CXlzdhr0sIIYTEohl0QgghhEw7gUAA7e3t+PnPf47bbrttTME5AMyfPx/PPPMMmpqaJrQ9zc3N+Pd//3cKzgkhhEwqKhJHCCGEkGnnjTfewIMPPoiqqiq89tpr4/raXbt2TXh7lixZgiVLlkz46xJCCCGxKMWdEEIIIYQQQgiZBijFnRBCCCGEEEIImQYoQCeEEEIIIYQQQqYBCtAJIYQQQgghhJBpgAJ0QgghhBBCCCFkGqAAnRBCCCGEEEIImQYoQCeEEEIIIYQQQqYBCtAJIYQQQgghhJBpgAJ0QgghhBBCCCFkGvh/gDL8WVmJpk0AAAAASUVORK5CYII=;points=[[0,0,0,0,0],[0,0.25,0,0,0],[0,0.5,0,0,0],[0,0.75,0,0,0],[0,1,0,0,0],[0.25,0,0,0,0],[0.25,1,0,0,0],[0.5,0,0,0,0],[0.5,1,0,0,0],[0.75,0,0,0,0],[0.75,1,0,0,0],[1,0,0,0,0],[1,0.25,0,0,0],[1,0.5,0,0,0],[1,0.75,0,0,0],[1,1,0,0,0]];clipPath=inset(48.3% 0.33% 1.14% 0.67%);" parent="1" vertex="1">
          <mxGeometry x="40" y="36.7" width="1011" height="302.93" as="geometry" />
        </mxCell>
      </root>
    </mxGraphModel>
  </diagram>
</mxfile>
